<?xml version="1.0" encoding="utf-8"?>
<!-- Generator: Adobe Illustrator 24.2.3, SVG Export Plug-In . SVG Version: 6.00 Build 0)  -->
<svg version="1.1" id="Capa_1" xmlns="http://www.w3.org/2000/svg" xmlns:xlink="http://www.w3.org/1999/xlink" x="0px" y="0px"
	 viewBox="0 0 921.4 601.4" style="enable-background:new 0 0 921.4 601.4;" xml:space="preserve">
<style type="text/css">
	.st0{fill:#EDEBEB;}
	.st1{clip-path:url(#SVGID_2_);}
	.st2{fill:none;stroke:#000000;}
	.st3{font-family:'Helvetica';}
	.st4{font-size:10px;}
	.st5{fill:#160C0C;}
	.st6{font-family:'Arial-BoldMT';}
	.st7{font-size:12px;}
	.st8{fill:#0F0C0C;}
	.st9{fill:none;stroke:#111393;}
	.st10{fill:#111393;}
	.st11{fill:none;stroke:#CCCCCC;}
	.st12{font-family:'MyriadPro-Regular';}
	.st13{fill:none;stroke:#000000;stroke-miterlimit:10;}
	.st14{fill:#AF25CC;}
</style>
<rect id="backgorund" x="1.6" y="1.6" class="st0" width="920.4" height="599"/>
<g id="viz_1_">
	<g transform="translate(0,0)">
		<g>
			<defs>
				<rect id="SVGID_1_" y="1.4" width="805" height="600"/>
			</defs>
			<clipPath id="SVGID_2_">
				<use xlink:href="#SVGID_1_"  style="overflow:visible;"/>
			</clipPath>
			<g transform="translate(50,10)" class="st1">
				<g id="axis">
					<g transform="translate(0,570)">
						<path class="st2" d="M0,7.4v-6h740v6"/>
						<g transform="translate(0,0)">
							<line class="st2" x1="0" y1="1.4" x2="0" y2="7.4"/>
							<text transform="matrix(1 0 0 1 -2.7808 17.5409)" class="st3 st4">0</text>
						</g>
						<g transform="translate(92.5,0)">
							<line class="st2" x1="0" y1="1.4" x2="0" y2="7.4"/>
							<text transform="matrix(1 0 0 1 -5.5615 17.5409)" class="st3 st4">10</text>
						</g>
						<g transform="translate(185,0)">
							<line class="st2" x1="0" y1="1.4" x2="0" y2="7.4"/>
							<text transform="matrix(1 0 0 1 -5.5615 17.5409)" class="st3 st4">20</text>
						</g>
						<g transform="translate(277.5,0)">
							<line class="st2" x1="0" y1="1.4" x2="0" y2="7.4"/>
							<text transform="matrix(1 0 0 1 -5.5615 17.5409)" class="st3 st4">30</text>
						</g>
						<g transform="translate(370,0)">
							<line class="st2" x1="0" y1="1.4" x2="0" y2="7.4"/>
							<text transform="matrix(1 0 0 1 -5.5615 17.5409)" class="st3 st4">40</text>
						</g>
						<g transform="translate(462.5,0)">
							<line class="st2" x1="0" y1="1.4" x2="0" y2="7.4"/>
							<text transform="matrix(1 0 0 1 -5.5615 17.5409)" class="st3 st4">50</text>
						</g>
						<g transform="translate(555,0)">
							<line class="st2" x1="0" y1="1.4" x2="0" y2="7.4"/>
							<text transform="matrix(1 0 0 1 -5.5615 17.5409)" class="st3 st4">60</text>
						</g>
						<g transform="translate(647.5,0)">
							<line class="st2" x1="0" y1="1.4" x2="0" y2="7.4"/>
							<text transform="matrix(1 0 0 1 -5.5615 17.5409)" class="st3 st4">70</text>
						</g>
						<g transform="translate(740,0)">
							<line class="st2" x1="0" y1="1.4" x2="0" y2="7.4"/>
							<text transform="matrix(1 0 0 1 -5.5615 17.5409)" class="st3 st4">80</text>
						</g>
						<text transform="matrix(1 0 0 1 721.3262 -3.5591)" class="st5 st6 st7">Día</text>
					</g>
					<g transform="translate(0,0)">
						<path class="st2" d="M0,571.4V1.4"/>
						<g transform="translate(0,570)">
							<line class="st2" x1="0" y1="1.4" x2="-6" y2="1.4"/>
							<text transform="matrix(1 0 0 1 -14.5615 4.6409)" class="st3 st4">0</text>
						</g>
						<g transform="translate(0,532)">
							<line class="st2" x1="0" y1="1.4" x2="-6" y2="1.4"/>
							<text transform="matrix(1 0 0 1 -14.5615 4.6409)" class="st3 st4">2</text>
						</g>
						<g transform="translate(0,494)">
							<line class="st2" x1="0" y1="1.4" x2="-6" y2="1.4"/>
							<text transform="matrix(1 0 0 1 -14.5615 4.6409)" class="st3 st4">4</text>
						</g>
						<g transform="translate(0,456)">
							<line class="st2" x1="0" y1="1.4" x2="-6" y2="1.4"/>
							<text transform="matrix(1 0 0 1 -14.5615 4.6409)" class="st3 st4">6</text>
						</g>
						<g transform="translate(0,418.00000000000006)">
							<line class="st2" x1="0" y1="1.4" x2="-6" y2="1.4"/>
							<text transform="matrix(1 0 0 1 -14.5615 4.6409)" class="st3 st4">8</text>
						</g>
						<g transform="translate(0,380.00000000000006)">
							<line class="st2" x1="0" y1="1.4" x2="-6" y2="1.4"/>
							<text transform="matrix(1 0 0 1 -20.123 4.6409)" class="st3 st4">10</text>
						</g>
						<g transform="translate(0,342)">
							<line class="st2" x1="0" y1="1.4" x2="-6" y2="1.4"/>
							<text transform="matrix(1 0 0 1 -20.123 4.6409)" class="st3 st4">12</text>
						</g>
						<g transform="translate(0,304)">
							<line class="st2" x1="0" y1="1.4" x2="-6" y2="1.4"/>
							<text transform="matrix(1 0 0 1 -20.123 4.6409)" class="st3 st4">14</text>
						</g>
						<g transform="translate(0,266)">
							<line class="st2" x1="0" y1="1.4" x2="-6" y2="1.4"/>
							<text transform="matrix(1 0 0 1 -20.123 4.6409)" class="st3 st4">16</text>
						</g>
						<g transform="translate(0,228)">
							<line class="st2" x1="0" y1="1.4" x2="-6" y2="1.4"/>
							<text transform="matrix(1 0 0 1 -20.123 4.6409)" class="st3 st4">18</text>
						</g>
						<g transform="translate(0,190.00000000000003)">
							<line class="st2" x1="0" y1="1.4" x2="-6" y2="1.4"/>
							<text transform="matrix(1 0 0 1 -20.123 4.6409)" class="st3 st4">20</text>
						</g>
						<g transform="translate(0,152.00000000000003)">
							<line class="st2" x1="0" y1="1.4" x2="-6" y2="1.4"/>
							<text transform="matrix(1 0 0 1 -20.123 4.6409)" class="st3 st4">22</text>
						</g>
						<g transform="translate(0,113.99999999999997)">
							<line class="st2" x1="0" y1="1.4" x2="-6" y2="1.4"/>
							<text transform="matrix(1 0 0 1 -20.123 4.6409)" class="st3 st4">24</text>
						</g>
						<g transform="translate(0,75.99999999999999)">
							<line class="st2" x1="0" y1="1.4" x2="-6" y2="1.4"/>
							<text transform="matrix(1 0 0 1 -20.123 4.6409)" class="st3 st4">26</text>
						</g>
						<g transform="translate(0,37.99999999999999)">
							<line class="st2" x1="0" y1="1.4" x2="-6" y2="1.4"/>
							<text transform="matrix(1 0 0 1 -20.123 4.6409)" class="st3 st4">28</text>
						</g>
						<g transform="translate(0,0)">
							<line class="st2" x1="0" y1="1.4" x2="-6" y2="1.4"/>
							<text transform="matrix(1 0 0 1 -20.123 4.6409)" class="st3 st4">30</text>
						</g>
						<text transform="matrix(1 0 0 1 4 11.7358)" class="st8 st6 st7">Fallecidos</text>
					</g>
				</g>
				<g id="viz">
					<g>
						<path class="st9" d="M0,571.4c4.6,0,4.6-114,9.2-114s4.6-76,9.2-76s4.6,0,9.2,0s4.6,0,9.2,0s4.6,0,9.2,0s4.6,0,9.2,0
							s4.6,0,9.2,0s4.6,0,9.2,0s4.6-19,9.2-19s4.6,0,9.2,0s4.6,0,9.2,0s4.6-95,9.2-95s4.6,0,9.2,0s4.6,0,9.2,0s4.6,0,9.2,0
							s4.6,0,9.2,0s4.6-152,9.2-152s4.6,0,9.2,0s4.6,0,9.2,0s4.6,0,9.2,0s4.6,0,9.2,0s4.6,0,9.2,0s4.6,0,9.2,0s4.6,0,9.2,0
							s4.6,0,9.2,0s4.6,0,9.2,0s4.6,0,9.2,0s4.6,0,9.2,0s4.6,0,9.2,0s4.6,0,9.2,0s4.6,0,9.2,0s4.6,0,9.2,0s4.6,0,9.2,0
							s4.6-19,9.2-19s4.6,0,9.2,0s4.6,0,9.2,0s4.6-19,9.2-19s4.6,0,9.2,0s4.6,0,9.2,0s4.6,0,9.2,0s4.6,0,9.2,0s4.6,0,9.2,0
							s4.6,0,9.2,0s4.6,0,9.2,0s4.6,0,9.2,0s4.6,0,9.2,0s4.6,0,9.2,0s4.6,0,9.2,0s4.6,0,9.2,0s4.6,0,9.2,0s4.6,0,9.2,0s4.6,0,9.2,0
							s4.6,0,9.2,0s4.6,0,9.2,0s4.6,0,9.2,0s4.6,0,9.2,0s4.6,0,9.2,0s4.6,0,9.2,0s4.6,0,9.2,0s4.6-19,9.2-19s4.6,0,9.2,0
							s4.6-19,9.2-19s4.6-19,9.2-19s4.6,0,9.2,0s4.6,0,9.2,0s4.6,0,9.2,0s4.6,0,9.2,0s4.6,0,9.2,0s4.6,0,9.2,0s4.6,0,9.2,0
							s4.6,0,9.2,0s4.6,0,9.2,0"/>
						<g>
							<circle class="st10" cx="0" cy="571.4" r="2.5"/>
							<circle class="st10" cx="9.2" cy="457.4" r="2.5"/>
							<circle class="st10" cx="18.5" cy="381.4" r="2.5"/>
							<circle class="st10" cx="27.8" cy="381.4" r="2.5"/>
							<circle class="st10" cx="37" cy="381.4" r="2.5"/>
							<circle class="st10" cx="46.2" cy="381.4" r="2.5"/>
							<circle class="st10" cx="55.5" cy="381.4" r="2.5"/>
							<circle class="st10" cx="64.8" cy="381.4" r="2.5"/>
							<circle class="st10" cx="74" cy="381.4" r="2.5"/>
							<circle class="st10" cx="83.2" cy="362.4" r="2.5"/>
							<circle class="st10" cx="92.5" cy="362.4" r="2.5"/>
							<circle class="st10" cx="101.8" cy="362.4" r="2.5"/>
							<circle class="st10" cx="111" cy="267.4" r="2.5"/>
							<circle class="st10" cx="120.2" cy="267.4" r="2.5"/>
							<circle class="st10" cx="129.5" cy="267.4" r="2.5"/>
							<circle class="st10" cx="138.8" cy="267.4" r="2.5"/>
							<circle class="st10" cx="148" cy="267.4" r="2.5"/>
							<circle class="st10" cx="157.2" cy="115.4" r="2.5"/>
							<circle class="st10" cx="166.5" cy="115.4" r="2.5"/>
							<circle class="st10" cx="175.8" cy="115.4" r="2.5"/>
							<circle class="st10" cx="185" cy="115.4" r="2.5"/>
							<circle class="st10" cx="194.2" cy="115.4" r="2.5"/>
							<circle class="st10" cx="203.5" cy="115.4" r="2.5"/>
							<circle class="st10" cx="212.8" cy="115.4" r="2.5"/>
							<circle class="st10" cx="222" cy="115.4" r="2.5"/>
							<circle class="st10" cx="231.2" cy="115.4" r="2.5"/>
							<circle class="st10" cx="240.5" cy="115.4" r="2.5"/>
							<circle class="st10" cx="249.8" cy="115.4" r="2.5"/>
							<circle class="st10" cx="259" cy="115.4" r="2.5"/>
							<circle class="st10" cx="268.2" cy="115.4" r="2.5"/>
							<circle class="st10" cx="277.5" cy="115.4" r="2.5"/>
							<circle class="st10" cx="286.8" cy="115.4" r="2.5"/>
							<circle class="st10" cx="296" cy="115.4" r="2.5"/>
							<circle class="st10" cx="305.2" cy="115.4" r="2.5"/>
							<circle class="st10" cx="314.5" cy="96.4" r="2.5"/>
							<circle class="st10" cx="323.8" cy="96.4" r="2.5"/>
							<circle class="st10" cx="333" cy="96.4" r="2.5"/>
							<circle class="st10" cx="342.2" cy="77.4" r="2.5"/>
							<circle class="st10" cx="351.5" cy="77.4" r="2.5"/>
							<circle class="st10" cx="360.8" cy="77.4" r="2.5"/>
							<circle class="st10" cx="370" cy="77.4" r="2.5"/>
							<circle class="st10" cx="379.2" cy="77.4" r="2.5"/>
							<circle class="st10" cx="388.5" cy="77.4" r="2.5"/>
							<circle class="st10" cx="397.8" cy="77.4" r="2.5"/>
							<circle class="st10" cx="407" cy="77.4" r="2.5"/>
							<circle class="st10" cx="416.2" cy="77.4" r="2.5"/>
							<circle class="st10" cx="425.5" cy="77.4" r="2.5"/>
							<circle class="st10" cx="434.8" cy="77.4" r="2.5"/>
							<circle class="st10" cx="444" cy="77.4" r="2.5"/>
							<circle class="st10" cx="453.2" cy="77.4" r="2.5"/>
							<circle class="st10" cx="462.5" cy="77.4" r="2.5"/>
							<circle class="st10" cx="471.8" cy="77.4" r="2.5"/>
							<circle class="st10" cx="481" cy="77.4" r="2.5"/>
							<circle class="st10" cx="490.2" cy="77.4" r="2.5"/>
							<circle class="st10" cx="499.5" cy="77.4" r="2.5"/>
							<circle class="st10" cx="508.8" cy="77.4" r="2.5"/>
							<circle class="st10" cx="518" cy="77.4" r="2.5"/>
							<circle class="st10" cx="527.2" cy="77.4" r="2.5"/>
							<circle class="st10" cx="536.5" cy="77.4" r="2.5"/>
							<circle class="st10" cx="545.8" cy="77.4" r="2.5"/>
							<circle class="st10" cx="555" cy="58.4" r="2.5"/>
							<circle class="st10" cx="564.2" cy="58.4" r="2.5"/>
							<circle class="st10" cx="573.5" cy="39.4" r="2.5"/>
							<circle class="st10" cx="582.8" cy="20.4" r="2.5"/>
							<circle class="st10" cx="592" cy="20.4" r="2.5"/>
							<circle class="st10" cx="601.2" cy="20.4" r="2.5"/>
							<circle class="st10" cx="610.5" cy="20.4" r="2.5"/>
							<circle class="st10" cx="619.8" cy="20.4" r="2.5"/>
							<circle class="st10" cx="629" cy="20.4" r="2.5"/>
							<circle class="st10" cx="638.2" cy="20.4" r="2.5"/>
							<circle class="st10" cx="647.5" cy="20.4" r="2.5"/>
							<circle class="st10" cx="656.8" cy="20.4" r="2.5"/>
							<circle class="st10" cx="666" cy="20.4" r="2.5"/>
						</g>
					</g>
				</g>
			</g>
		</g>
	</g>
	<g id="grid">
		<rect y="1.4" class="st11" width="805" height="600"/>
	</g>
</g>
<text transform="matrix(1 0 0 1 67.5655 469.3744)"><tspan x="0" y="0" class="st12 st7">Tripulación que viajaba en la parte </tspan><tspan x="0" y="14.4" class="st12 st7">delantera fallece en el impacto</tspan></text>
<text transform="matrix(1 0 0 1 69.382 408.8055)"><tspan x="0" y="0" class="st12 st7">Fallecen en la primera </tspan><tspan x="0" y="14.4" class="st12 st7">noche tras impacto</tspan></text>
<text transform="matrix(1 0 0 1 161.4098 373.1751)"><tspan x="0" y="0" class="st12 st7">Fallece Susana Parrado </tspan><tspan x="0" y="14.4" class="st12 st7">(hermana de uno de los rugbistas)</tspan></text>
<text transform="matrix(1 0 0 1 202.5422 282.9763)"><tspan x="0" y="0" class="st12 st7">Se encuentran nuevos cadáveres cuando un grupo </tspan><tspan x="0" y="14.4" class="st12 st7">realizó expediciones  </tspan></text>
<text transform="matrix(1 0 0 1 393.1331 107.2325)" class="st12 st7">Sucumben por el hambre y el frío</text>
<text transform="matrix(1 0 0 1 209.4523 143.6012)"><tspan x="0" y="0" class="st12 st7">Fallecen por avalancha que tapó</tspan><tspan x="0" y="14.4" class="st12 st7">casi por completo el fusilaje </tspan></text>
<text transform="matrix(1 0 0 1 632.2629 50.2059)"><tspan x="0" y="0" class="st12 st7">Hallado cadáver de Daniel Shaw</tspan><tspan x="0" y="14.4" class="st12 st7">tras expedición en busca de ayuda </tspan></text>
<text transform="matrix(1 0 0 1 640.3521 25.7584)" class="st12 st7">Hallado cadáver de Carlos Valeta</text>
<ellipse cx="58.8" cy="467.6" rx="6.7" ry="6.8"/>
<ellipse cx="67.3" cy="391.6" rx="6.7" ry="6.8"/>
<ellipse cx="160.8" cy="276.2" rx="6.7" ry="6.8"/>
<ellipse cx="131.8" cy="372.2" rx="6.7" ry="6.8"/>
<ellipse cx="207.2" cy="125.6" rx="6.7" ry="6.8"/>
<ellipse cx="364.2" cy="106.3" rx="6.7" ry="6.8"/>
<ellipse cx="390.1" cy="87.2" rx="6.7" ry="6.8"/>
<ellipse cx="603.8" cy="69.3" rx="6.7" ry="6.8"/>
<ellipse cx="622.4" cy="49.9" rx="6.7" ry="6.8"/>
<ellipse cx="632.3" cy="31" rx="6.7" ry="6.8"/>
<text transform="matrix(1 0 0 1 608.8997 84.445)" class="st12 st7">Numa Turcatti (estudiante rugbista)</text>
<g transform="translate(0.000000,1280.000000) scale(0.100000,-0.100000)">
	<path d="M6294.9,9794.9c-6.9-1.4-11.9-4.3-16.6-9.4c-9.6-10.6-11.1-27.7-3.5-40.2c8.4-13.8,25.1-18.4,38.5-10.5
		c11.8,6.9,17.8,21.9,14.5,36.1c-2.1,9-7.5,16.4-15.1,20.7c-2.8,1.6-5.2,2.4-9.3,3.2C6299.6,9795.7,6298.8,9795.7,6294.9,9794.9z"/>
	<path d="M6273.5,9721.8c-8-1.3-14.8-5-20.7-11.3c-4-4.3-7.4-9.4-9.1-14c-1.4-3.6-27.4-97.5-27.8-100.2c-0.9-6.5,1.6-12.1,6.6-14.8
		c2.1-1.2,2.3-1.2,5.3-1.2c2.9,0,3.3,0.1,4.9,0.9c2.3,1.2,4.9,4.1,6,6.7c0.5,1.1,6.1,21.2,12.5,44.7c6.4,23.5,11.7,43,11.9,43.4
		c0.3,0.7,0.4,0.7,3.4,0.7c3,0,3.1,0,3.1-0.7c0-0.4-3.9-15.5-8.7-33.6c-4.8-18.1-13.7-51.6-19.7-74.6c-6.1-22.9-11.1-42.1-11.2-42.5
		l-0.1-0.9h18.4c13.9,0,18.4-0.1,18.7-0.4c0.3-0.3,0.3-13.4,0.3-57c0-40.1,0.1-57,0.3-58.2c0.8-4.1,3.3-7.8,6.5-9.6
		c1.9-1,5.5-2.2,6.8-2.2c1.3,0,5,1.2,6.8,2.1c1.9,1,4.4,3.8,5.4,5.8c1.5,3.4,1.5,0.3,1.5,62c0,31.5,0.1,57.5,0.2,57.7
		c0.2,0.3,1.3,0.4,4.4,0.3l4.1-0.1l0.1-57.9c0.1-46.9,0.2-58.1,0.5-59.1c1.1-3.7,3.6-7.1,6.5-8.7c1.7-0.9,5.4-2.1,6.8-2.1
		s5.1,1.2,6.8,2.1c1.9,1,4.2,3.5,5.1,5.3c1.7,3.5,1.6-0.1,1.6,62.2c0,43.9,0.1,57.1,0.3,57.4s4.8,0.4,18.8,0.4
		c17.5,0,18.5,0,18.3,0.6c-0.1,0.3-1.9,7-4,15c-3.6,13.4-14,52.6-29.7,111.6c-3.5,13.2-6.4,24.2-6.4,24.5c0,0.4,0.5,0.5,3.4,0.5
		c2.9,0,3.4-0.1,3.7-0.5c0.1-0.3,1.1-3.7,2.2-7.6c11.8-43.3,20.5-75.4,21.3-77.7c1.9-6.2,5.2-9.7,10.1-10.7
		c6-1.2,12.2,3.7,13.5,10.6c0.7,3.7,0.4,6.2-2.1,14.8c-0.9,3.1-6.7,24-13,46.5c-6.2,22.5-11.7,41.7-12,42.6
		c-3.3,9.2-11.4,18.7-19.6,23.2c-2.8,1.5-4.6,2.2-7.9,3.2l-2.9,0.8l-24.9,0.1C6286.3,9722,6274.4,9721.9,6273.5,9721.8z"/>
</g>
<g transform="translate(0.000000,1280.000000) scale(0.100000,-0.100000)">
	<path d="M7185.2,9803.2c-6.3-1.2-11.8-4.2-16.2-8.8c-12.8-13.2-13.2-35.4-0.8-49c4.1-4.5,8.8-7.4,14.9-9.3c3-0.9,11.5-0.8,14.8,0.2
		c10.5,3.1,18.5,11.3,21.9,22.2c3.1,10.1,1.7,21.4-3.7,30.2c-3,4.8-8,9.5-12.6,11.8C7197.7,9803.4,7190.9,9804.4,7185.2,9803.2z"/>
	<path d="M7154,9728.5c-14.3-1.7-26-10.5-32.4-24.6c-1-2.3-2.7-7.5-3.3-10.7c-0.5-2.6-0.6-5.3-0.6-59.7c0-54.1,0-57,0.5-58.6
		c1.8-5.7,6.3-9.3,12-9.9c7.2-0.7,13.5,4.6,14.7,12.3c0.2,1.4,0.3,18.1,0.3,49.9v47.8h2.8h2.8l0.1-131.8
		c0.1-126.3,0.1-131.9,0.6-133.7c1.8-6.5,5.7-11,11.5-13.2c2-0.7,2.7-0.9,5.9-0.9c2.7,0,4.1,0.1,5.4,0.6c6,2,10.4,6.5,12.3,12.8
		l0.8,2.6l0.1,77.3l0.1,77.3h2.8h2.8v-76.8c0-84.4-0.1-78.6,1.8-82.9c2-4.5,5.9-8.2,10.5-9.9c2.1-0.7,2.9-0.9,6-0.9
		c2.7,0,4.1,0.1,5.4,0.6c5.9,1.9,10.1,6.3,12,12.4l0.8,2.6l0.1,132l0.1,132h2.8h2.8v-48.4c0-53.6-0.1-50.9,1.9-54.6
		c1.4-2.5,3.3-4.5,5.9-5.8c3.6-1.9,8.4-1.8,12.1,0.1c2.2,1.1,4.5,3.5,5.6,5.8c1.9,4,1.8,0.1,1.8,60.4c0,59.6,0.1,57.3-1.6,63.6
		c-3.8,14.2-13.5,25.5-25.8,30c-6.4,2.3-4.4,2.2-44.3,2.3C7171.2,9728.6,7154.6,9728.6,7154,9728.5z"/>
</g>
<g transform="translate(0.000000,1280.000000) scale(0.100000,-0.100000)">
	<path d="M6477.7,9793.5c-6.9-1.4-11.9-4.3-16.6-9.4c-9.6-10.6-11.1-27.7-3.5-40.2c8.4-13.8,25.1-18.4,38.5-10.5
		c11.8,6.9,17.8,21.9,14.5,36.1c-2.1,9-7.5,16.4-15.1,20.7c-2.8,1.6-5.2,2.4-9.3,3.2C6482.3,9794.2,6481.5,9794.2,6477.7,9793.5z"/>
	<path d="M6456.2,9720.3c-8-1.3-14.8-5-20.7-11.3c-4-4.3-7.4-9.4-9.1-14c-1.4-3.6-27.4-97.5-27.8-100.2c-0.9-6.5,1.6-12.1,6.6-14.8
		c2.1-1.2,2.3-1.2,5.3-1.2c2.9,0,3.3,0.1,4.9,0.9c2.3,1.2,4.9,4.1,6,6.7c0.5,1.1,6.1,21.2,12.5,44.7c6.4,23.5,11.7,43,11.9,43.4
		c0.3,0.7,0.4,0.7,3.4,0.7c3,0,3.1,0,3.1-0.7c0-0.4-3.9-15.5-8.7-33.6c-4.8-18.1-13.7-51.6-19.7-74.6c-6.1-22.9-11.1-42.1-11.2-42.5
		l-0.1-0.9h18.4c13.9,0,18.4-0.1,18.7-0.4c0.3-0.3,0.3-13.4,0.3-57c0-40.1,0.1-57,0.3-58.2c0.8-4.1,3.3-7.8,6.5-9.6
		c1.9-1,5.5-2.2,6.8-2.2c1.3,0,5,1.2,6.8,2.1c1.9,1,4.4,3.8,5.4,5.8c1.5,3.4,1.5,0.3,1.5,62c0,31.5,0.1,57.5,0.2,57.7
		c0.2,0.3,1.3,0.4,4.4,0.3l4.1-0.1l0.1-57.9c0.1-46.9,0.2-58.1,0.5-59.1c1.1-3.7,3.6-7.1,6.5-8.7c1.7-0.9,5.4-2.1,6.8-2.1
		s5.1,1.2,6.8,2.1c1.9,1,4.2,3.5,5.1,5.3c1.7,3.5,1.6-0.1,1.6,62.2c0,43.9,0.1,57.1,0.3,57.4c0.3,0.3,4.8,0.4,18.8,0.4
		c17.5,0,18.5,0,18.3,0.6c-0.1,0.3-1.9,7-4,15c-3.6,13.4-14,52.6-29.7,111.6c-3.5,13.2-6.4,24.2-6.4,24.5c0,0.4,0.5,0.5,3.4,0.5
		c2.9,0,3.4-0.1,3.7-0.5c0.1-0.3,1.1-3.7,2.2-7.6c11.8-43.3,20.5-75.4,21.3-77.7c1.9-6.2,5.2-9.7,10.1-10.7
		c6-1.2,12.2,3.7,13.5,10.6c0.7,3.7,0.4,6.2-2.1,14.8c-0.9,3.1-6.7,24-13,46.5c-6.2,22.5-11.7,41.7-12,42.6
		c-3.3,9.2-11.4,18.7-19.6,23.2c-2.8,1.5-4.6,2.2-7.9,3.2l-2.8,0.8l-24.9,0.1C6469,9720.6,6457.1,9720.5,6456.2,9720.3z"/>
</g>
<rect x="608.4" y="291" class="st13" width="182.4" height="257.3"/>
<g transform="translate(0.000000,1280.000000) scale(0.100000,-0.100000)">
	<path d="M6655.4,9788.3c-6.9-1.4-11.9-4.3-16.6-9.4c-9.6-10.6-11.1-27.7-3.5-40.2c8.4-13.8,25.1-18.4,38.5-10.5
		c11.8,6.9,17.8,21.9,14.5,36.1c-2.1,9-7.5,16.4-15.1,20.7c-2.8,1.6-5.2,2.4-9.3,3.2C6660,9789.1,6659.2,9789.1,6655.4,9788.3z"/>
	<path d="M6633.9,9715.2c-8-1.3-14.8-5-20.7-11.3c-4-4.3-7.4-9.4-9.1-14c-1.4-3.6-27.4-97.5-27.8-100.2c-0.9-6.5,1.6-12.1,6.6-14.8
		c2.1-1.2,2.3-1.2,5.3-1.2c2.9,0,3.3,0.1,4.9,0.9c2.3,1.2,4.9,4.1,6,6.7c0.5,1.1,6.1,21.2,12.5,44.7c6.4,23.5,11.7,43,11.9,43.4
		c0.3,0.7,0.4,0.7,3.4,0.7c3,0,3.1,0,3.1-0.7c0-0.4-3.9-15.5-8.7-33.6c-4.8-18.1-13.7-51.6-19.7-74.6c-6.1-22.9-11.1-42.1-11.2-42.5
		l-0.1-0.9h18.4c13.9,0,18.4-0.1,18.7-0.4c0.3-0.3,0.3-13.4,0.3-57c0-40.1,0.1-57,0.3-58.2c0.8-4.1,3.3-7.8,6.5-9.6
		c1.9-1,5.5-2.2,6.8-2.2c1.3,0,5,1.2,6.8,2.1c1.9,1,4.4,3.8,5.4,5.8c1.5,3.4,1.5,0.3,1.5,62c0,31.5,0.1,57.5,0.2,57.7
		c0.2,0.3,1.3,0.4,4.4,0.3l4.1-0.1l0.1-57.9c0.1-46.9,0.2-58.1,0.5-59.1c1.1-3.7,3.6-7.1,6.5-8.7c1.7-0.9,5.4-2.1,6.8-2.1
		c1.4,0,5.1,1.2,6.8,2.1c1.9,1,4.2,3.5,5.1,5.3c1.7,3.5,1.6-0.1,1.6,62.2c0,43.9,0.1,57.1,0.3,57.4c0.3,0.3,4.8,0.4,18.8,0.4
		c17.5,0,18.5,0,18.3,0.6c-0.1,0.3-1.9,7-4,15c-3.6,13.4-14,52.6-29.7,111.6c-3.5,13.2-6.4,24.2-6.4,24.5c0,0.4,0.5,0.5,3.4,0.5
		c2.9,0,3.4-0.1,3.7-0.5c0.1-0.3,1.1-3.7,2.2-7.6c11.8-43.3,20.5-75.4,21.3-77.7c1.9-6.2,5.2-9.7,10.1-10.7
		c6-1.2,12.2,3.7,13.5,10.6c0.7,3.7,0.4,6.2-2.1,14.8c-0.9,3.1-6.7,24-13,46.5c-6.2,22.5-11.7,41.7-12,42.6
		c-3.3,9.2-11.4,18.7-19.6,23.2c-2.8,1.5-4.6,2.2-7.9,3.2l-2.9,0.8l-24.9,0.1C6646.8,9715.4,6634.8,9715.3,6633.9,9715.2z"/>
</g>
<g transform="translate(0.000000,1280.000000) scale(0.100000,-0.100000)">
	<path d="M6824.5,9791.5c-6.9-1.4-11.9-4.3-16.6-9.4c-9.6-10.6-11.1-27.7-3.5-40.2c8.4-13.8,25.1-18.4,38.5-10.5
		c11.8,6.9,17.8,21.9,14.5,36.1c-2.1,9-7.5,16.4-15.1,20.7c-2.8,1.6-5.2,2.4-9.3,3.2C6829.2,9792.3,6828.4,9792.3,6824.5,9791.5z"/>
	<path d="M6803.1,9718.4c-8-1.3-14.8-5-20.7-11.3c-4-4.3-7.4-9.4-9.1-14c-1.4-3.6-27.4-97.5-27.8-100.2c-0.9-6.5,1.6-12.1,6.6-14.8
		c2.1-1.2,2.3-1.2,5.3-1.2c2.9,0,3.3,0.1,4.9,0.9c2.3,1.2,4.9,4.1,6,6.7c0.5,1.1,6.1,21.2,12.5,44.7c6.4,23.5,11.7,43,11.9,43.4
		c0.3,0.7,0.4,0.7,3.4,0.7c3,0,3.1,0,3.1-0.7c0-0.4-3.9-15.5-8.7-33.6c-4.8-18.1-13.7-51.6-19.7-74.6c-6.1-22.9-11.1-42.1-11.2-42.5
		l-0.1-0.9h18.4c13.9,0,18.4-0.1,18.7-0.4c0.3-0.3,0.3-13.4,0.3-57c0-40.1,0.1-57,0.3-58.2c0.8-4.1,3.3-7.8,6.5-9.6
		c1.9-1,5.5-2.2,6.8-2.2c1.3,0,5,1.2,6.8,2.1c1.9,1,4.4,3.8,5.4,5.8c1.5,3.4,1.5,0.3,1.5,62c0,31.5,0.1,57.5,0.2,57.7
		c0.2,0.3,1.3,0.4,4.4,0.3l4.1-0.1l0.1-57.9c0.1-46.9,0.2-58.1,0.5-59.1c1.1-3.7,3.6-7.1,6.5-8.7c1.7-0.9,5.4-2.1,6.8-2.1
		c1.4,0,5.1,1.2,6.8,2.1c1.9,1,4.2,3.5,5.1,5.3c1.7,3.5,1.6-0.1,1.6,62.2c0,43.9,0.1,57.1,0.3,57.4s4.8,0.4,18.8,0.4
		c17.5,0,18.5,0,18.3,0.6c-0.1,0.3-1.9,7-4,15c-3.6,13.4-14,52.6-29.7,111.6c-3.5,13.2-6.4,24.2-6.4,24.5c0,0.4,0.5,0.5,3.4,0.5
		c2.9,0,3.4-0.1,3.7-0.5c0.1-0.3,1.1-3.7,2.2-7.6c11.8-43.3,20.5-75.4,21.3-77.7c1.9-6.2,5.2-9.7,10.1-10.7
		c6-1.2,12.2,3.7,13.5,10.6c0.7,3.7,0.4,6.2-2.1,14.8c-0.9,3.1-6.7,24-13,46.5c-6.2,22.5-11.7,41.7-12,42.6
		c-3.3,9.2-11.4,18.7-19.6,23.2c-2.8,1.5-4.6,2.2-7.9,3.2l-2.9,0.8l-24.9,0.1C6815.9,9718.6,6804,9718.5,6803.1,9718.4z"/>
</g>
<g transform="translate(0.000000,1280.000000) scale(0.100000,-0.100000)">
	<path d="M7003.3,9791.5c-6.9-1.4-11.9-4.3-16.6-9.4c-9.6-10.6-11.1-27.7-3.5-40.2c8.4-13.8,25.1-18.4,38.5-10.5
		c11.8,6.9,17.8,21.9,14.5,36.1c-2.1,9-7.5,16.4-15.1,20.7c-2.8,1.6-5.2,2.4-9.3,3.2C7008,9792.3,7007.1,9792.3,7003.3,9791.5z"/>
	<path d="M6981.9,9718.4c-8-1.3-14.8-5-20.7-11.3c-4-4.3-7.4-9.4-9.1-14c-1.4-3.6-27.4-97.5-27.8-100.2c-0.9-6.5,1.6-12.1,6.6-14.8
		c2.1-1.2,2.3-1.2,5.3-1.2c2.9,0,3.3,0.1,4.9,0.9c2.3,1.2,4.9,4.1,6,6.7c0.5,1.1,6.1,21.2,12.5,44.7c6.4,23.5,11.7,43,11.9,43.4
		c0.3,0.7,0.4,0.7,3.4,0.7c3,0,3.1,0,3.1-0.7c0-0.4-3.9-15.5-8.7-33.6c-4.8-18.1-13.7-51.6-19.7-74.6c-6.1-22.9-11.1-42.1-11.2-42.5
		l-0.1-0.9h18.4c13.9,0,18.4-0.1,18.7-0.4s0.3-13.4,0.3-57c0-40.1,0.1-57,0.3-58.2c0.8-4.1,3.3-7.8,6.5-9.6c1.9-1,5.5-2.2,6.8-2.2
		c1.3,0,5,1.2,6.8,2.1c1.9,1,4.4,3.8,5.4,5.8c1.5,3.4,1.5,0.3,1.5,62c0,31.5,0.1,57.5,0.2,57.7c0.2,0.3,1.3,0.4,4.4,0.3l4.1-0.1
		l0.1-57.9c0.1-46.9,0.2-58.1,0.5-59.1c1.1-3.7,3.6-7.1,6.5-8.7c1.7-0.9,5.4-2.1,6.8-2.1c1.4,0,5.1,1.2,6.8,2.1
		c1.9,1,4.2,3.5,5.1,5.3c1.7,3.5,1.6-0.1,1.6,62.2c0,43.9,0.1,57.1,0.3,57.4c0.3,0.3,4.8,0.4,18.8,0.4c17.5,0,18.5,0,18.3,0.6
		c-0.1,0.3-1.9,7-4,15c-3.6,13.4-14,52.6-29.7,111.6c-3.5,13.2-6.4,24.2-6.4,24.5c0,0.4,0.5,0.5,3.4,0.5c2.9,0,3.4-0.1,3.7-0.5
		c0.1-0.3,1.1-3.7,2.2-7.6c11.8-43.3,20.5-75.4,21.3-77.7c1.9-6.2,5.2-9.7,10.1-10.7c6-1.2,12.2,3.7,13.5,10.6
		c0.7,3.7,0.4,6.2-2.1,14.8c-0.9,3.1-6.7,24-13,46.5c-6.2,22.5-11.7,41.7-12,42.6c-3.3,9.2-11.4,18.7-19.6,23.2
		c-2.8,1.5-4.6,2.2-7.9,3.2l-2.9,0.8l-24.9,0.1C6994.7,9718.6,6982.7,9718.5,6981.9,9718.4z"/>
</g>
<g transform="translate(0.000000,1280.000000) scale(0.100000,-0.100000)">
	<path d="M7350.3,9799.5c-6.3-1.2-11.8-4.2-16.2-8.8c-12.8-13.2-13.2-35.4-0.8-49c4.1-4.5,8.8-7.4,14.9-9.3c3-0.9,11.5-0.8,14.8,0.2
		c10.5,3.1,18.5,11.3,21.9,22.2c3.1,10.1,1.7,21.4-3.7,30.2c-3,4.8-8,9.5-12.6,11.8C7362.8,9799.6,7356,9800.6,7350.3,9799.5z"/>
	<path d="M7319.1,9724.8c-14.3-1.7-26-10.5-32.4-24.6c-1-2.3-2.7-7.5-3.3-10.7c-0.5-2.6-0.6-5.3-0.6-59.7c0-54.1,0-57,0.5-58.6
		c1.8-5.7,6.3-9.3,12-9.9c7.2-0.7,13.5,4.6,14.7,12.3c0.2,1.4,0.3,18.1,0.3,49.9v47.8h2.8h2.8l0.1-131.8
		c0.1-126.3,0.1-131.9,0.6-133.7c1.8-6.5,5.7-11,11.5-13.2c2-0.7,2.7-0.9,5.9-0.9c2.7,0,4.1,0.1,5.4,0.6c6,2,10.4,6.5,12.3,12.8
		l0.8,2.6l0.1,77.3l0.1,77.3h2.8h2.8v-76.8c0-84.4-0.1-78.6,1.8-82.9c2-4.5,5.9-8.2,10.5-9.9c2.1-0.7,2.9-0.9,6-0.9
		c2.7,0,4.1,0.1,5.4,0.6c5.9,1.9,10.1,6.3,12,12.4l0.8,2.6l0.1,132l0.1,132h2.8h2.8V9623c0-53.6-0.1-50.8,1.9-54.6
		c1.4-2.5,3.3-4.5,5.9-5.8c3.6-1.9,8.4-1.8,12.1,0.1c2.2,1.1,4.5,3.5,5.6,5.8c1.9,4,1.8,0.1,1.8,60.4c0,59.6,0.1,57.3-1.6,63.6
		c-3.8,14.2-13.5,25.5-25.8,30c-6.4,2.3-4.4,2.2-44.3,2.3C7336.2,9724.9,7319.6,9724.9,7319.1,9724.8z"/>
</g>
<g transform="translate(0.000000,1280.000000) scale(0.100000,-0.100000)">
	<path d="M7519.9,9796.7c-6.3-1.2-11.8-4.2-16.2-8.8c-12.8-13.2-13.2-35.4-0.8-49c4.1-4.5,8.8-7.4,14.9-9.3c3-0.9,11.5-0.8,14.8,0.2
		c10.5,3.1,18.5,11.3,21.9,22.2c3.1,10.1,1.7,21.4-3.7,30.2c-3,4.8-8,9.5-12.6,11.8C7532.4,9796.8,7525.6,9797.8,7519.9,9796.7z"/>
	<path d="M7488.7,9722c-14.3-1.7-26-10.5-32.4-24.6c-1-2.3-2.7-7.5-3.3-10.7c-0.5-2.6-0.6-5.3-0.6-59.7c0-54.1,0-57,0.5-58.6
		c1.8-5.7,6.3-9.3,12-9.9c7.2-0.7,13.5,4.6,14.7,12.3c0.2,1.4,0.3,18.1,0.3,49.9v47.8h2.8h2.8l0.1-131.8
		c0.1-126.3,0.1-131.9,0.6-133.7c1.8-6.5,5.7-11,11.5-13.2c2-0.7,2.7-0.9,5.9-0.9c2.7,0,4.1,0.1,5.4,0.6c6,2,10.4,6.5,12.3,12.8
		l0.8,2.6l0.1,77.3l0.1,77.3h2.8h2.8v-76.8c0-84.4-0.1-78.6,1.8-82.9c2-4.5,5.9-8.2,10.5-9.9c2.1-0.7,2.9-0.9,6-0.9
		c2.7,0,4.1,0.1,5.4,0.6c5.9,1.9,10.1,6.3,12,12.4l0.8,2.6l0.1,132l0.1,132h2.8h2.8v-48.4c0-53.6-0.1-50.8,1.9-54.6
		c1.4-2.5,3.3-4.5,5.9-5.8c3.6-1.8,8.4-1.8,12.1,0.1c2.2,1.1,4.5,3.5,5.6,5.8c1.9,4,1.8,0.1,1.8,60.4c0,59.6,0.1,57.3-1.6,63.6
		c-3.8,14.2-13.5,25.5-25.8,30c-6.4,2.3-4.4,2.2-44.3,2.3C7505.8,9722.1,7489.2,9722.1,7488.7,9722z"/>
</g>
<g transform="translate(0.000000,1280.000000) scale(0.100000,-0.100000)">
	<path d="M7685.4,9799.5c-6.3-1.2-11.8-4.2-16.2-8.8c-12.8-13.2-13.2-35.4-0.8-49c4.1-4.5,8.8-7.4,14.9-9.3c3-0.9,11.5-0.8,14.8,0.2
		c10.5,3.1,18.5,11.3,21.9,22.2c3.1,10.1,1.7,21.4-3.7,30.2c-3,4.8-8,9.5-12.6,11.8C7697.9,9799.6,7691.2,9800.6,7685.4,9799.5z"/>
	<path d="M7654.2,9724.8c-14.3-1.7-26-10.5-32.4-24.6c-1-2.3-2.7-7.5-3.3-10.7c-0.5-2.6-0.6-5.3-0.6-59.7c0-54.1,0-57,0.5-58.6
		c1.8-5.7,6.3-9.3,12-9.9c7.2-0.7,13.5,4.6,14.7,12.3c0.2,1.4,0.3,18.1,0.3,49.9v47.8h2.8h2.8l0.1-131.8
		c0.1-126.3,0.1-131.9,0.6-133.7c1.8-6.5,5.7-11,11.5-13.2c2-0.7,2.7-0.9,5.9-0.9c2.7,0,4.1,0.1,5.4,0.6c6,2,10.4,6.5,12.3,12.8
		l0.8,2.6l0.1,77.3l0.1,77.3h2.8h2.8v-76.8c0-84.4-0.1-78.6,1.8-82.9c2-4.5,5.9-8.2,10.5-9.9c2.1-0.7,2.9-0.9,6-0.9
		c2.7,0,4.1,0.1,5.4,0.6c5.9,1.9,10.1,6.3,12,12.4l0.8,2.6l0.1,132l0.1,132h2.8h2.8V9623c0-53.6-0.1-50.8,1.9-54.6
		c1.4-2.5,3.3-4.5,5.9-5.8c3.6-1.9,8.4-1.8,12.1,0.1c2.2,1.1,4.5,3.5,5.6,5.8c1.9,4,1.8,0.1,1.8,60.4c0,59.6,0.1,57.3-1.6,63.6
		c-3.8,14.2-13.5,25.5-25.8,30c-6.4,2.3-4.4,2.2-44.3,2.3C7671.4,9724.9,7654.8,9724.9,7654.2,9724.8z"/>
</g>
<g transform="translate(0.000000,1280.000000) scale(0.100000,-0.100000)">
	<path d="M6302.8,9317.1c-6.3-1.2-11.8-4.2-16.2-8.8c-12.8-13.2-13.2-35.4-0.8-49c4.1-4.5,8.8-7.4,14.9-9.3c3-0.9,11.5-0.8,14.8,0.2
		c10.5,3.1,18.5,11.3,21.9,22.2c3.1,10.1,1.7,21.4-3.7,30.2c-3,4.8-8,9.5-12.6,11.8C6315.3,9317.3,6308.5,9318.3,6302.8,9317.1z"/>
	<path d="M6271.6,9242.5c-14.3-1.7-26-10.5-32.4-24.6c-1-2.3-2.7-7.5-3.3-10.7c-0.5-2.6-0.6-5.3-0.6-59.7c0-54.1,0-57,0.5-58.6
		c1.8-5.7,6.3-9.3,12-9.9c7.2-0.7,13.5,4.6,14.7,12.3c0.2,1.4,0.3,18.1,0.3,49.9v47.8h2.8h2.8l0.1-131.8
		c0.1-126.3,0.1-131.9,0.6-133.7c1.8-6.5,5.7-11,11.5-13.2c2-0.7,2.7-0.9,5.9-0.9c2.7,0,4.1,0.1,5.4,0.6c6,2,10.4,6.5,12.3,12.8
		l0.8,2.6l0.1,77.3l0.1,77.3h2.8h2.8v-76.8c0-84.4-0.1-78.6,1.8-82.9c2-4.5,5.9-8.2,10.5-9.9c2.1-0.7,2.9-0.9,6-0.9
		c2.7,0,4.1,0.1,5.4,0.6c5.9,1.9,10.1,6.3,12,12.4l0.8,2.6l0.1,132l0.1,132h2.8h2.8v-48.4c0-53.6-0.1-50.8,1.9-54.6
		c1.4-2.5,3.3-4.5,5.9-5.8c3.6-1.8,8.4-1.8,12.1,0.1c2.2,1.1,4.5,3.5,5.6,5.8c1.9,4,1.8,0.1,1.8,60.4c0,59.6,0.1,57.3-1.6,63.6
		c-3.8,14.2-13.5,25.5-25.8,30c-6.4,2.3-4.4,2.2-44.3,2.3C6288.8,9242.6,6272.2,9242.5,6271.6,9242.5z"/>
</g>
<g transform="translate(0.000000,1280.000000) scale(0.100000,-0.100000)">
	<path d="M6472.5,9311.5c-6.3-1.2-11.8-4.2-16.2-8.8c-12.8-13.2-13.2-35.4-0.8-49c4.1-4.5,8.8-7.4,14.9-9.3c3-0.9,11.5-0.8,14.8,0.2
		c10.5,3.1,18.5,11.3,21.9,22.2c3.1,10.1,1.7,21.4-3.7,30.2c-3,4.8-8,9.5-12.6,11.8C6485,9311.6,6478.2,9312.6,6472.5,9311.5z"/>
	<path d="M6441.3,9236.8c-14.3-1.7-26-10.5-32.4-24.6c-1-2.3-2.7-7.5-3.3-10.7c-0.5-2.6-0.6-5.3-0.6-59.7c0-54.1,0-57,0.5-58.6
		c1.8-5.7,6.3-9.3,12-9.9c7.2-0.7,13.5,4.6,14.7,12.3c0.2,1.4,0.3,18.1,0.3,49.9v47.8h2.8h2.8l0.1-131.8
		c0.1-126.3,0.1-131.9,0.6-133.7c1.8-6.5,5.7-11,11.5-13.2c2-0.7,2.7-0.9,5.9-0.9c2.7,0,4.1,0.1,5.4,0.6c6,2,10.4,6.5,12.3,12.8
		l0.8,2.6l0.1,77.3l0.1,77.3h2.8h2.8v-76.8c0-84.4-0.1-78.6,1.8-82.9c2-4.5,5.9-8.2,10.5-9.9c2.1-0.7,2.9-0.9,6-0.9
		c2.7,0,4.1,0.1,5.4,0.6c5.9,1.9,10.1,6.3,12,12.4l0.8,2.6l0.1,132l0.1,132h2.8h2.8v-48.4c0-53.6-0.1-50.8,1.9-54.6
		c1.4-2.5,3.3-4.5,5.9-5.8c3.6-1.9,8.4-1.8,12.1,0.1c2.2,1.1,4.5,3.5,5.6,5.8c1.9,4,1.8,0.1,1.8,60.4c0,59.6,0.1,57.3-1.6,63.6
		c-3.8,14.2-13.5,25.5-25.8,30c-6.4,2.3-4.4,2.2-44.3,2.3C6458.5,9236.9,6441.9,9236.9,6441.3,9236.8z"/>
</g>
<g transform="translate(0.000000,1280.000000) scale(0.100000,-0.100000)">
	<path d="M6650.1,9308.6c-6.3-1.2-11.8-4.2-16.2-8.8c-12.8-13.2-13.2-35.4-0.8-49c4.1-4.5,8.8-7.4,14.9-9.3c3-0.9,11.5-0.8,14.8,0.2
		c10.5,3.1,18.5,11.3,21.9,22.2c3.1,10.1,1.7,21.4-3.7,30.2c-3,4.8-8,9.5-12.6,11.8C6662.6,9308.7,6655.8,9309.7,6650.1,9308.6z"/>
	<path d="M6618.9,9233.9c-14.3-1.7-26-10.5-32.4-24.6c-1-2.3-2.7-7.5-3.3-10.7c-0.5-2.6-0.6-5.3-0.6-59.7c0-54.1,0-57,0.5-58.6
		c1.8-5.7,6.3-9.3,12-9.9c7.2-0.7,13.5,4.6,14.7,12.3c0.2,1.4,0.3,18.1,0.3,49.9v47.8h2.8h2.8l0.1-131.8
		c0.1-126.3,0.1-131.9,0.6-133.7c1.8-6.5,5.7-11,11.5-13.2c2-0.7,2.7-0.9,5.9-0.9c2.7,0,4.1,0.1,5.4,0.6c6,2,10.4,6.5,12.3,12.8
		l0.8,2.6l0.1,77.3l0.1,77.3h2.8h2.8v-76.8c0-84.4-0.1-78.6,1.8-82.9c2-4.5,5.9-8.2,10.5-9.9c2.1-0.7,2.9-0.9,6-0.9
		c2.7,0,4.1,0.1,5.4,0.6c5.9,1.9,10.1,6.3,12,12.4l0.8,2.6l0.1,132l0.1,132h2.8h2.8v-48.4c0-53.6-0.1-50.8,1.9-54.6
		c1.4-2.5,3.3-4.5,5.9-5.8c3.6-1.8,8.4-1.8,12.1,0.1c2.2,1.1,4.5,3.5,5.6,5.8c1.9,4,1.8,0.1,1.8,60.4c0,59.6,0.1,57.3-1.6,63.6
		c-3.8,14.2-13.5,25.5-25.8,30c-6.4,2.3-4.4,2.2-44.3,2.3C6636.1,9234,6619.5,9234,6618.9,9233.9z"/>
</g>
<g transform="translate(0.000000,1280.000000) scale(0.100000,-0.100000)">
	<path d="M6822,9311.3c-6.3-1.2-11.8-4.2-16.2-8.8c-12.8-13.2-13.2-35.4-0.8-49c4.1-4.5,8.8-7.4,14.9-9.3c3-0.9,11.5-0.8,14.8,0.2
		c10.5,3.1,18.5,11.3,21.9,22.2c3.1,10.1,1.7,21.4-3.7,30.2c-3,4.8-8,9.5-12.6,11.8C6834.5,9311.5,6827.7,9312.5,6822,9311.3z"/>
	<path d="M6790.8,9236.7c-14.3-1.7-26-10.5-32.4-24.6c-1-2.3-2.7-7.5-3.3-10.7c-0.5-2.6-0.6-5.3-0.6-59.7c0-54.1,0-57,0.5-58.6
		c1.8-5.7,6.3-9.3,12-9.9c7.2-0.7,13.5,4.6,14.7,12.3c0.2,1.4,0.3,18.1,0.3,49.9v47.8h2.8h2.8l0.1-131.8
		c0.1-126.3,0.1-131.9,0.6-133.7c1.8-6.5,5.7-11,11.5-13.2c2-0.7,2.7-0.9,5.9-0.9c2.7,0,4.1,0.1,5.4,0.6c6,2,10.4,6.5,12.3,12.8
		l0.8,2.6l0.1,77.3l0.1,77.3h2.8h2.8v-76.8c0-84.4-0.1-78.6,1.8-82.9c2-4.5,5.9-8.2,10.5-9.9c2.1-0.7,2.9-0.9,6-0.9
		c2.7,0,4.1,0.1,5.4,0.6c5.9,1.9,10.1,6.3,12,12.4l0.8,2.6l0.1,132l0.1,132h2.8h2.8v-48.4c0-53.6-0.1-50.8,1.9-54.6
		c1.4-2.5,3.3-4.5,5.9-5.8c3.6-1.8,8.4-1.8,12.1,0.1c2.2,1.1,4.5,3.5,5.6,5.8c1.9,4,1.8,0.1,1.8,60.4c0,59.6,0.1,57.3-1.6,63.6
		c-3.8,14.2-13.5,25.5-25.8,30c-6.4,2.3-4.4,2.2-44.3,2.3C6808,9236.7,6791.4,9236.7,6790.8,9236.7z"/>
</g>
<g transform="translate(0.000000,1280.000000) scale(0.100000,-0.100000)">
	<path d="M7000.3,9311.7c-6.3-1.2-11.8-4.2-16.2-8.8c-12.8-13.2-13.2-35.4-0.8-49c4.1-4.5,8.8-7.4,14.9-9.3c3-0.9,11.5-0.8,14.8,0.2
		c10.5,3.1,18.5,11.3,21.9,22.2c3.1,10.1,1.7,21.4-3.7,30.2c-3,4.8-8,9.5-12.6,11.8C7012.8,9311.8,7006,9312.8,7000.3,9311.7z"/>
	<path d="M6969.1,9237c-14.3-1.7-26-10.5-32.4-24.6c-1-2.3-2.7-7.5-3.3-10.7c-0.5-2.6-0.6-5.3-0.6-59.7c0-54.1,0-57,0.5-58.6
		c1.8-5.7,6.3-9.3,12-9.9c7.2-0.7,13.5,4.6,14.7,12.3c0.2,1.4,0.3,18.1,0.3,49.9v47.8h2.8h2.8l0.1-131.8
		c0.1-126.3,0.1-131.9,0.6-133.7c1.8-6.5,5.7-11,11.5-13.2c2-0.7,2.7-0.9,5.9-0.9c2.7,0,4.1,0.1,5.4,0.6c6,2,10.4,6.5,12.3,12.8
		l0.8,2.6l0.1,77.3l0.1,77.3h2.8h2.8v-76.8c0-84.4-0.1-78.6,1.8-82.9c2-4.5,5.9-8.2,10.5-9.9c2.1-0.7,2.9-0.9,6-0.9
		c2.7,0,4.1,0.1,5.4,0.6c5.9,1.9,10.1,6.3,12,12.4l0.8,2.6l0.1,132l0.1,132h2.8h2.8v-48.4c0-53.6-0.1-50.8,1.9-54.6
		c1.4-2.5,3.3-4.5,5.9-5.8c3.6-1.8,8.4-1.8,12.1,0.1c2.2,1.1,4.5,3.5,5.6,5.8c1.9,4,1.8,0.1,1.8,60.4c0,59.6,0.1,57.3-1.6,63.6
		c-3.8,14.2-13.5,25.5-25.8,30c-6.4,2.3-4.4,2.2-44.3,2.3C6986.3,9237.1,6969.7,9237.1,6969.1,9237z"/>
</g>
<g transform="translate(0.000000,1280.000000) scale(0.100000,-0.100000)">
	<path d="M7179.1,9312.7c-6.3-1.2-11.8-4.2-16.2-8.8c-12.8-13.2-13.2-35.4-0.8-49c4.1-4.5,8.8-7.4,14.9-9.3c3-0.9,11.5-0.8,14.8,0.2
		c10.5,3.1,18.5,11.3,21.9,22.2c3.1,10.1,1.7,21.4-3.7,30.2c-3,4.8-8,9.5-12.6,11.8C7191.6,9312.8,7184.8,9313.8,7179.1,9312.7z"/>
	<path d="M7147.9,9238c-14.3-1.7-26-10.5-32.4-24.6c-1-2.3-2.7-7.5-3.3-10.7c-0.5-2.6-0.6-5.3-0.6-59.7c0-54.1,0-57,0.5-58.6
		c1.8-5.7,6.3-9.3,12-9.9c7.2-0.7,13.5,4.6,14.7,12.3c0.2,1.4,0.3,18.1,0.3,49.9v47.8h2.8h2.8l0.1-131.8
		c0.1-126.3,0.1-131.9,0.6-133.7c1.8-6.5,5.7-11,11.5-13.2c2-0.7,2.7-0.9,5.9-0.9c2.7,0,4.1,0.1,5.4,0.6c6,2,10.4,6.5,12.3,12.8
		l0.8,2.6l0.1,77.3l0.1,77.3h2.8h2.8v-76.8c0-84.4-0.1-78.6,1.8-82.9c2-4.5,5.9-8.2,10.5-9.9c2.1-0.7,2.9-0.9,6-0.9
		c2.7,0,4.1,0.1,5.4,0.6c5.9,1.9,10.1,6.3,12,12.4l0.8,2.6l0.1,132l0.1,132h2.8h2.8v-48.4c0-53.6-0.1-50.8,1.9-54.6
		c1.4-2.5,3.3-4.5,5.9-5.8c3.6-1.9,8.4-1.8,12.1,0.1c2.2,1.1,4.5,3.5,5.6,5.8c1.9,4,1.8,0.1,1.8,60.4c0,59.6,0.1,57.3-1.6,63.6
		c-3.8,14.2-13.5,25.5-25.8,30c-6.4,2.3-4.4,2.2-44.3,2.3C7165,9238.1,7148.4,9238.1,7147.9,9238z"/>
</g>
<g transform="translate(0.000000,1280.000000) scale(0.100000,-0.100000)">
	<path d="M7350.4,9312.2c-6.3-1.2-11.8-4.2-16.2-8.8c-12.8-13.2-13.2-35.4-0.8-49c4.1-4.5,8.8-7.4,14.9-9.3c3-0.9,11.5-0.8,14.8,0.2
		c10.5,3.1,18.5,11.3,21.9,22.2c3.1,10.1,1.7,21.4-3.7,30.2c-3,4.8-8,9.5-12.6,11.8C7362.9,9312.3,7356.1,9313.4,7350.4,9312.2z"/>
	<path d="M7319.2,9237.5c-14.3-1.7-26-10.5-32.4-24.6c-1-2.3-2.7-7.5-3.3-10.7c-0.5-2.6-0.6-5.3-0.6-59.7c0-54.1,0-57,0.5-58.6
		c1.8-5.7,6.3-9.3,12-9.9c7.2-0.7,13.5,4.6,14.7,12.3c0.2,1.4,0.3,18.1,0.3,49.9v47.8h2.8h2.8l0.1-131.8
		c0.1-126.3,0.1-131.9,0.6-133.7c1.8-6.5,5.7-11,11.5-13.2c2-0.7,2.7-0.9,5.9-0.9c2.7,0,4.1,0.1,5.4,0.6c6,2,10.4,6.5,12.3,12.8
		l0.8,2.6l0.1,77.3l0.1,77.3h2.8h2.8v-76.8c0-84.4-0.1-78.6,1.8-82.9c2-4.5,5.9-8.2,10.5-9.9c2.1-0.7,2.9-0.9,6-0.9
		c2.7,0,4.1,0.1,5.4,0.6c5.9,1.9,10.1,6.3,12,12.4l0.8,2.6l0.1,132l0.1,132h2.8h2.8v-48.4c0-53.6-0.1-50.9,1.9-54.6
		c1.4-2.5,3.3-4.5,5.9-5.8c3.6-1.9,8.4-1.8,12.1,0.1c2.2,1.1,4.5,3.5,5.6,5.8c1.9,4,1.8,0.1,1.8,60.4c0,59.6,0.1,57.3-1.6,63.6
		c-3.8,14.2-13.5,25.5-25.8,30c-6.4,2.3-4.4,2.2-44.3,2.3C7336.4,9237.6,7319.8,9237.6,7319.2,9237.5z"/>
</g>
<g transform="translate(0.000000,1280.000000) scale(0.100000,-0.100000)">
	<path d="M7518.6,9313c-6.3-1.2-11.8-4.2-16.2-8.8c-12.8-13.2-13.2-35.4-0.8-49c4.1-4.5,8.8-7.4,14.9-9.3c3-0.9,11.5-0.8,14.8,0.2
		c10.5,3.1,18.5,11.3,21.9,22.2c3.1,10.1,1.7,21.4-3.7,30.2c-3,4.8-8,9.5-12.6,11.8C7531.1,9313.1,7524.3,9314.1,7518.6,9313z"/>
	<path d="M7487.4,9238.3c-14.3-1.7-26-10.5-32.4-24.6c-1-2.3-2.7-7.5-3.3-10.7c-0.5-2.6-0.6-5.3-0.6-59.7c0-54.1,0-57,0.5-58.6
		c1.8-5.7,6.3-9.3,12-9.9c7.2-0.7,13.5,4.6,14.7,12.3c0.2,1.4,0.3,18.1,0.3,49.9v47.8h2.8h2.8l0.1-131.8
		c0.1-126.3,0.1-131.9,0.6-133.7c1.8-6.5,5.7-11,11.5-13.2c2-0.7,2.7-0.9,5.9-0.9c2.7,0,4.1,0.1,5.4,0.6c6,2,10.4,6.5,12.3,12.8
		l0.8,2.6l0.1,77.3l0.1,77.3h2.8h2.8V8999c0-84.4-0.1-78.6,1.8-82.9c2-4.5,5.9-8.2,10.5-9.9c2.1-0.7,2.9-0.9,6-0.9
		c2.7,0,4.1,0.1,5.4,0.6c5.9,1.9,10.1,6.3,12,12.4l0.8,2.6l0.1,132l0.1,132h2.8h2.8v-48.4c0-53.6-0.1-50.8,1.9-54.6
		c1.4-2.5,3.3-4.5,5.9-5.8c3.6-1.9,8.4-1.8,12.1,0.1c2.2,1.1,4.5,3.5,5.6,5.8c1.9,4,1.8,0.1,1.8,60.4c0,59.6,0.1,57.3-1.6,63.6
		c-3.8,14.2-13.5,25.5-25.8,30c-6.4,2.3-4.4,2.2-44.3,2.3C7504.5,9238.4,7488,9238.3,7487.4,9238.3z"/>
</g>
<g transform="translate(0.000000,1280.000000) scale(0.100000,-0.100000)">
	<path d="M7683.8,9311.4c-6.3-1.2-11.8-4.2-16.2-8.8c-12.8-13.2-13.2-35.4-0.8-49c4.1-4.5,8.8-7.4,14.9-9.3c3-0.9,11.5-0.8,14.8,0.2
		c10.5,3.1,18.5,11.3,21.9,22.2c3.1,10.1,1.7,21.4-3.7,30.2c-3,4.8-8,9.5-12.6,11.8C7696.3,9311.6,7689.5,9312.6,7683.8,9311.4z"/>
	<path d="M7652.6,9236.8c-14.3-1.7-26-10.5-32.4-24.6c-1-2.3-2.7-7.5-3.3-10.7c-0.5-2.6-0.6-5.3-0.6-59.7c0-54.1,0-57,0.5-58.6
		c1.8-5.7,6.3-9.3,12-9.9c7.2-0.7,13.5,4.6,14.7,12.3c0.2,1.4,0.3,18.1,0.3,49.9v47.8h2.8h2.8l0.1-131.8
		c0.1-126.3,0.1-131.9,0.6-133.7c1.8-6.5,5.7-11,11.5-13.2c2-0.7,2.7-0.9,5.9-0.9c2.7,0,4.1,0.1,5.4,0.6c6,2,10.4,6.5,12.3,12.8
		l0.8,2.6l0.1,77.3l0.1,77.3h2.8h2.8v-76.8c0-84.4-0.1-78.6,1.8-82.9c2-4.5,5.9-8.2,10.5-9.9c2.1-0.7,2.9-0.9,6-0.9
		c2.7,0,4.1,0.1,5.4,0.6c5.9,1.9,10.1,6.3,12,12.4l0.8,2.6l0.1,132l0.1,132h2.8h2.8V9135c0-53.6-0.1-50.8,1.9-54.6
		c1.4-2.5,3.3-4.5,5.9-5.8c3.6-1.8,8.4-1.8,12.1,0.1c2.2,1.1,4.5,3.5,5.6,5.8c1.9,4,1.8,0.1,1.8,60.4c0,59.6,0.1,57.3-1.6,63.6
		c-3.8,14.2-13.5,25.5-25.8,30c-6.4,2.3-4.4,2.2-44.3,2.3C7669.7,9236.9,7653.1,9236.8,7652.6,9236.8z"/>
</g>
<g transform="translate(0.000000,1280.000000) scale(0.100000,-0.100000)">
	<path d="M6299.7,8847.8c-6.3-1.2-11.8-4.2-16.2-8.8c-12.8-13.2-13.2-35.4-0.8-49c4.1-4.5,8.8-7.4,14.9-9.3c3-0.9,11.5-0.8,14.8,0.2
		c10.5,3.1,18.5,11.3,21.9,22.2c3.1,10.1,1.7,21.4-3.7,30.2c-3,4.8-8,9.5-12.6,11.8C6312.2,8847.9,6305.4,8848.9,6299.7,8847.8z"/>
	<path d="M6268.5,8773.1c-14.3-1.7-26-10.5-32.4-24.6c-1-2.3-2.7-7.5-3.3-10.7c-0.5-2.6-0.6-5.3-0.6-59.7c0-54.1,0-57,0.5-58.6
		c1.8-5.7,6.3-9.3,12-9.9c7.2-0.7,13.5,4.6,14.7,12.3c0.2,1.4,0.3,18.1,0.3,49.9v47.8h2.8h2.8l0.1-131.8
		c0.1-126.3,0.1-131.9,0.6-133.7c1.8-6.5,5.7-11,11.5-13.2c2-0.7,2.7-0.9,5.9-0.9c2.7,0,4.1,0.1,5.4,0.6c6,2,10.4,6.5,12.3,12.8
		l0.8,2.6l0.1,77.3l0.1,77.3h2.8h2.8v-76.8c0-84.4-0.1-78.6,1.8-82.9c2-4.5,5.9-8.2,10.5-9.9c2.1-0.7,2.9-0.9,6-0.9
		c2.7,0,4.1,0.1,5.4,0.6c5.9,1.9,10.1,6.3,12,12.4l0.8,2.6l0.1,132l0.1,132h2.8h2.8v-48.4c0-53.6-0.1-50.8,1.9-54.6
		c1.4-2.5,3.3-4.5,5.9-5.8c3.6-1.9,8.4-1.8,12.1,0.1c2.2,1.1,4.5,3.5,5.6,5.8c1.9,4,1.8,0.1,1.8,60.4c0,59.6,0.1,57.3-1.6,63.6
		c-3.8,14.2-13.5,25.5-25.8,30c-6.4,2.3-4.4,2.2-44.3,2.3C6285.7,8773.2,6269.1,8773.2,6268.5,8773.1z"/>
</g>
<g transform="translate(0.000000,1280.000000) scale(0.100000,-0.100000)">
	<path d="M6469.4,8842.1c-6.3-1.2-11.8-4.2-16.2-8.8c-12.8-13.2-13.2-35.4-0.8-49c4.1-4.5,8.8-7.4,14.9-9.3c3-0.9,11.5-0.8,14.8,0.2
		c10.5,3.1,18.5,11.3,21.9,22.2c3.1,10.1,1.7,21.4-3.7,30.2c-3,4.8-8,9.5-12.6,11.8C6481.9,8842.2,6475.1,8843.3,6469.4,8842.1z"/>
	<path d="M6438.2,8767.4c-14.3-1.7-26-10.5-32.4-24.6c-1-2.3-2.7-7.5-3.3-10.7c-0.5-2.6-0.6-5.3-0.6-59.7c0-54.1,0-57,0.5-58.6
		c1.8-5.7,6.3-9.3,12-9.9c7.2-0.7,13.5,4.6,14.7,12.3c0.2,1.4,0.3,18.1,0.3,49.9v47.8h2.8h2.8l0.1-131.8
		c0.1-126.3,0.1-131.9,0.6-133.7c1.8-6.5,5.7-11,11.5-13.2c2-0.7,2.7-0.9,5.9-0.9c2.7,0,4.1,0.1,5.4,0.6c6,2,10.4,6.5,12.3,12.8
		l0.8,2.6l0.1,77.3l0.1,77.3h2.8h2.8v-76.8c0-84.4-0.1-78.6,1.8-82.9c2-4.5,5.9-8.2,10.5-9.9c2.1-0.7,2.9-0.9,6-0.9
		c2.7,0,4.1,0.1,5.4,0.6c5.9,1.9,10.1,6.3,12,12.4l0.8,2.6l0.1,132l0.1,132h2.8h2.8v-48.4c0-53.6-0.1-50.8,1.9-54.6
		c1.4-2.5,3.3-4.5,5.9-5.8c3.6-1.8,8.4-1.8,12.1,0.1c2.2,1.1,4.5,3.5,5.6,5.8c1.9,4,1.8,0.1,1.8,60.4c0,59.6,0.1,57.3-1.6,63.6
		c-3.8,14.2-13.5,25.5-25.8,30c-6.4,2.3-4.4,2.2-44.3,2.3C6455.4,8767.5,6438.8,8767.5,6438.2,8767.4z"/>
</g>
<g transform="translate(0.000000,1280.000000) scale(0.100000,-0.100000)">
	<path d="M6647,8839.2c-6.3-1.2-11.8-4.2-16.2-8.8c-12.8-13.2-13.2-35.4-0.8-49c4.1-4.5,8.8-7.4,14.9-9.3c3-0.9,11.5-0.8,14.8,0.2
		c10.5,3.1,18.5,11.3,21.9,22.2c3.1,10.1,1.7,21.4-3.7,30.2c-3,4.8-8,9.5-12.6,11.8C6659.5,8839.3,6652.7,8840.4,6647,8839.2z"/>
	<path d="M6615.8,8764.5c-14.3-1.7-26-10.5-32.4-24.6c-1-2.3-2.7-7.5-3.3-10.7c-0.5-2.6-0.6-5.3-0.6-59.7c0-54.1,0-57,0.5-58.6
		c1.8-5.7,6.3-9.3,12-9.9c7.2-0.7,13.5,4.6,14.7,12.3c0.2,1.4,0.3,18.1,0.3,49.9v47.8h2.8h2.8l0.1-131.8
		c0.1-126.3,0.1-131.9,0.6-133.7c1.8-6.5,5.7-11,11.5-13.2c2-0.7,2.7-0.9,5.9-0.9c2.7,0,4.1,0.1,5.4,0.6c6,2,10.4,6.5,12.3,12.8
		l0.8,2.6l0.1,77.3l0.1,77.3h2.8h2.8v-76.8c0-84.4-0.1-78.6,1.8-82.9c2-4.5,5.9-8.2,10.5-9.9c2.1-0.7,2.9-0.9,6-0.9
		c2.7,0,4.1,0.1,5.4,0.6c5.9,1.9,10.1,6.3,12,12.4l0.8,2.6l0.1,132l0.1,132h2.8h2.8v-48.4c0-53.6-0.1-50.8,1.9-54.6
		c1.4-2.5,3.3-4.5,5.9-5.8c3.6-1.9,8.4-1.8,12.1,0.1c2.2,1.1,4.5,3.5,5.6,5.8c1.9,4,1.8,0.1,1.8,60.4c0,59.6,0.1,57.3-1.6,63.6
		c-3.8,14.2-13.5,25.5-25.8,30c-6.4,2.3-4.4,2.2-44.3,2.3C6633,8764.6,6616.4,8764.6,6615.8,8764.5z"/>
</g>
<g transform="translate(0.000000,1280.000000) scale(0.100000,-0.100000)">
	<path d="M6818.9,8842c-6.3-1.2-11.8-4.2-16.2-8.8c-12.8-13.2-13.2-35.4-0.8-49c4.1-4.5,8.8-7.4,14.9-9.3c3-0.9,11.5-0.8,14.8,0.2
		c10.5,3.1,18.5,11.3,21.9,22.2c3.1,10.1,1.7,21.4-3.7,30.2c-3,4.8-8,9.5-12.6,11.8C6831.4,8842.1,6824.6,8843.1,6818.9,8842z"/>
	<path d="M6787.7,8767.3c-14.3-1.7-26-10.5-32.4-24.6c-1-2.3-2.7-7.5-3.3-10.7c-0.5-2.6-0.6-5.3-0.6-59.7c0-54.1,0-57,0.5-58.6
		c1.8-5.7,6.3-9.3,12-9.9c7.2-0.7,13.5,4.6,14.7,12.3c0.2,1.4,0.3,18.1,0.3,49.9v47.8h2.8h2.8l0.1-131.8
		c0.1-126.3,0.1-131.9,0.6-133.7c1.8-6.5,5.7-11,11.5-13.2c2-0.7,2.7-0.9,5.9-0.9c2.7,0,4.1,0.1,5.4,0.6c6,2,10.4,6.5,12.3,12.8
		l0.8,2.6l0.1,77.3l0.1,77.3h2.8h2.8V8528c0-84.4-0.1-78.6,1.8-82.9c2-4.5,5.9-8.2,10.5-9.9c2.1-0.7,2.9-0.9,6-0.9
		c2.7,0,4.1,0.1,5.4,0.6c5.9,1.9,10.1,6.3,12,12.4l0.8,2.6l0.1,132l0.1,132h2.8h2.8v-48.4c0-53.6-0.1-50.8,1.9-54.6
		c1.4-2.5,3.3-4.5,5.9-5.8c3.6-1.9,8.4-1.8,12.1,0.1c2.2,1.1,4.5,3.5,5.6,5.8c1.9,4,1.8,0.1,1.8,60.4c0,59.6,0.1,57.3-1.6,63.6
		c-3.8,14.2-13.5,25.5-25.8,30c-6.4,2.3-4.4,2.2-44.3,2.3C6804.9,8767.4,6788.3,8767.3,6787.7,8767.3z"/>
</g>
<g transform="translate(0.000000,1280.000000) scale(0.100000,-0.100000)">
	<path d="M6997.2,8842.3c-6.3-1.2-11.8-4.2-16.2-8.8c-12.8-13.2-13.2-35.4-0.8-49c4.1-4.5,8.8-7.4,14.9-9.3c3-0.9,11.5-0.8,14.8,0.2
		c10.5,3.1,18.5,11.3,21.9,22.2c3.1,10.1,1.7,21.4-3.7,30.2c-3,4.8-8,9.5-12.6,11.8C7009.7,8842.4,7002.9,8843.5,6997.2,8842.3z"/>
	<path d="M6966,8767.6c-14.3-1.7-26-10.5-32.4-24.6c-1-2.3-2.7-7.5-3.3-10.7c-0.5-2.6-0.6-5.3-0.6-59.7c0-54.1,0-57,0.5-58.6
		c1.8-5.7,6.3-9.3,12-9.9c7.2-0.7,13.5,4.6,14.7,12.3c0.2,1.4,0.3,18.1,0.3,49.9v47.8h2.8h2.8l0.1-131.8
		c0.1-126.3,0.1-131.9,0.6-133.7c1.8-6.5,5.7-11,11.5-13.2c2-0.7,2.7-0.9,5.9-0.9c2.7,0,4.1,0.1,5.4,0.6c6,2,10.4,6.5,12.3,12.8
		l0.8,2.6l0.1,77.3l0.1,77.3h2.8h2.8v-76.8c0-84.4-0.1-78.6,1.8-82.9c2-4.5,5.9-8.2,10.5-9.9c2.1-0.7,2.9-0.9,6-0.9
		c2.7,0,4.1,0.1,5.4,0.6c5.9,1.9,10.1,6.3,12,12.4l0.8,2.6l0.1,132l0.1,132h2.8h2.8v-48.4c0-53.6-0.1-50.8,1.9-54.6
		c1.4-2.5,3.3-4.5,5.9-5.8c3.6-1.9,8.4-1.8,12.1,0.1c2.2,1.1,4.5,3.5,5.6,5.8c1.9,4,1.8,0.1,1.8,60.4c0,59.6,0.1,57.3-1.6,63.6
		c-3.8,14.2-13.5,25.5-25.8,30c-6.4,2.3-4.4,2.2-44.3,2.3C6983.2,8767.7,6966.6,8767.7,6966,8767.6z"/>
</g>
<g transform="translate(0.000000,1280.000000) scale(0.100000,-0.100000)">
	<path d="M7176,8843.3c-6.3-1.2-11.8-4.2-16.2-8.8c-12.8-13.2-13.2-35.4-0.8-49c4.1-4.5,8.8-7.4,14.9-9.3c3-0.9,11.5-0.8,14.8,0.2
		c10.5,3.1,18.5,11.3,21.9,22.2c3.1,10.1,1.7,21.4-3.7,30.2c-3,4.8-8,9.5-12.6,11.8C7188.5,8843.4,7181.7,8844.4,7176,8843.3z"/>
	<path d="M7144.8,8768.6c-14.3-1.7-26-10.5-32.4-24.6c-1-2.3-2.7-7.5-3.3-10.7c-0.5-2.6-0.6-5.3-0.6-59.7c0-54.1,0-57,0.5-58.6
		c1.8-5.7,6.3-9.3,12-9.9c7.2-0.7,13.5,4.6,14.7,12.3c0.2,1.4,0.3,18.1,0.3,49.9v47.8h2.8h2.8l0.1-131.8
		c0.1-126.3,0.1-131.9,0.6-133.7c1.8-6.5,5.7-11,11.5-13.2c2-0.7,2.7-0.9,5.9-0.9c2.7,0,4.1,0.1,5.4,0.6c6,2,10.4,6.5,12.3,12.8
		l0.8,2.6l0.1,77.3l0.1,77.3h2.8h2.8v-76.8c0-84.4-0.1-78.6,1.8-82.9c2-4.5,5.9-8.2,10.5-9.9c2.1-0.7,2.9-0.9,6-0.9
		c2.7,0,4.1,0.1,5.4,0.6c5.9,1.9,10.1,6.3,12,12.4l0.8,2.6l0.1,132l0.1,132h2.8h2.8v-48.4c0-53.6-0.1-50.8,1.9-54.6
		c1.4-2.5,3.3-4.5,5.9-5.8c3.6-1.8,8.4-1.8,12.1,0.1c2.2,1.1,4.5,3.5,5.6,5.8c1.9,4,1.8,0.1,1.8,60.4c0,59.6,0.1,57.3-1.6,63.6
		c-3.8,14.2-13.5,25.5-25.8,30c-6.4,2.3-4.4,2.2-44.3,2.3C7161.9,8768.7,7145.3,8768.7,7144.8,8768.6z"/>
</g>
<g transform="translate(0.000000,1280.000000) scale(0.100000,-0.100000)">
	<path d="M7347.3,8842.8c-6.3-1.2-11.8-4.2-16.2-8.8c-12.8-13.2-13.2-35.4-0.8-49c4.1-4.5,8.8-7.4,14.9-9.3c3-0.9,11.5-0.8,14.8,0.2
		c10.5,3.1,18.5,11.3,21.9,22.2c3.1,10.1,1.7,21.4-3.7,30.2c-3,4.8-8,9.5-12.6,11.8C7359.8,8843,7353,8844,7347.3,8842.8z"/>
	<path d="M7316.1,8768.2c-14.3-1.7-26-10.5-32.4-24.6c-1-2.3-2.7-7.5-3.3-10.7c-0.5-2.6-0.6-5.3-0.6-59.7c0-54.1,0-57,0.5-58.6
		c1.8-5.7,6.3-9.3,12-9.9c7.2-0.7,13.5,4.6,14.7,12.3c0.2,1.4,0.3,18.1,0.3,49.9v47.8h2.8h2.8l0.1-131.8
		c0.1-126.3,0.1-131.9,0.6-133.7c1.8-6.5,5.7-11,11.5-13.2c2-0.7,2.7-0.9,5.9-0.9c2.7,0,4.1,0.1,5.4,0.6c6,2,10.4,6.5,12.3,12.8
		l0.8,2.6l0.1,77.3l0.1,77.3h2.8h2.8v-76.8c0-84.4-0.1-78.6,1.8-82.9c2-4.5,5.9-8.2,10.5-9.9c2.1-0.7,2.9-0.9,6-0.9
		c2.7,0,4.1,0.1,5.4,0.6c5.9,1.9,10.1,6.3,12,12.4l0.8,2.6l0.1,132l0.1,132h2.8h2.8v-48.4c0-53.6-0.1-50.8,1.9-54.6
		c1.4-2.5,3.3-4.5,5.9-5.8c3.6-1.8,8.4-1.8,12.1,0.1c2.2,1.1,4.5,3.5,5.6,5.8c1.9,4,1.8,0.1,1.8,60.4c0,59.6,0.1,57.3-1.6,63.6
		c-3.8,14.2-13.5,25.5-25.8,30c-6.4,2.3-4.4,2.2-44.3,2.3C7333.3,8768.3,7316.7,8768.2,7316.1,8768.2z"/>
</g>
<g transform="translate(0.000000,1280.000000) scale(0.100000,-0.100000)">
	<path d="M7515.5,8843.6c-6.3-1.2-11.8-4.2-16.2-8.8c-12.8-13.2-13.2-35.4-0.8-49c4.1-4.5,8.8-7.4,14.9-9.3c3-0.9,11.5-0.8,14.8,0.2
		c10.5,3.1,18.5,11.3,21.9,22.2c3.1,10.1,1.7,21.4-3.7,30.2c-3,4.8-8,9.5-12.6,11.8C7528,8843.7,7521.2,8844.7,7515.5,8843.6z"/>
	<path d="M7484.3,8768.9c-14.3-1.7-26-10.5-32.4-24.6c-1-2.3-2.7-7.5-3.3-10.7c-0.5-2.6-0.6-5.3-0.6-59.7c0-54.1,0-57,0.5-58.6
		c1.8-5.7,6.3-9.3,12-9.9c7.2-0.7,13.5,4.6,14.7,12.3c0.2,1.4,0.3,18.1,0.3,49.9v47.8h2.8h2.8l0.1-131.8
		c0.1-126.3,0.1-131.9,0.6-133.7c1.8-6.5,5.7-11,11.5-13.2c2-0.7,2.7-0.9,5.9-0.9c2.7,0,4.1,0.1,5.4,0.6c6,2,10.4,6.5,12.3,12.8
		l0.8,2.6l0.1,77.3l0.1,77.3h2.8h2.8v-76.8c0-84.4-0.1-78.6,1.8-82.9c2-4.5,5.9-8.2,10.5-9.9c2.1-0.7,2.9-0.9,6-0.9
		c2.7,0,4.1,0.1,5.4,0.6c5.9,1.9,10.1,6.3,12,12.4l0.8,2.6l0.1,132l0.1,132h2.8h2.8v-48.4c0-53.6-0.1-50.8,1.9-54.6
		c1.4-2.5,3.3-4.5,5.9-5.8c3.6-1.8,8.4-1.8,12.1,0.1c2.2,1.1,4.5,3.5,5.6,5.8c1.9,4,1.8,0.1,1.8,60.4c0,59.6,0.1,57.3-1.6,63.6
		c-3.8,14.2-13.5,25.5-25.8,30c-6.4,2.3-4.4,2.2-44.3,2.3C7501.4,8769,7484.9,8769,7484.3,8768.9z"/>
</g>
<g transform="translate(0.000000,1280.000000) scale(0.100000,-0.100000)">
	<path d="M7680.7,8842.1c-6.3-1.2-11.8-4.2-16.2-8.8c-12.8-13.2-13.2-35.4-0.8-49c4.1-4.5,8.8-7.4,14.9-9.3c3-0.9,11.5-0.8,14.8,0.2
		c10.5,3.1,18.5,11.3,21.9,22.2c3.1,10.1,1.7,21.4-3.7,30.2c-3,4.8-8,9.5-12.6,11.8C7693.2,8842.2,7686.4,8843.2,7680.7,8842.1z"/>
	<path d="M7649.5,8767.4c-14.3-1.7-26-10.5-32.4-24.6c-1-2.3-2.7-7.5-3.3-10.7c-0.5-2.6-0.6-5.3-0.6-59.7c0-54.1,0-57,0.5-58.6
		c1.8-5.7,6.3-9.3,12-9.9c7.2-0.7,13.5,4.6,14.7,12.3c0.2,1.4,0.3,18.1,0.3,49.9v47.8h2.8h2.8l0.1-131.8
		c0.1-126.3,0.1-131.9,0.6-133.7c1.8-6.5,5.7-11,11.5-13.2c2-0.7,2.7-0.9,5.9-0.9c2.7,0,4.1,0.1,5.4,0.6c6,2,10.4,6.5,12.3,12.8
		l0.8,2.6l0.1,77.3l0.1,77.3h2.8h2.8v-76.8c0-84.4-0.1-78.6,1.8-82.9c2-4.5,5.9-8.2,10.5-9.9c2.1-0.7,2.9-0.9,6-0.9
		c2.7,0,4.1,0.1,5.4,0.6c5.9,1.9,10.1,6.3,12,12.4l0.8,2.6l0.1,132l0.1,132h2.8h2.8v-48.4c0-53.6-0.1-50.8,1.9-54.6
		c1.4-2.5,3.3-4.5,5.9-5.8c3.6-1.9,8.4-1.8,12.1,0.1c2.2,1.1,4.5,3.5,5.6,5.8c1.9,4,1.8,0.1,1.8,60.4c0,59.6,0.1,57.3-1.6,63.6
		c-3.8,14.2-13.5,25.5-25.8,30c-6.4,2.3-4.4,2.2-44.3,2.3C7666.6,8767.5,7650,8767.5,7649.5,8767.4z"/>
</g>
<g transform="translate(0.000000,1280.000000) scale(0.100000,-0.100000)">
	<path d="M6294.6,8352.7c-6.3-1.2-11.8-4.2-16.2-8.8c-12.8-13.2-13.2-35.4-0.8-49c4.1-4.5,8.8-7.4,14.9-9.3c3-0.9,11.5-0.8,14.8,0.2
		c10.5,3.1,18.5,11.3,21.9,22.2c3.1,10.1,1.7,21.4-3.7,30.2c-3,4.8-8,9.5-12.6,11.8C6307.1,8352.8,6300.3,8353.9,6294.6,8352.7z"/>
	<path d="M6263.4,8278c-14.3-1.7-26-10.5-32.4-24.6c-1-2.3-2.7-7.5-3.3-10.7c-0.5-2.6-0.6-5.3-0.6-59.7c0-54.1,0-57,0.5-58.6
		c1.8-5.7,6.3-9.3,12-9.9c7.2-0.7,13.5,4.6,14.7,12.3c0.2,1.4,0.3,18.1,0.3,49.9v47.8h2.8h2.8l0.1-131.8
		c0.1-126.3,0.1-131.9,0.6-133.7c1.8-6.5,5.7-11,11.5-13.2c2-0.7,2.7-0.9,5.9-0.9c2.7,0,4.1,0.1,5.4,0.6c6,2,10.4,6.5,12.3,12.8
		l0.8,2.6l0.1,77.3l0.1,77.3h2.8h2.8v-76.8c0-84.4-0.1-78.6,1.8-82.9c2-4.5,5.9-8.2,10.5-9.9c2.1-0.7,2.9-0.9,6-0.9
		c2.7,0,4.1,0.1,5.4,0.6c5.9,1.9,10.1,6.3,12,12.4l0.8,2.6l0.1,132l0.1,132h2.8h2.8v-48.4c0-53.6-0.1-50.8,1.9-54.6
		c1.4-2.5,3.3-4.5,5.9-5.8c3.6-1.9,8.4-1.8,12.1,0.1c2.2,1.1,4.5,3.5,5.6,5.8c1.9,4,1.8,0.1,1.8,60.4c0,59.6,0.1,57.3-1.6,63.6
		c-3.8,14.2-13.5,25.5-25.8,30c-6.4,2.3-4.4,2.2-44.3,2.3C6280.5,8278.1,6264,8278.1,6263.4,8278z"/>
</g>
<g transform="translate(0.000000,1280.000000) scale(0.100000,-0.100000)">
	<path d="M6464.3,8347.1c-6.3-1.2-11.8-4.2-16.2-8.8c-12.8-13.2-13.2-35.4-0.8-49c4.1-4.5,8.8-7.4,14.9-9.3c3-0.9,11.5-0.8,14.8,0.2
		c10.5,3.1,18.5,11.3,21.9,22.2c3.1,10.1,1.7,21.4-3.7,30.2c-3,4.8-8,9.5-12.6,11.8C6476.8,8347.2,6470,8348.2,6464.3,8347.1z"/>
	<path d="M6433.1,8272.4c-14.3-1.7-26-10.5-32.4-24.6c-1-2.3-2.7-7.5-3.3-10.7c-0.5-2.6-0.6-5.3-0.6-59.7c0-54.1,0-57,0.5-58.6
		c1.8-5.7,6.3-9.3,12-9.9c7.2-0.7,13.5,4.6,14.7,12.3c0.2,1.4,0.3,18.1,0.3,49.9v47.8h2.8h2.8l0.1-131.8
		c0.1-126.3,0.1-131.9,0.6-133.7c1.8-6.5,5.7-11,11.5-13.2c2-0.7,2.7-0.9,5.9-0.9c2.7,0,4.1,0.1,5.4,0.6c6,2,10.4,6.5,12.3,12.8
		l0.8,2.6l0.1,77.3l0.1,77.3h2.8h2.8v-76.8c0-84.4-0.1-78.6,1.8-82.9c2-4.5,5.9-8.2,10.5-9.9c2.1-0.7,2.9-0.9,6-0.9
		c2.7,0,4.1,0.1,5.4,0.6c5.9,1.9,10.1,6.3,12,12.4l0.8,2.6l0.1,132l0.1,132h2.8h2.8v-48.4c0-53.6-0.1-50.9,1.9-54.6
		c1.4-2.5,3.3-4.5,5.9-5.8c3.6-1.9,8.4-1.8,12.1,0.1c2.2,1.1,4.5,3.5,5.6,5.8c1.9,4,1.8,0.1,1.8,60.4c0,59.6,0.1,57.3-1.6,63.6
		c-3.8,14.2-13.5,25.5-25.8,30c-6.4,2.3-4.4,2.2-44.3,2.3C6450.2,8272.5,6433.6,8272.4,6433.1,8272.4z"/>
</g>
<g transform="translate(0.000000,1280.000000) scale(0.100000,-0.100000)">
	<path class="st14" d="M6641.9,8344.2c-6.3-1.2-11.8-4.2-16.2-8.8c-12.8-13.2-13.2-35.4-0.8-49c4.1-4.5,8.8-7.4,14.9-9.3
		c3-0.9,11.5-0.8,14.8,0.2c10.5,3.1,18.5,11.3,21.9,22.2c3.1,10.1,1.7,21.4-3.7,30.2c-3,4.8-8,9.5-12.6,11.8
		C6654.4,8344.3,6647.6,8345.3,6641.9,8344.2z"/>
	<path class="st14" d="M6610.7,8269.5c-14.3-1.7-26-10.5-32.4-24.6c-1-2.3-2.7-7.5-3.3-10.7c-0.5-2.6-0.6-5.3-0.6-59.7
		c0-54.1,0-57,0.5-58.6c1.8-5.7,6.3-9.3,12-9.9c7.2-0.7,13.5,4.6,14.7,12.3c0.2,1.4,0.3,18.1,0.3,49.9v47.8h2.8h2.8l0.1-131.8
		c0.1-126.3,0.1-131.9,0.6-133.7c1.8-6.5,5.7-11,11.5-13.2c2-0.7,2.7-0.9,5.9-0.9c2.7,0,4.1,0.1,5.4,0.6c6,2,10.4,6.5,12.3,12.8
		l0.8,2.6l0.1,77.3l0.1,77.3h2.8h2.8v-76.8c0-84.4-0.1-78.6,1.8-82.9c2-4.5,5.9-8.2,10.5-9.9c2.1-0.7,2.9-0.9,6-0.9
		c2.7,0,4.1,0.1,5.4,0.6c5.9,1.9,10.1,6.3,12,12.4l0.8,2.6l0.1,132l0.1,132h2.8h2.8v-48.4c0-53.6-0.1-50.8,1.9-54.6
		c1.4-2.5,3.3-4.5,5.9-5.8c3.6-1.9,8.4-1.8,12.1,0.1c2.2,1.1,4.5,3.5,5.6,5.8c1.9,4,1.8,0.1,1.8,60.4c0,59.6,0.1,57.3-1.6,63.6
		c-3.8,14.2-13.5,25.5-25.8,30c-6.4,2.3-4.4,2.2-44.3,2.3C6627.8,8269.6,6611.2,8269.5,6610.7,8269.5z"/>
</g>
<g transform="translate(0.000000,1280.000000) scale(0.100000,-0.100000)">
	<path class="st14" d="M6813.8,8346.9c-6.3-1.2-11.8-4.2-16.2-8.8c-12.8-13.2-13.2-35.4-0.8-49c4.1-4.5,8.8-7.4,14.9-9.3
		c3-0.9,11.5-0.8,14.8,0.2c10.5,3.1,18.5,11.3,21.9,22.2c3.1,10.1,1.7,21.4-3.7,30.2c-3,4.8-8,9.5-12.6,11.8
		C6826.3,8347,6819.5,8348,6813.8,8346.9z"/>
	<path class="st14" d="M6782.6,8272.2c-14.3-1.7-26-10.5-32.4-24.6c-1-2.3-2.7-7.5-3.3-10.7c-0.5-2.6-0.6-5.3-0.6-59.7
		c0-54.1,0-57,0.5-58.6c1.8-5.7,6.3-9.3,12-9.9c7.2-0.7,13.5,4.6,14.7,12.3c0.2,1.4,0.3,18.1,0.3,49.9v47.8h2.8h2.8l0.1-131.8
		c0.1-126.3,0.1-131.9,0.6-133.7c1.8-6.5,5.7-11,11.5-13.2c2-0.7,2.7-0.9,5.9-0.9c2.7,0,4.1,0.1,5.4,0.6c6,2,10.4,6.5,12.3,12.8
		l0.8,2.6l0.1,77.3l0.1,77.3h2.8h2.8v-76.8c0-84.4-0.1-78.6,1.8-82.9c2-4.5,5.9-8.2,10.5-9.9c2.1-0.7,2.9-0.9,6-0.9
		c2.7,0,4.1,0.1,5.4,0.6c5.9,1.9,10.1,6.3,12,12.4l0.8,2.6l0.1,132l0.1,132h2.8h2.8v-48.4c0-53.6-0.1-50.8,1.9-54.6
		c1.4-2.5,3.3-4.5,5.9-5.8c3.6-1.9,8.4-1.8,12.1,0.1c2.2,1.1,4.5,3.5,5.6,5.8c1.9,4,1.8,0.1,1.8,60.4c0,59.6,0.1,57.3-1.6,63.6
		c-3.8,14.2-13.5,25.5-25.8,30c-6.4,2.3-4.4,2.2-44.3,2.3C6799.7,8272.3,6783.1,8272.3,6782.6,8272.2z"/>
</g>
<g transform="translate(0.000000,1280.000000) scale(0.100000,-0.100000)">
	<path class="st14" d="M6992.1,8347.3c-6.3-1.2-11.8-4.2-16.2-8.8c-12.8-13.2-13.2-35.4-0.8-49c4.1-4.5,8.8-7.4,14.9-9.3
		c3-0.9,11.5-0.8,14.8,0.2c10.5,3.1,18.5,11.3,21.9,22.2c3.1,10.1,1.7,21.4-3.7,30.2c-3,4.8-8,9.5-12.6,11.8
		C7004.6,8347.4,6997.8,8348.4,6992.1,8347.3z"/>
	<path class="st14" d="M6960.9,8272.6c-14.3-1.7-26-10.5-32.4-24.6c-1-2.3-2.7-7.5-3.3-10.7c-0.5-2.6-0.6-5.3-0.6-59.7
		c0-54.1,0-57,0.5-58.6c1.8-5.7,6.3-9.3,12-9.9c7.2-0.7,13.5,4.6,14.7,12.3c0.2,1.4,0.3,18.1,0.3,49.9v47.8h2.8h2.8l0.1-131.8
		c0.1-126.3,0.1-131.9,0.6-133.7c1.8-6.5,5.7-11,11.5-13.2c2-0.7,2.7-0.9,5.9-0.9c2.7,0,4.1,0.1,5.4,0.6c6,2,10.4,6.5,12.3,12.8
		l0.8,2.6l0.1,77.3l0.1,77.3h2.8h2.8v-76.8c0-84.4-0.1-78.6,1.8-82.9c2-4.5,5.9-8.2,10.5-9.9c2.1-0.7,2.9-0.9,6-0.9
		c2.7,0,4.1,0.1,5.4,0.6c5.9,1.9,10.1,6.3,12,12.4l0.8,2.6l0.1,132l0.1,132h2.8h2.8v-48.4c0-53.6-0.1-50.8,1.9-54.6
		c1.4-2.5,3.3-4.5,5.9-5.8c3.6-1.9,8.4-1.8,12.1,0.1c2.2,1.1,4.5,3.5,5.6,5.8c1.9,4,1.8,0.1,1.8,60.4c0,59.6,0.1,57.3-1.6,63.6
		c-3.8,14.2-13.5,25.5-25.8,30c-6.4,2.3-4.4,2.2-44.3,2.3C6978,8272.7,6961.4,8272.6,6960.9,8272.6z"/>
</g>
<g transform="translate(0.000000,1280.000000) scale(0.100000,-0.100000)">
	<path class="st14" d="M7170.8,8348.2c-6.3-1.2-11.8-4.2-16.2-8.8c-12.8-13.2-13.2-35.4-0.8-49c4.1-4.5,8.8-7.4,14.9-9.3
		c3-0.9,11.5-0.8,14.8,0.2c10.5,3.1,18.5,11.3,21.9,22.2c3.1,10.1,1.7,21.4-3.7,30.2c-3,4.8-8,9.5-12.6,11.8
		C7183.3,8348.4,7176.5,8349.4,7170.8,8348.2z"/>
	<path class="st14" d="M7139.6,8273.6c-14.3-1.7-26-10.5-32.4-24.6c-1-2.3-2.7-7.5-3.3-10.7c-0.5-2.6-0.6-5.3-0.6-59.7
		c0-54.1,0-57,0.5-58.6c1.8-5.7,6.3-9.3,12-9.9c7.2-0.7,13.5,4.6,14.7,12.3c0.2,1.4,0.3,18.1,0.3,49.9v47.8h2.8h2.8l0.1-131.8
		c0.1-126.3,0.1-131.9,0.6-133.7c1.8-6.5,5.7-11,11.5-13.2c2-0.7,2.7-0.9,5.9-0.9c2.7,0,4.1,0.1,5.4,0.6c6,2,10.4,6.5,12.3,12.8
		l0.8,2.6l0.1,77.3l0.1,77.3h2.8h2.8v-76.8c0-84.4-0.1-78.6,1.8-82.9c2-4.5,5.9-8.2,10.5-9.9c2.1-0.7,2.9-0.9,6-0.9
		c2.7,0,4.1,0.1,5.4,0.6c5.9,1.9,10.1,6.3,12,12.4l0.8,2.6l0.1,132l0.1,132h2.8h2.8v-48.4c0-53.6-0.1-50.8,1.9-54.6
		c1.4-2.5,3.3-4.5,5.9-5.8c3.6-1.9,8.4-1.8,12.1,0.1c2.2,1.1,4.5,3.5,5.6,5.8c1.9,4,1.8,0.1,1.8,60.4c0,59.6,0.1,57.3-1.6,63.6
		c-3.8,14.2-13.5,25.5-25.8,30c-6.4,2.3-4.4,2.2-44.3,2.3C7156.8,8273.7,7140.2,8273.6,7139.6,8273.6z"/>
</g>
<g transform="translate(0.000000,1280.000000) scale(0.100000,-0.100000)">
	<path class="st14" d="M7342.2,8347.8c-6.3-1.2-11.8-4.2-16.2-8.8c-12.8-13.2-13.2-35.4-0.8-49c4.1-4.5,8.8-7.4,14.9-9.3
		c3-0.9,11.5-0.8,14.8,0.2c10.5,3.1,18.5,11.3,21.9,22.2c3.1,10.1,1.7,21.4-3.7,30.2c-3,4.8-8,9.5-12.6,11.8
		C7354.7,8347.9,7347.9,8348.9,7342.2,8347.8z"/>
	<path class="st14" d="M7311,8273.1c-14.3-1.7-26-10.5-32.4-24.6c-1-2.3-2.7-7.5-3.3-10.7c-0.5-2.6-0.6-5.3-0.6-59.7
		c0-54.1,0-57,0.5-58.6c1.8-5.7,6.3-9.3,12-9.9c7.2-0.7,13.5,4.6,14.7,12.3c0.2,1.4,0.3,18.1,0.3,49.9v47.8h2.8h2.8l0.1-131.8
		c0.1-126.3,0.1-131.9,0.6-133.7c1.8-6.5,5.7-11,11.5-13.2c2-0.7,2.7-0.9,5.9-0.9c2.7,0,4.1,0.1,5.4,0.6c6,2,10.4,6.5,12.3,12.8
		l0.8,2.6l0.1,77.3l0.1,77.3h2.8h2.8v-76.8c0-84.4-0.1-78.6,1.8-82.9c2-4.5,5.9-8.2,10.5-9.9c2.1-0.7,2.9-0.9,6-0.9
		c2.7,0,4.1,0.1,5.4,0.6c5.9,1.9,10.1,6.3,12,12.4l0.8,2.6l0.1,132l0.1,132h2.8h2.8v-48.4c0-53.6-0.1-50.8,1.9-54.6
		c1.4-2.5,3.3-4.5,5.9-5.8c3.6-1.9,8.4-1.8,12.1,0.1c2.2,1.1,4.5,3.5,5.6,5.8c1.9,4,1.8,0.1,1.8,60.4c0,59.6,0.1,57.3-1.6,63.6
		c-3.8,14.2-13.5,25.5-25.8,30c-6.4,2.3-4.4,2.2-44.3,2.3C7328.1,8273.2,7311.5,8273.2,7311,8273.1z"/>
</g>
<g transform="translate(0.000000,1280.000000) scale(0.100000,-0.100000)">
	<path class="st14" d="M7510.4,8348.5c-6.3-1.2-11.8-4.2-16.2-8.8c-12.8-13.2-13.2-35.4-0.8-49c4.1-4.5,8.8-7.4,14.9-9.3
		c3-0.9,11.5-0.8,14.8,0.2c10.5,3.1,18.5,11.3,21.9,22.2c3.1,10.1,1.7,21.4-3.7,30.2c-3,4.8-8,9.5-12.6,11.8
		C7522.9,8348.6,7516.1,8349.7,7510.4,8348.5z"/>
	<path class="st14" d="M7479.2,8273.8c-14.3-1.7-26-10.5-32.4-24.6c-1-2.3-2.7-7.5-3.3-10.7c-0.5-2.6-0.6-5.3-0.6-59.7
		c0-54.1,0-57,0.5-58.6c1.8-5.7,6.3-9.3,12-9.9c7.2-0.7,13.5,4.6,14.7,12.3c0.2,1.4,0.3,18.1,0.3,49.9v47.8h2.8h2.8l0.1-131.8
		c0.1-126.3,0.1-131.9,0.6-133.7c1.8-6.5,5.7-11,11.5-13.2c2-0.7,2.7-0.9,5.9-0.9c2.7,0,4.1,0.1,5.4,0.6c6,2,10.4,6.5,12.3,12.8
		l0.8,2.6l0.1,77.3l0.1,77.3h2.8h2.8v-76.8c0-84.4-0.1-78.6,1.8-82.9c2-4.5,5.9-8.2,10.5-9.9c2.1-0.7,2.9-0.9,6-0.9
		c2.7,0,4.1,0.1,5.4,0.6c5.9,1.9,10.1,6.3,12,12.4l0.8,2.6l0.1,132l0.1,132h2.8h2.8v-48.4c0-53.6-0.1-50.8,1.9-54.6
		c1.4-2.5,3.3-4.5,5.9-5.8c3.6-1.9,8.4-1.8,12.1,0.1c2.2,1.1,4.5,3.5,5.6,5.8c1.9,4,1.8,0.1,1.8,60.4c0,59.6,0.1,57.3-1.6,63.6
		c-3.8,14.2-13.5,25.5-25.8,30c-6.4,2.3-4.4,2.2-44.3,2.3C7496.3,8273.9,7479.7,8273.9,7479.2,8273.8z"/>
</g>
<g transform="translate(0.000000,1280.000000) scale(0.100000,-0.100000)">
	<path class="st14" d="M7675.6,8347c-6.3-1.2-11.8-4.2-16.2-8.8c-12.8-13.2-13.2-35.4-0.8-49c4.1-4.5,8.8-7.4,14.9-9.3
		c3-0.9,11.5-0.8,14.8,0.2c10.5,3.1,18.5,11.3,21.9,22.2c3.1,10.1,1.7,21.4-3.7,30.2c-3,4.8-8,9.5-12.6,11.8
		C7688,8347.1,7681.3,8348.2,7675.6,8347z"/>
	<path class="st14" d="M7644.3,8272.3c-14.3-1.7-26-10.5-32.4-24.6c-1-2.3-2.7-7.5-3.3-10.7c-0.5-2.6-0.6-5.3-0.6-59.7
		c0-54.1,0-57,0.5-58.6c1.8-5.7,6.3-9.3,12-9.9c7.2-0.7,13.5,4.6,14.7,12.3c0.2,1.4,0.3,18.1,0.3,49.9v47.8h2.8h2.8l0.1-131.8
		c0.1-126.3,0.1-131.9,0.6-133.7c1.8-6.5,5.7-11,11.5-13.2c2-0.7,2.7-0.9,5.9-0.9c2.7,0,4.1,0.1,5.4,0.6c6,2,10.4,6.5,12.3,12.8
		l0.8,2.6l0.1,77.3l0.1,77.3h2.8h2.8V8033c0-84.4-0.1-78.6,1.8-82.9c2-4.5,5.9-8.2,10.5-9.9c2.1-0.7,2.9-0.9,6-0.9
		c2.7,0,4.1,0.1,5.4,0.6c5.9,1.9,10.1,6.3,12,12.4l0.8,2.6l0.1,132l0.1,132h2.8h2.8v-48.4c0-53.6-0.1-50.8,1.9-54.6
		c1.4-2.5,3.3-4.5,5.9-5.8c3.6-1.9,8.4-1.8,12.1,0.1c2.2,1.1,4.5,3.5,5.6,5.8c1.9,4,1.8,0.1,1.8,60.4c0,59.6,0.1,57.3-1.6,63.6
		c-3.8,14.2-13.5,25.5-25.8,30c-6.4,2.3-4.4,2.2-44.3,2.3C7661.5,8272.4,7644.9,8272.4,7644.3,8272.3z"/>
</g>
<g transform="translate(0.000000,1280.000000) scale(0.100000,-0.100000)">
	<path class="st14" d="M6284.6,7875.6c-6.3-1.2-11.8-4.2-16.2-8.8c-12.8-13.2-13.2-35.4-0.8-49c4.1-4.5,8.8-7.4,14.9-9.3
		c3-0.9,11.5-0.8,14.8,0.2c10.5,3.1,18.5,11.3,21.9,22.2c3.1,10.1,1.7,21.4-3.7,30.2c-3,4.8-8,9.5-12.6,11.8
		C6297.1,7875.8,6290.3,7876.8,6284.6,7875.6z"/>
	<path class="st14" d="M6253.4,7801c-14.3-1.7-26-10.5-32.4-24.6c-1-2.3-2.7-7.5-3.3-10.7c-0.5-2.6-0.6-5.3-0.6-59.7
		c0-54.1,0-57,0.5-58.6c1.8-5.7,6.3-9.3,12-9.9c7.2-0.7,13.5,4.6,14.7,12.3c0.2,1.4,0.3,18.1,0.3,49.9v47.8h2.8h2.8l0.1-131.8
		c0.1-126.3,0.1-131.9,0.6-133.7c1.8-6.5,5.7-11,11.5-13.2c2-0.7,2.7-0.9,5.9-0.9c2.7,0,4.1,0.1,5.4,0.6c6,2,10.4,6.5,12.3,12.8
		l0.8,2.6l0.1,77.3l0.1,77.3h2.8h2.8v-76.8c0-84.4-0.1-78.6,1.8-82.9c2-4.5,5.9-8.2,10.5-9.9c2.1-0.7,2.9-0.9,6-0.9
		c2.7,0,4.1,0.1,5.4,0.6c5.9,1.9,10.1,6.3,12,12.4l0.8,2.6l0.1,132l0.1,132h2.8h2.8v-48.4c0-53.6-0.1-50.8,1.9-54.6
		c1.4-2.5,3.3-4.5,5.9-5.8c3.6-1.9,8.4-1.8,12.1,0.1c2.2,1.1,4.5,3.5,5.6,5.8c1.9,4,1.8,0.1,1.8,60.4c0,59.6,0.1,57.3-1.6,63.6
		c-3.8,14.2-13.5,25.5-25.8,30c-6.4,2.3-4.4,2.2-44.3,2.3C6270.5,7801,6253.9,7801,6253.4,7801z"/>
</g>
<g transform="translate(0.000000,1280.000000) scale(0.100000,-0.100000)">
	<path class="st14" d="M6454.3,7870c-6.3-1.2-11.8-4.2-16.2-8.8c-12.8-13.2-13.2-35.4-0.8-49c4.1-4.5,8.8-7.4,14.9-9.3
		c3-0.9,11.5-0.8,14.8,0.2c10.5,3.1,18.5,11.3,21.9,22.2c3.1,10.1,1.7,21.4-3.7,30.2c-3,4.8-8,9.5-12.6,11.8
		C6466.7,7870.1,6460,7871.1,6454.3,7870z"/>
	<path class="st14" d="M6423.1,7795.3c-14.3-1.7-26-10.5-32.4-24.6c-1-2.3-2.7-7.5-3.3-10.7c-0.5-2.6-0.6-5.3-0.6-59.7
		c0-54.1,0-57,0.5-58.6c1.8-5.7,6.3-9.3,12-9.9c7.2-0.7,13.5,4.6,14.7,12.3c0.2,1.4,0.3,18.1,0.3,49.9v47.8h2.8h2.8l0.1-131.8
		c0.1-126.3,0.1-131.9,0.6-133.7c1.8-6.5,5.7-11,11.5-13.2c2-0.7,2.7-0.9,5.9-0.9c2.7,0,4.1,0.1,5.4,0.6c6,2,10.4,6.5,12.3,12.8
		l0.8,2.6l0.1,77.3l0.1,77.3h2.8h2.8V7556c0-84.4-0.1-78.6,1.8-82.9c2-4.5,5.9-8.2,10.5-9.9c2.1-0.7,2.9-0.9,6-0.9
		c2.7,0,4.1,0.1,5.4,0.6c5.9,1.9,10.1,6.3,12,12.4l0.8,2.6l0.1,132l0.1,132h2.8h2.8v-48.4c0-53.6-0.1-50.8,1.9-54.6
		c1.4-2.5,3.3-4.5,5.9-5.8c3.6-1.9,8.4-1.8,12.1,0.1c2.2,1.1,4.5,3.5,5.6,5.8c1.9,4,1.8,0.1,1.8,60.4c0,59.6,0.1,57.3-1.6,63.6
		c-3.8,14.2-13.5,25.5-25.8,30c-6.4,2.3-4.4,2.2-44.3,2.3C6440.2,7795.4,6423.6,7795.4,6423.1,7795.3z"/>
</g>
<g transform="translate(0.000000,1280.000000) scale(0.100000,-0.100000)">
	<path class="st14" d="M6631.9,7867.1c-6.3-1.2-11.8-4.2-16.2-8.8c-12.8-13.2-13.2-35.4-0.8-49c4.1-4.5,8.8-7.4,14.9-9.3
		c3-0.9,11.5-0.8,14.8,0.2c10.5,3.1,18.5,11.3,21.9,22.2c3.1,10.1,1.7,21.4-3.7,30.2c-3,4.8-8,9.5-12.6,11.8
		C6644.4,7867.2,6637.6,7868.2,6631.9,7867.1z"/>
	<path class="st14" d="M6600.7,7792.4c-14.3-1.7-26-10.5-32.4-24.6c-1-2.3-2.7-7.5-3.3-10.7c-0.5-2.6-0.6-5.3-0.6-59.7
		c0-54.1,0-57,0.5-58.6c1.8-5.7,6.3-9.3,12-9.9c7.2-0.7,13.5,4.6,14.7,12.3c0.2,1.4,0.3,18.1,0.3,49.9v47.8h2.8h2.8l0.1-131.8
		c0.1-126.3,0.1-131.9,0.6-133.7c1.8-6.5,5.7-11,11.5-13.2c2-0.7,2.7-0.9,5.9-0.9c2.7,0,4.1,0.1,5.4,0.6c6,2,10.4,6.5,12.3,12.8
		l0.8,2.6l0.1,77.3l0.1,77.3h2.8h2.8v-76.8c0-84.4-0.1-78.6,1.8-82.9c2-4.5,5.9-8.2,10.5-9.9c2.1-0.7,2.9-0.9,6-0.9
		c2.7,0,4.1,0.1,5.4,0.6c5.9,1.9,10.1,6.3,12,12.4l0.8,2.6l0.1,132l0.1,132h2.8h2.8v-48.4c0-53.6-0.1-50.8,1.9-54.6
		c1.4-2.5,3.3-4.5,5.9-5.8c3.6-1.9,8.4-1.8,12.1,0.1c2.2,1.1,4.5,3.5,5.6,5.8c1.9,4,1.8,0.1,1.8,60.4c0,59.6,0.1,57.3-1.6,63.6
		c-3.8,14.2-13.5,25.5-25.8,30c-6.4,2.3-4.4,2.2-44.3,2.3C6617.8,7792.5,6601.2,7792.5,6600.7,7792.4z"/>
</g>
<g transform="translate(0.000000,1280.000000) scale(0.100000,-0.100000)">
	<path class="st14" d="M6803.8,7869.8c-6.3-1.2-11.8-4.2-16.2-8.8c-12.8-13.2-13.2-35.4-0.8-49c4.1-4.5,8.8-7.4,14.9-9.3
		c3-0.9,11.5-0.8,14.8,0.2c10.5,3.1,18.5,11.3,21.9,22.2c3.1,10.1,1.7,21.4-3.7,30.2c-3,4.8-8,9.5-12.6,11.8
		C6816.3,7869.9,6809.5,7871,6803.8,7869.8z"/>
	<path class="st14" d="M6772.6,7795.1c-14.3-1.7-26-10.5-32.4-24.6c-1-2.3-2.7-7.5-3.3-10.7c-0.5-2.6-0.6-5.3-0.6-59.7
		c0-54.1,0-57,0.5-58.6c1.8-5.7,6.3-9.3,12-9.9c7.2-0.7,13.5,4.6,14.7,12.3c0.2,1.4,0.3,18.1,0.3,49.9v47.8h2.8h2.8l0.1-131.8
		c0.1-126.3,0.1-131.9,0.6-133.7c1.8-6.5,5.7-11,11.5-13.2c2-0.7,2.7-0.9,5.9-0.9c2.7,0,4.1,0.1,5.4,0.6c6,2,10.4,6.5,12.3,12.8
		l0.8,2.6l0.1,77.3l0.1,77.3h2.8h2.8v-76.8c0-84.4-0.1-78.6,1.8-82.9c2-4.5,5.9-8.2,10.5-9.9c2.1-0.7,2.9-0.9,6-0.9
		c2.7,0,4.1,0.1,5.4,0.6c5.9,1.9,10.1,6.3,12,12.4l0.8,2.6l0.1,132l0.1,132h2.8h2.8v-48.4c0-53.6-0.1-50.8,1.9-54.6
		c1.4-2.5,3.3-4.5,5.9-5.8c3.6-1.9,8.4-1.8,12.1,0.1c2.2,1.1,4.5,3.5,5.6,5.8c1.9,4,1.8,0.1,1.8,60.4c0,59.6,0.1,57.3-1.6,63.6
		c-3.8,14.2-13.5,25.5-25.8,30c-6.4,2.3-4.4,2.2-44.3,2.3C6789.7,7795.2,6773.1,7795.2,6772.6,7795.1z"/>
</g>
<g transform="translate(0.000000,1280.000000) scale(0.100000,-0.100000)">
	<path class="st14" d="M6982.1,7870.2c-6.3-1.2-11.8-4.2-16.2-8.8c-12.8-13.2-13.2-35.4-0.8-49c4.1-4.5,8.8-7.4,14.9-9.3
		c3-0.9,11.5-0.8,14.8,0.2c10.5,3.1,18.5,11.3,21.9,22.2c3.1,10.1,1.7,21.4-3.7,30.2c-3,4.8-8,9.5-12.6,11.8
		C6994.6,7870.3,6987.8,7871.3,6982.1,7870.2z"/>
	<path class="st14" d="M6950.9,7795.5c-14.3-1.7-26-10.5-32.4-24.6c-1-2.3-2.7-7.5-3.3-10.7c-0.5-2.6-0.6-5.3-0.6-59.7
		c0-54.1,0-57,0.5-58.6c1.8-5.7,6.3-9.3,12-9.9c7.2-0.7,13.5,4.6,14.7,12.3c0.2,1.4,0.3,18.1,0.3,49.9v47.8h2.8h2.8l0.1-131.8
		c0.1-126.3,0.1-131.9,0.6-133.7c1.8-6.5,5.7-11,11.5-13.2c2-0.7,2.7-0.9,5.9-0.9c2.7,0,4.1,0.1,5.4,0.6c6,2,10.4,6.5,12.3,12.8
		l0.8,2.6l0.1,77.3l0.1,77.3h2.8h2.8v-76.8c0-84.4-0.1-78.6,1.8-82.9c2-4.5,5.9-8.2,10.5-9.9c2.1-0.7,2.9-0.9,6-0.9
		c2.7,0,4.1,0.1,5.4,0.6c5.9,1.9,10.1,6.3,12,12.4l0.8,2.6l0.1,132l0.1,132h2.8h2.8v-48.4c0-53.6-0.1-50.8,1.9-54.6
		c1.4-2.5,3.3-4.5,5.9-5.8c3.6-1.9,8.4-1.8,12.1,0.1c2.2,1.1,4.5,3.5,5.6,5.8c1.9,4,1.8,0.1,1.8,60.4c0,59.6,0.1,57.3-1.6,63.6
		c-3.8,14.2-13.5,25.5-25.8,30c-6.4,2.3-4.4,2.2-44.3,2.3C6968,7795.6,6951.4,7795.6,6950.9,7795.5z"/>
</g>
<g transform="translate(0.000000,1280.000000) scale(0.100000,-0.100000)">
	<path class="st14" d="M7160.8,7871.2c-6.3-1.2-11.8-4.2-16.2-8.8c-12.8-13.2-13.2-35.4-0.8-49c4.1-4.5,8.8-7.4,14.9-9.3
		c3-0.9,11.5-0.8,14.8,0.2c10.5,3.1,18.5,11.3,21.9,22.2c3.1,10.1,1.7,21.4-3.7,30.2c-3,4.8-8,9.5-12.6,11.8
		C7173.3,7871.3,7166.5,7872.3,7160.8,7871.2z"/>
	<path class="st14" d="M7129.6,7796.5c-14.3-1.7-26-10.5-32.4-24.6c-1-2.3-2.7-7.5-3.3-10.7c-0.5-2.6-0.6-5.3-0.6-59.7
		c0-54.1,0-57,0.5-58.6c1.8-5.7,6.3-9.3,12-9.9c7.2-0.7,13.5,4.6,14.7,12.3c0.2,1.4,0.3,18.1,0.3,49.9v47.8h2.8h2.8l0.1-131.8
		c0.1-126.3,0.1-131.9,0.6-133.7c1.8-6.5,5.7-11,11.5-13.2c2-0.7,2.7-0.9,5.9-0.9c2.7,0,4.1,0.1,5.4,0.6c6,2,10.4,6.5,12.3,12.8
		l0.8,2.6l0.1,77.3l0.1,77.3h2.8h2.8v-76.8c0-84.4-0.1-78.6,1.8-82.9c2-4.5,5.9-8.2,10.5-9.9c2.1-0.7,2.9-0.9,6-0.9
		c2.7,0,4.1,0.1,5.4,0.6c5.9,1.9,10.1,6.3,12,12.4l0.8,2.6l0.1,132l0.1,132h2.8h2.8v-48.4c0-53.6-0.1-50.8,1.9-54.6
		c1.4-2.5,3.3-4.5,5.9-5.8c3.6-1.9,8.4-1.8,12.1,0.1c2.2,1.1,4.5,3.5,5.6,5.8c1.9,4,1.8,0.1,1.8,60.4c0,59.6,0.1,57.3-1.6,63.6
		c-3.8,14.2-13.5,25.5-25.8,30c-6.4,2.3-4.4,2.2-44.3,2.3C7146.8,7796.6,7130.2,7796.5,7129.6,7796.5z"/>
</g>
<g transform="translate(0.000000,1280.000000) scale(0.100000,-0.100000)">
	<path class="st14" d="M7332.2,7870.7c-6.3-1.2-11.8-4.2-16.2-8.8c-12.8-13.2-13.2-35.4-0.8-49c4.1-4.5,8.8-7.4,14.9-9.3
		c3-0.9,11.5-0.8,14.8,0.2c10.5,3.1,18.5,11.3,21.9,22.2c3.1,10.1,1.7,21.4-3.7,30.2c-3,4.8-8,9.5-12.6,11.8
		C7344.6,7870.8,7337.9,7871.9,7332.2,7870.7z"/>
	<path class="st14" d="M7301,7796c-14.3-1.7-26-10.5-32.4-24.6c-1-2.3-2.7-7.5-3.3-10.7c-0.5-2.6-0.6-5.3-0.6-59.7
		c0-54.1,0-57,0.5-58.6c1.8-5.7,6.3-9.3,12-9.9c7.2-0.7,13.5,4.6,14.7,12.3c0.2,1.4,0.3,18.1,0.3,49.9v47.8h2.8h2.8l0.1-131.8
		c0.1-126.3,0.1-131.9,0.6-133.7c1.8-6.5,5.7-11,11.5-13.2c2-0.7,2.7-0.9,5.9-0.9c2.7,0,4.1,0.1,5.4,0.6c6,2,10.4,6.5,12.3,12.8
		l0.8,2.6l0.1,77.3l0.1,77.3h2.8h2.8v-76.8c0-84.4-0.1-78.6,1.8-82.9c2-4.5,5.9-8.2,10.5-9.9c2.1-0.7,2.9-0.9,6-0.9
		c2.7,0,4.1,0.1,5.4,0.6c5.9,1.9,10.1,6.3,12,12.4l0.8,2.6l0.1,132l0.1,132h2.8h2.8v-48.4c0-53.6-0.1-50.8,1.9-54.6
		c1.4-2.5,3.3-4.5,5.9-5.8c3.6-1.9,8.4-1.8,12.1,0.1c2.2,1.1,4.5,3.5,5.6,5.8c1.9,4,1.8,0.1,1.8,60.4c0,59.6,0.1,57.3-1.6,63.6
		c-3.8,14.2-13.5,25.5-25.8,30c-6.4,2.3-4.4,2.2-44.3,2.3C7318.1,7796.1,7301.5,7796.1,7301,7796z"/>
</g>
<g transform="translate(0.000000,1280.000000) scale(0.100000,-0.100000)">
	<path class="st14" d="M7500.4,7871.4c-6.3-1.2-11.8-4.2-16.2-8.8c-12.8-13.2-13.2-35.4-0.8-49c4.1-4.5,8.8-7.4,14.9-9.3
		c3-0.9,11.5-0.8,14.8,0.2c10.5,3.1,18.5,11.3,21.9,22.2c3.1,10.1,1.7,21.4-3.7,30.2c-3,4.8-8,9.5-12.6,11.8
		C7512.8,7871.6,7506.1,7872.6,7500.4,7871.4z"/>
	<path class="st14" d="M7469.2,7796.8c-14.3-1.7-26-10.5-32.4-24.6c-1-2.3-2.7-7.5-3.3-10.7c-0.5-2.6-0.6-5.3-0.6-59.7
		c0-54.1,0-57,0.5-58.6c1.8-5.7,6.3-9.3,12-9.9c7.2-0.7,13.5,4.6,14.7,12.3c0.2,1.4,0.3,18.1,0.3,49.9v47.8h2.8h2.8l0.1-131.8
		c0.1-126.3,0.1-131.9,0.6-133.7c1.8-6.5,5.7-11,11.5-13.2c2-0.7,2.7-0.9,5.9-0.9c2.7,0,4.1,0.1,5.4,0.6c6,2,10.4,6.5,12.3,12.8
		l0.8,2.6l0.1,77.3l0.1,77.3h2.8h2.8v-76.8c0-84.4-0.1-78.6,1.8-82.9c2-4.5,5.9-8.2,10.5-9.9c2.1-0.7,2.9-0.9,6-0.9
		c2.7,0,4.1,0.1,5.4,0.6c5.9,1.9,10.1,6.3,12,12.4l0.8,2.6l0.1,132l0.1,132h2.8h2.8V7695c0-53.6-0.1-50.8,1.9-54.6
		c1.4-2.5,3.3-4.5,5.9-5.8c3.6-1.9,8.4-1.8,12.1,0.1c2.2,1.1,4.5,3.5,5.6,5.8c1.9,4,1.8,0.1,1.8,60.4c0,59.6,0.1,57.3-1.6,63.6
		c-3.8,14.2-13.5,25.5-25.8,30c-6.4,2.3-4.4,2.2-44.3,2.3C7486.3,7796.9,7469.7,7796.8,7469.2,7796.8z"/>
</g>
<g transform="translate(0.000000,1280.000000) scale(0.100000,-0.100000)">
	<path class="st14" d="M7665.5,7869.9c-6.3-1.2-11.8-4.2-16.2-8.8c-12.8-13.2-13.2-35.4-0.8-49c4.1-4.5,8.8-7.4,14.9-9.3
		c3-0.9,11.5-0.8,14.8,0.2c10.5,3.1,18.5,11.3,21.9,22.2c3.1,10.1,1.7,21.4-3.7,30.2c-3,4.8-8,9.5-12.6,11.8
		C7678,7870.1,7671.2,7871.1,7665.5,7869.9z"/>
	<path class="st14" d="M7634.3,7795.3c-14.3-1.7-26-10.5-32.4-24.6c-1-2.3-2.7-7.5-3.3-10.7c-0.5-2.6-0.6-5.3-0.6-59.7
		c0-54.1,0-57,0.5-58.6c1.8-5.7,6.3-9.3,12-9.9c7.2-0.7,13.5,4.6,14.7,12.3c0.2,1.4,0.3,18.1,0.3,49.9v47.8h2.8h2.8l0.1-131.8
		c0.1-126.3,0.1-131.9,0.6-133.7c1.8-6.5,5.7-11,11.5-13.2c2-0.7,2.7-0.9,5.9-0.9c2.7,0,4.1,0.1,5.4,0.6c6,2,10.4,6.5,12.3,12.8
		l0.8,2.6l0.1,77.3l0.1,77.3h2.8h2.8V7556c0-84.4-0.1-78.6,1.8-82.9c2-4.5,5.9-8.2,10.5-9.9c2.1-0.7,2.9-0.9,6-0.9
		c2.7,0,4.1,0.1,5.4,0.6c5.9,1.9,10.1,6.3,12,12.4l0.8,2.6l0.1,132l0.1,132h2.8h2.8v-48.4c0-53.6-0.1-50.8,1.9-54.6
		c1.4-2.5,3.3-4.5,5.9-5.8c3.6-1.9,8.4-1.8,12.1,0.1c2.2,1.1,4.5,3.5,5.6,5.8c1.9,4,1.8,0.1,1.8,60.4c0,59.6,0.1,57.3-1.6,63.6
		c-3.8,14.2-13.5,25.5-25.8,30c-6.4,2.3-4.4,2.2-44.3,2.3C7651.5,7795.3,7634.9,7795.3,7634.3,7795.3z"/>
</g>
<rect x="812.2" y="12.7" width="19.6" height="19.6"/>
<rect x="812.2" y="38.9" class="st14" width="19.6" height="19.6"/>
<text transform="matrix(1 0 0 1 840.2972 28.5867)" class="st12 st7">Fallecidos  </text>
<text transform="matrix(1 0 0 1 840.8099 53.634)" class="st12 st7">Sobrevivientes</text>
</svg>
