<?xml version="1.0" encoding="utf-8"?>
<!-- Generator: Adobe Illustrator 24.2.3, SVG Export Plug-In . SVG Version: 6.00 Build 0)  -->
<svg version="1.1" xmlns="http://www.w3.org/2000/svg" xmlns:xlink="http://www.w3.org/1999/xlink" x="0px" y="0px"
	 viewBox="0 0 1137.9 774.7" style="enable-background:new 0 0 1137.9 774.7;" xml:space="preserve">
<style type="text/css">
	.st0{fill:#F9F9F9;}
	.st1{font-family:'MyriadPro-Regular';}
	.st2{font-size:14px;}
	.st3{fill:#0C0B0B;}
	.st4{font-size:19px;}
	.st5{fill:#0F0E0E;}
	.st6{fill:#070606;}
	.st7{fill:none;}
	.st8{fill:none;stroke:#000000;stroke-miterlimit:10;}
	.st9{fill:none;stroke:#555555;stroke-width:2;stroke-miterlimit:10;}
	.st10{font-size:13.0805px;}
</style>
<g id="Capa_1_xA0_Imagen_1_">
	
		<image style="overflow:visible;" width="4462" height="3039" xlink:href="90DAF5489B915C46.png"  transform="matrix(0.2568 0 0 0.2568 -6.3073 -3.2904)">
	</image>
	<rect x="988" y="51.2" class="st0" width="64.9" height="28"/>
	<rect x="667.4" y="588.2" class="st0" width="185.3" height="75.4"/>
	<rect x="574.7" y="429.5" class="st0" width="138.2" height="29.8"/>
	<rect x="499.3" y="142.8" class="st0" width="138.2" height="29.8"/>
	
		<image style="overflow:visible;" width="4567" height="2704" xlink:href="90DAF5489B915C4A.png"  transform="matrix(0.102 0 0 0.1089 18.7215 10.6246)">
	</image>
	<text transform="matrix(1 0 0 1 375.0078 91.5764)" class="st1 st2">Lugar del impacto</text>
	<text transform="matrix(1 0 0 1 285.1385 231.5878)" class="st1 st2">Argentina </text>
	<text transform="matrix(1 0 0 1 415.2905 216.2708)" class="st1 st2">Chile</text>
	<text transform="matrix(1 0 0 1 672.1171 611.7471)"><tspan x="0" y="0" class="st3 st1 st4">Último reporte donde</tspan><tspan x="0" y="22.8" class="st3 st1 st4"> piloto indica volar</tspan><tspan x="0" y="45.6" class="st3 st1 st4"> sobre Curicó</tspan></text>
	<text transform="matrix(1 0 0 1 578.3725 450.4127)" class="st5 st1 st4">Zona de impacto</text>
	<text transform="matrix(1 0 0 1 505.0929 165.6707)" class="st6 st1 st4">Destino original</text>
	<text transform="matrix(1 0 0 1 992.8594 72.9829)" class="st6 st1 st4">Salida</text>
	<line class="st7" x1="361.6" y1="93" x2="360.9" y2="19.5"/>
	<line class="st8" x1="364.2" y1="95.2" x2="363.5" y2="21.7"/>
	<line class="st8" x1="208.6" y1="79.4" x2="209" y2="23.4"/>
	<path class="st9" d="M370,105c0,40.7-36.3,73.7-81.1,73.7"/>
	<text transform="matrix(1 0 0 1 192.0801 174.7223)"><tspan x="0" y="0" class="st1 st2">Fusilaje varado </tspan><tspan x="0" y="16.8" class="st1 st2">tras deslizarse </tspan></text>
	<text transform="matrix(1.0703 0 0 1 368.9994 32.3845)" class="st1 st10">4400m</text>
	<text transform="matrix(1.0703 0 0 1 217.7633 30.4155)"><tspan x="0" y="0" class="st1 st10">Seler</tspan><tspan x="0" y="15.7" class="st1 st10">4667m</tspan></text>
	<text transform="matrix(1 0 0 1 291.9093 115.3312)" class="st1 st2">3500m </text>
	<line class="st8" x1="289.2" y1="179.2" x2="288.5" y2="105.7"/>
</g>
<g id="Capa_2_xA0_Imagen_1_">
	
		<image style="overflow:visible;" width="2970" height="3248" xlink:href="90DAF5489B915C4D.png"  transform="matrix(0.2693 0 0 0.2605 280.7105 -30.7791)">
	</image>
</g>
<g id="Capa_3_xA0_Imagen_1_">
	
		<image style="overflow:visible;" width="4536" height="3297" xlink:href="90DAF5489B915C4E.png"  transform="matrix(0.24 0 0 0.24 17.1048 -0.1791)">
	</image>
</g>
</svg>
