<?xml version="1.0" encoding="utf-8"?>
<!-- Generator: Adobe Illustrator 24.2.3, SVG Export Plug-In . SVG Version: 6.00 Build 0)  -->
<svg version="1.1" id="Capa_1" xmlns="http://www.w3.org/2000/svg" xmlns:xlink="http://www.w3.org/1999/xlink" x="0px" y="0px"
	 viewBox="0 0 930.5 702.9" style="enable-background:new 0 0 930.5 702.9;" xml:space="preserve">
<style type="text/css">
	.st0{opacity:0.97;fill:#FFFFFF;}
	.st1{fill:#D467EB;}
	.st2{fill:#E69717;}
	.st3{fill:#6385D1;}
	.st4{fill:none;stroke:#000000;}
	.st5{font-family:'Helvetica';}
	.st6{font-size:10px;}
	.st7{font-family:'Arial-BoldMT';}
	.st8{font-size:12px;}
	.st9{fill:none;stroke:#CCCCCC;}
	.st10{font-family:'ArialMT';}
	.st11{enable-background:new    ;}
</style>
<rect id="backgorund" y="0" class="st0" width="930.2" height="673.2"/>
<g id="viz">
	<g transform="translate(0,0)">
		<g transform="translate(50,20)">
			<g id="Sobrevivientes">
				<polygon class="st1" points="1,560 10.2,560 10.2,560 				"/>
				<rect x="11.2" y="161.8" class="st1" width="9.2" height="398.2"/>
				<rect x="21.4" y="211.6" class="st1" width="9.2" height="348.4"/>
				<rect x="31.6" y="211.6" class="st1" width="9.2" height="348.4"/>
				<rect x="41.8" y="211.6" class="st1" width="9.2" height="348.4"/>
				<rect x="52" y="211.6" class="st1" width="9.2" height="348.4"/>
				<rect x="62.1" y="211.6" class="st1" width="9.2" height="348.4"/>
				<rect x="72.3" y="211.6" class="st1" width="9.2" height="348.4"/>
				<rect x="82.5" y="211.6" class="st1" width="9.2" height="348.4"/>
				<rect x="92.7" y="224" class="st1" width="9.2" height="336"/>
				<rect x="102.9" y="224" class="st1" width="9.2" height="336"/>
				<rect x="113.1" y="224" class="st1" width="9.2" height="336"/>
				<rect x="123.3" y="224" class="st1" width="9.2" height="336"/>
				<rect x="133.5" y="224" class="st1" width="9.2" height="336"/>
				<rect x="143.7" y="224" class="st1" width="9.2" height="336"/>
				<rect x="153.9" y="224" class="st1" width="9.2" height="336"/>
				<rect x="164.1" y="224" class="st1" width="9.2" height="336"/>
				<rect x="174.3" y="323.6" class="st1" width="9.2" height="236.4"/>
				<rect x="184.5" y="323.6" class="st1" width="9.2" height="236.4"/>
				<rect x="194.6" y="323.6" class="st1" width="9.2" height="236.4"/>
				<rect x="204.8" y="323.6" class="st1" width="9.2" height="236.4"/>
				<rect x="215" y="323.6" class="st1" width="9.2" height="236.4"/>
				<rect x="225.2" y="323.6" class="st1" width="9.2" height="236.4"/>
				<rect x="235.4" y="323.6" class="st1" width="9.2" height="236.4"/>
				<rect x="245.6" y="323.6" class="st1" width="9.2" height="236.4"/>
				<rect x="255.8" y="323.6" class="st1" width="9.2" height="236.4"/>
				<rect x="266" y="323.6" class="st1" width="9.2" height="236.4"/>
				<rect x="276.2" y="323.6" class="st1" width="9.2" height="236.4"/>
				<rect x="286.4" y="323.6" class="st1" width="9.2" height="236.4"/>
				<rect x="296.6" y="323.6" class="st1" width="9.2" height="236.4"/>
				<rect x="306.8" y="323.6" class="st1" width="9.2" height="236.4"/>
				<rect x="316.9" y="323.6" class="st1" width="9.2" height="236.4"/>
				<rect x="327.1" y="323.6" class="st1" width="9.2" height="236.4"/>
				<rect x="337.3" y="323.6" class="st1" width="9.2" height="236.4"/>
				<rect x="347.5" y="336" class="st1" width="9.2" height="224"/>
				<rect x="357.7" y="336" class="st1" width="9.2" height="224"/>
				<rect x="367.9" y="336" class="st1" width="9.2" height="224"/>
				<rect x="378.1" y="348.4" class="st1" width="9.2" height="211.6"/>
				<rect x="388.3" y="348.4" class="st1" width="9.2" height="211.6"/>
				<rect x="398.5" y="348.4" class="st1" width="9.2" height="211.6"/>
				<rect x="408.7" y="348.4" class="st1" width="9.2" height="211.6"/>
				<rect x="418.9" y="348.4" class="st1" width="9.2" height="211.6"/>
				<rect x="429.1" y="348.4" class="st1" width="9.2" height="211.6"/>
				<rect x="439.2" y="348.4" class="st1" width="9.2" height="211.6"/>
				<rect x="449.4" y="348.4" class="st1" width="9.2" height="211.6"/>
				<rect x="459.6" y="348.4" class="st1" width="9.2" height="211.6"/>
				<rect x="469.8" y="348.4" class="st1" width="9.2" height="211.6"/>
				<rect x="480" y="348.4" class="st1" width="9.2" height="211.6"/>
				<rect x="490.2" y="348.4" class="st1" width="9.2" height="211.6"/>
				<rect x="500.4" y="348.4" class="st1" width="9.2" height="211.6"/>
				<rect x="510.6" y="348.4" class="st1" width="9.2" height="211.6"/>
				<rect x="520.8" y="348.4" class="st1" width="9.2" height="211.6"/>
				<rect x="531" y="348.4" class="st1" width="9.2" height="211.6"/>
				<rect x="541.2" y="348.4" class="st1" width="9.2" height="211.6"/>
				<rect x="551.4" y="348.4" class="st1" width="9.2" height="211.6"/>
				<rect x="561.5" y="348.4" class="st1" width="9.2" height="211.6"/>
				<rect x="571.7" y="348.4" class="st1" width="9.2" height="211.6"/>
				<rect x="581.9" y="348.4" class="st1" width="9.2" height="211.6"/>
				<rect x="592.1" y="348.4" class="st1" width="9.2" height="211.6"/>
				<rect x="602.3" y="348.4" class="st1" width="9.2" height="211.6"/>
				<rect x="612.5" y="360.9" class="st1" width="9.2" height="199.1"/>
				<rect x="622.7" y="360.9" class="st1" width="9.2" height="199.1"/>
				<rect x="632.9" y="360.9" class="st1" width="9.2" height="199.1"/>
				<rect x="643.1" y="360.9" class="st1" width="9.2" height="199.1"/>
				<rect x="653.3" y="360.9" class="st1" width="9.2" height="199.1"/>
				<rect x="663.5" y="360.9" class="st1" width="9.2" height="199.1"/>
				<rect x="673.7" y="360.9" class="st1" width="9.2" height="199.1"/>
				<rect x="683.8" y="360.9" class="st1" width="9.2" height="199.1"/>
				<rect x="694" y="360.9" class="st1" width="9.2" height="199.1"/>
				<rect x="704.2" y="360.9" class="st1" width="9.2" height="199.1"/>
				<rect x="714.4" y="360.9" class="st1" width="9.2" height="199.1"/>
				<rect x="724.6" y="360.9" class="st1" width="9.2" height="199.1"/>
				<rect x="734.8" y="360.9" class="st1" width="9.2" height="199.1"/>
			</g>
			<g id="Desaparecidos">
				<rect x="1" y="0" class="st2" width="9.2" height="560"/>
				<rect x="11.2" y="74.7" class="st2" width="9.2" height="87.1"/>
				<rect x="21.4" y="124.4" class="st2" width="9.2" height="87.1"/>
				<rect x="31.6" y="124.4" class="st2" width="9.2" height="87.1"/>
				<rect x="41.8" y="124.4" class="st2" width="9.2" height="87.1"/>
				<rect x="52" y="124.4" class="st2" width="9.2" height="87.1"/>
				<rect x="62.1" y="124.4" class="st2" width="9.2" height="87.1"/>
				<rect x="72.3" y="124.4" class="st2" width="9.2" height="87.1"/>
				<rect x="82.5" y="124.4" class="st2" width="9.2" height="87.1"/>
				<rect x="92.7" y="136.9" class="st2" width="9.2" height="87.1"/>
				<rect x="102.9" y="136.9" class="st2" width="9.2" height="87.1"/>
				<rect x="113.1" y="136.9" class="st2" width="9.2" height="87.1"/>
				<rect x="123.3" y="199.1" class="st2" width="9.2" height="24.9"/>
				<rect x="133.5" y="199.1" class="st2" width="9.2" height="24.9"/>
				<rect x="143.7" y="199.1" class="st2" width="9.2" height="24.9"/>
				<rect x="153.9" y="199.1" class="st2" width="9.2" height="24.9"/>
				<rect x="164.1" y="199.1" class="st2" width="9.2" height="24.9"/>
				<rect x="174.3" y="298.7" class="st2" width="9.2" height="24.9"/>
				<rect x="184.5" y="298.7" class="st2" width="9.2" height="24.9"/>
				<rect x="194.6" y="298.7" class="st2" width="9.2" height="24.9"/>
				<rect x="204.8" y="298.7" class="st2" width="9.2" height="24.9"/>
				<rect x="215" y="298.7" class="st2" width="9.2" height="24.9"/>
				<rect x="225.2" y="298.7" class="st2" width="9.2" height="24.9"/>
				<rect x="235.4" y="298.7" class="st2" width="9.2" height="24.9"/>
				<rect x="245.6" y="298.7" class="st2" width="9.2" height="24.9"/>
				<rect x="255.8" y="298.7" class="st2" width="9.2" height="24.9"/>
				<rect x="266" y="298.7" class="st2" width="9.2" height="24.9"/>
				<rect x="276.2" y="298.7" class="st2" width="9.2" height="24.9"/>
				<rect x="286.4" y="298.7" class="st2" width="9.2" height="24.9"/>
				<rect x="296.6" y="298.7" class="st2" width="9.2" height="24.9"/>
				<rect x="306.8" y="298.7" class="st2" width="9.2" height="24.9"/>
				<rect x="316.9" y="298.7" class="st2" width="9.2" height="24.9"/>
				<rect x="327.1" y="298.7" class="st2" width="9.2" height="24.9"/>
				<rect x="337.3" y="298.7" class="st2" width="9.2" height="24.9"/>
				<rect x="347.5" y="311.1" class="st2" width="9.2" height="24.9"/>
				<rect x="357.7" y="311.1" class="st2" width="9.2" height="24.9"/>
				<rect x="367.9" y="311.1" class="st2" width="9.2" height="24.9"/>
				<rect x="378.1" y="323.6" class="st2" width="9.2" height="24.9"/>
				<rect x="388.3" y="323.6" class="st2" width="9.2" height="24.9"/>
				<rect x="398.5" y="323.6" class="st2" width="9.2" height="24.9"/>
				<rect x="408.7" y="323.6" class="st2" width="9.2" height="24.9"/>
				<rect x="418.9" y="323.6" class="st2" width="9.2" height="24.9"/>
				<rect x="429.1" y="323.6" class="st2" width="9.2" height="24.9"/>
				<rect x="439.2" y="323.6" class="st2" width="9.2" height="24.9"/>
				<rect x="449.4" y="323.6" class="st2" width="9.2" height="24.9"/>
				<rect x="459.6" y="323.6" class="st2" width="9.2" height="24.9"/>
				<rect x="469.8" y="323.6" class="st2" width="9.2" height="24.9"/>
				<rect x="480" y="323.6" class="st2" width="9.2" height="24.9"/>
				<rect x="490.2" y="323.6" class="st2" width="9.2" height="24.9"/>
				<rect x="500.4" y="323.6" class="st2" width="9.2" height="24.9"/>
				<rect x="510.6" y="323.6" class="st2" width="9.2" height="24.9"/>
				<rect x="520.8" y="323.6" class="st2" width="9.2" height="24.9"/>
				<rect x="531" y="323.6" class="st2" width="9.2" height="24.9"/>
				<rect x="541.2" y="323.6" class="st2" width="9.2" height="24.9"/>
				<rect x="551.4" y="323.6" class="st2" width="9.2" height="24.9"/>
				<rect x="561.5" y="323.6" class="st2" width="9.2" height="24.9"/>
				<rect x="571.7" y="323.6" class="st2" width="9.2" height="24.9"/>
				<rect x="581.9" y="323.6" class="st2" width="9.2" height="24.9"/>
				<rect x="592.1" y="323.6" class="st2" width="9.2" height="24.9"/>
				<rect x="602.3" y="323.6" class="st2" width="9.2" height="24.9"/>
				<rect x="612.5" y="336" class="st2" width="9.2" height="24.9"/>
				<rect x="622.7" y="336" class="st2" width="9.2" height="24.9"/>
				<rect x="632.9" y="348.4" class="st2" width="9.2" height="12.4"/>
				<polygon class="st2" points="643.1,360.9 652.3,360.9 652.3,360.9 				"/>
				<polygon class="st2" points="653.3,360.9 662.5,360.9 662.5,360.9 				"/>
				<polygon class="st2" points="663.5,360.9 672.7,360.9 672.7,360.9 				"/>
				<polygon class="st2" points="673.7,360.9 682.9,360.9 682.9,360.9 				"/>
				<polygon class="st2" points="683.8,360.9 693,360.9 693,360.9 				"/>
				<polygon class="st2" points="694,360.9 703.2,360.9 703.2,360.9 				"/>
				<polygon class="st2" points="704.2,360.9 713.4,360.9 713.4,360.9 				"/>
				<polygon class="st2" points="714.4,360.9 723.6,360.9 723.6,360.9 				"/>
				<polygon class="st2" points="724.6,360.9 733.8,360.9 733.8,360.9 				"/>
				<polygon class="st2" points="734.8,360.9 744,360.9 744,360.9 				"/>
			</g>
			<g id="Muertos">
				<polygon class="st3" points="1,0 10.2,0 10.2,0 				"/>
				<rect x="11.2" y="0" class="st3" width="9.2" height="74.7"/>
				<rect x="21.4" y="0" class="st3" width="9.2" height="124.4"/>
				<rect x="31.6" y="0" class="st3" width="9.2" height="124.4"/>
				<rect x="41.8" y="0" class="st3" width="9.2" height="124.4"/>
				<rect x="52" y="0" class="st3" width="9.2" height="124.4"/>
				<rect x="62.1" y="0" class="st3" width="9.2" height="124.4"/>
				<rect x="72.3" y="0" class="st3" width="9.2" height="124.4"/>
				<rect x="82.5" y="0" class="st3" width="9.2" height="124.4"/>
				<rect x="92.7" y="0" class="st3" width="9.2" height="136.9"/>
				<rect x="102.9" y="0" class="st3" width="9.2" height="136.9"/>
				<rect x="113.1" y="0" class="st3" width="9.2" height="136.9"/>
				<rect x="123.3" y="0" class="st3" width="9.2" height="199.1"/>
				<rect x="133.5" y="0" class="st3" width="9.2" height="199.1"/>
				<rect x="143.7" y="0" class="st3" width="9.2" height="199.1"/>
				<rect x="153.9" y="0" class="st3" width="9.2" height="199.1"/>
				<rect x="164.1" y="0" class="st3" width="9.2" height="199.1"/>
				<rect x="174.3" y="0" class="st3" width="9.2" height="298.7"/>
				<rect x="184.5" y="0" class="st3" width="9.2" height="298.7"/>
				<rect x="194.6" y="0" class="st3" width="9.2" height="298.7"/>
				<rect x="204.8" y="0" class="st3" width="9.2" height="298.7"/>
				<rect x="215" y="0" class="st3" width="9.2" height="298.7"/>
				<rect x="225.2" y="0" class="st3" width="9.2" height="298.7"/>
				<rect x="235.4" y="0" class="st3" width="9.2" height="298.7"/>
				<rect x="245.6" y="0" class="st3" width="9.2" height="298.7"/>
				<rect x="255.8" y="0" class="st3" width="9.2" height="298.7"/>
				<rect x="266" y="0" class="st3" width="9.2" height="298.7"/>
				<rect x="276.2" y="0" class="st3" width="9.2" height="298.7"/>
				<rect x="286.4" y="0" class="st3" width="9.2" height="298.7"/>
				<rect x="296.6" y="0" class="st3" width="9.2" height="298.7"/>
				<rect x="306.8" y="0" class="st3" width="9.2" height="298.7"/>
				<rect x="316.9" y="0" class="st3" width="9.2" height="298.7"/>
				<rect x="327.1" y="0" class="st3" width="9.2" height="298.7"/>
				<rect x="337.3" y="0" class="st3" width="9.2" height="298.7"/>
				<rect x="347.5" y="0" class="st3" width="9.2" height="311.1"/>
				<rect x="357.7" y="0" class="st3" width="9.2" height="311.1"/>
				<rect x="367.9" y="0" class="st3" width="9.2" height="311.1"/>
				<rect x="378.1" y="0" class="st3" width="9.2" height="323.6"/>
				<rect x="388.3" y="0" class="st3" width="9.2" height="323.6"/>
				<rect x="398.5" y="0" class="st3" width="9.2" height="323.6"/>
				<rect x="408.7" y="0" class="st3" width="9.2" height="323.6"/>
				<rect x="418.9" y="0" class="st3" width="9.2" height="323.6"/>
				<rect x="429.1" y="0" class="st3" width="9.2" height="323.6"/>
				<rect x="439.2" y="0" class="st3" width="9.2" height="323.6"/>
				<rect x="449.4" y="0" class="st3" width="9.2" height="323.6"/>
				<rect x="459.6" y="0" class="st3" width="9.2" height="323.6"/>
				<rect x="469.8" y="0" class="st3" width="9.2" height="323.6"/>
				<rect x="480" y="0" class="st3" width="9.2" height="323.6"/>
				<rect x="490.2" y="0" class="st3" width="9.2" height="323.6"/>
				<rect x="500.4" y="0" class="st3" width="9.2" height="323.6"/>
				<rect x="510.6" y="0" class="st3" width="9.2" height="323.6"/>
				<rect x="520.8" y="0" class="st3" width="9.2" height="323.6"/>
				<rect x="531" y="0" class="st3" width="9.2" height="323.6"/>
				<rect x="541.2" y="0" class="st3" width="9.2" height="323.6"/>
				<rect x="551.4" y="0" class="st3" width="9.2" height="323.6"/>
				<rect x="561.5" y="0" class="st3" width="9.2" height="323.6"/>
				<rect x="571.7" y="0" class="st3" width="9.2" height="323.6"/>
				<rect x="581.9" y="0" class="st3" width="9.2" height="323.6"/>
				<rect x="592.1" y="0" class="st3" width="9.2" height="323.6"/>
				<rect x="602.3" y="0" class="st3" width="9.2" height="323.6"/>
				<rect x="612.5" y="0" class="st3" width="9.2" height="336"/>
				<rect x="622.7" y="0" class="st3" width="9.2" height="336"/>
				<rect x="632.9" y="0" class="st3" width="9.2" height="348.4"/>
				<rect x="643.1" y="0" class="st3" width="9.2" height="360.9"/>
				<rect x="653.3" y="0" class="st3" width="9.2" height="360.9"/>
				<rect x="663.5" y="0" class="st3" width="9.2" height="360.9"/>
				<rect x="673.7" y="0" class="st3" width="9.2" height="360.9"/>
				<rect x="683.8" y="0" class="st3" width="9.2" height="360.9"/>
				<rect x="694" y="0" class="st3" width="9.2" height="360.9"/>
				<rect x="704.2" y="0" class="st3" width="9.2" height="360.9"/>
				<rect x="714.4" y="0" class="st3" width="9.2" height="360.9"/>
				<rect x="724.6" y="0" class="st3" width="9.2" height="360.9"/>
				<rect x="734.8" y="0" class="st3" width="9.2" height="360.9"/>
			</g>
			<g id="xAxis" transform="translate(0,560)">
				<path class="st4" d="M0,0h745"/>
				<g transform="translate(5.595229351059604,0)">
					<line class="st4" x1="0" y1="0" x2="0" y2="6"/>
					<text transform="matrix(1 0 0 1 -2.7808 16.1)" class="st5 st6">0</text>
				</g>
				<g transform="translate(56.554225274523546,0)">
					<line class="st4" x1="0" y1="0" x2="0" y2="6"/>
					<text transform="matrix(1 0 0 1 -2.7808 16.1)" class="st5 st6">5</text>
				</g>
				<g transform="translate(107.51322119798749,0)">
					<line class="st4" x1="0" y1="0" x2="0" y2="6"/>
					<text transform="matrix(1 0 0 1 -5.5615 16.1)" class="st5 st6">10</text>
				</g>
				<g transform="translate(158.47221712145142,0)">
					<line class="st4" x1="0" y1="0" x2="0" y2="6"/>
					<text transform="matrix(1 0 0 1 -5.5615 16.1)" class="st5 st6">15</text>
				</g>
				<g transform="translate(209.43121304491538,0)">
					<line class="st4" x1="0" y1="0" x2="0" y2="6"/>
					<text transform="matrix(1 0 0 1 -5.5615 16.1)" class="st5 st6">20</text>
				</g>
				<g transform="translate(260.39020896837934,0)">
					<line class="st4" x1="0" y1="0" x2="0" y2="6"/>
					<text transform="matrix(1 0 0 1 -5.5615 16.1)" class="st5 st6">25</text>
				</g>
				<g transform="translate(311.34920489184327,0)">
					<line class="st4" x1="0" y1="0" x2="0" y2="6"/>
					<text transform="matrix(1 0 0 1 -5.5615 16.1)" class="st5 st6">30</text>
				</g>
				<g transform="translate(362.30820081530726,0)">
					<line class="st4" x1="0" y1="0" x2="0" y2="6"/>
					<text transform="matrix(1 0 0 1 -5.5615 16.1)" class="st5 st6">35</text>
				</g>
				<g transform="translate(413.2671967387712,0)">
					<line class="st4" x1="0" y1="0" x2="0" y2="6"/>
					<text transform="matrix(1 0 0 1 -5.5615 16.1)" class="st5 st6">40</text>
				</g>
				<g transform="translate(464.2261926622351,0)">
					<line class="st4" x1="0" y1="0" x2="0" y2="6"/>
					<text transform="matrix(1 0 0 1 -5.5615 16.1)" class="st5 st6">45</text>
				</g>
				<g transform="translate(515.185188585699,0)">
					<line class="st4" x1="0" y1="0" x2="0" y2="6"/>
					<text transform="matrix(1 0 0 1 -5.5615 16.1)" class="st5 st6">50</text>
				</g>
				<g transform="translate(566.144184509163,0)">
					<line class="st4" x1="0" y1="0" x2="0" y2="6"/>
					<text transform="matrix(1 0 0 1 -5.5615 16.1)" class="st5 st6">55</text>
				</g>
				<g transform="translate(617.1031804326268,0)">
					<line class="st4" x1="0" y1="0" x2="0" y2="6"/>
					<text transform="matrix(1 0 0 1 -5.5615 16.1)" class="st5 st6">60</text>
				</g>
				<g transform="translate(668.0621763560908,0)">
					<line class="st4" x1="0" y1="0" x2="0" y2="6"/>
					<text transform="matrix(1 0 0 1 -5.5615 16.1)" class="st5 st6">65</text>
				</g>
				<g transform="translate(719.0211722795549,0)">
					<line class="st4" x1="0" y1="0" x2="0" y2="6"/>
					<text transform="matrix(1 0 0 1 -5.5615 16.1)" class="st5 st6">70</text>
				</g>
			</g>
			<g id="yAxis">
				<path class="st4" d="M0,560V0"/>
				<g transform="translate(0,560)">
					<line class="st4" x1="0" y1="0" x2="-6" y2="0"/>
					<text transform="matrix(1 0 0 1 -14.5615 3.2)" class="st5 st6">0</text>
				</g>
				<g transform="translate(0,497.77777777777777)">
					<line class="st4" x1="0" y1="0" x2="-6" y2="0"/>
					<text transform="matrix(1 0 0 1 -14.5615 3.2)" class="st5 st6">5</text>
				</g>
				<g transform="translate(0,435.55555555555554)">
					<line class="st4" x1="0" y1="0" x2="-6" y2="0"/>
					<text transform="matrix(1 0 0 1 -20.1231 3.2)" class="st5 st6">10</text>
				</g>
				<g transform="translate(0,373.33333333333337)">
					<line class="st4" x1="0" y1="0" x2="-6" y2="0"/>
					<text transform="matrix(1 0 0 1 -20.1231 3.2)" class="st5 st6">15</text>
				</g>
				<g transform="translate(0,311.11111111111114)">
					<line class="st4" x1="0" y1="0" x2="-6" y2="0"/>
					<text transform="matrix(1 0 0 1 -20.1231 3.2)" class="st5 st6">20</text>
				</g>
				<g transform="translate(0,248.88888888888889)">
					<line class="st4" x1="0" y1="0" x2="-6" y2="0"/>
					<text transform="matrix(1 0 0 1 -20.1231 3.2)" class="st5 st6">25</text>
				</g>
				<g transform="translate(0,186.66666666666669)">
					<line class="st4" x1="0" y1="0" x2="-6" y2="0"/>
					<text transform="matrix(1 0 0 1 -20.1231 3.2001)" class="st5 st6">30</text>
				</g>
				<g transform="translate(0,124.44444444444444)">
					<line class="st4" x1="0" y1="0" x2="-6" y2="0"/>
					<text transform="matrix(1 0 0 1 -20.1231 3.2)" class="st5 st6">35</text>
				</g>
				<g transform="translate(0,62.22222222222225)">
					<line class="st4" x1="0" y1="0" x2="-6" y2="0"/>
					<text transform="matrix(1 0 0 1 -20.1231 3.2001)" class="st5 st6">40</text>
				</g>
				<g transform="translate(0,0)">
					<line class="st4" x1="0" y1="0" x2="-6" y2="0"/>
					<text transform="matrix(1 0 0 1 -20.1231 3.2)" class="st5 st6">45</text>
				</g>
			</g>
			<text transform="matrix(1 0 0 1 726.3262 556.0001)" class="st7 st8">Día</text>
			<text transform="matrix(1 0 0 1 3.499 12.3427)" class="st7 st8">Personas</text>
		</g>
	</g>
	<g id="grid">
		<rect x="0" y="0" class="st9" width="805" height="600"/>
	</g>
</g>
<g id="legend" transform="translate(805,20)">
	<g transform="translate(5,0)">
		<g transform="translate(0,0)">
			<g transform="translate(0,15.5)">
				<g transform="translate(0, 0)">
					<rect x="0" y="0" class="st2" width="15" height="15"/>
					<text transform="matrix(1 0 0 1 20 12.5)" class="st10 st6">Desaparecidos</text>
				</g>
				<g transform="translate(0, 20.5)">
					<rect x="0" y="0" class="st3" width="15" height="15"/>
					<text transform="matrix(1 0 0 1 20 12.5)" class="st10 st6">Muertos</text>
				</g>
				<g transform="translate(0, 41)">
					<rect x="0" y="0" class="st1" width="15" height="15"/>
					<text transform="matrix(1 0 0 1 20 12.5)" class="st10 st6">Sobrevivientes</text>
				</g>
			</g>
			<g transform="translate(0.000000,1280.000000) scale(0.100000,-0.100000)">
				<path class="st1" d="M-1491.7,6899.5c-6.3-1.2-11.8-4.2-16.2-8.8c-12.8-13.2-13.2-35.4-0.8-49c4.1-4.5,8.8-7.4,14.9-9.3
					c3-0.9,11.5-0.8,14.8,0.2c10.5,3.1,18.5,11.3,21.9,22.2c3.1,10.1,1.7,21.4-3.7,30.2c-3,4.8-8,9.5-12.6,11.8
					C-1479.2,6899.7-1486,6900.7-1491.7,6899.5z"/>
				<path class="st1" d="M-1522.9,6824.9c-14.3-1.7-26-10.5-32.4-24.6c-1-2.3-2.7-7.5-3.3-10.7c-0.5-2.6-0.6-5.3-0.6-59.7
					c0-54.1,0-57,0.5-58.6c1.8-5.7,6.3-9.3,12-9.9c7.2-0.7,13.5,4.6,14.7,12.3c0.2,1.4,0.3,18.1,0.3,49.9v47.8h2.8h2.8l0.1-131.8
					c0.1-126.3,0.1-131.9,0.6-133.7c1.8-6.5,5.7-11,11.5-13.2c2-0.7,2.7-0.9,5.9-0.9c2.7,0,4.1,0.1,5.4,0.6c6,2,10.4,6.5,12.3,12.8
					l0.8,2.6l0.1,77.3l0.1,77.3h2.8h2.8v-76.8c0-84.4-0.1-78.6,1.8-82.9c2-4.5,5.9-8.2,10.5-9.9c2.1-0.7,2.9-0.9,6-0.9
					c2.7,0,4.1,0.1,5.4,0.6c5.9,1.9,10.1,6.3,12,12.4l0.8,2.6l0.1,132l0.1,132h2.8h2.8v-48.4c0-53.6-0.1-50.8,1.9-54.6
					c1.4-2.5,3.3-4.5,5.9-5.8c3.6-1.9,8.4-1.8,12.1,0.1c2.2,1.1,4.5,3.5,5.6,5.8c1.9,4,1.8,0.1,1.8,60.4c0,59.6,0.1,57.3-1.6,63.6
					c-3.8,14.2-13.5,25.5-25.8,30c-6.4,2.3-4.4,2.2-44.3,2.3C-1505.8,6824.9-1522.4,6824.9-1522.9,6824.9z"/>
			</g>
			<g transform="translate(0.000000,1280.000000) scale(0.100000,-0.100000)">
				<path class="st1" d="M-1322,6893.9c-6.3-1.2-11.8-4.2-16.2-8.8c-12.8-13.2-13.2-35.4-0.8-49c4.1-4.5,8.8-7.4,14.9-9.3
					c3-0.9,11.5-0.8,14.8,0.2c10.5,3.1,18.5,11.3,21.9,22.2c3.1,10.1,1.7,21.4-3.7,30.2c-3,4.8-8,9.5-12.6,11.8
					C-1309.6,6894-1316.3,6895-1322,6893.9z"/>
				<path class="st1" d="M-1353.2,6819.2c-14.3-1.7-26-10.5-32.4-24.6c-1-2.3-2.7-7.5-3.3-10.7c-0.5-2.6-0.6-5.3-0.6-59.7
					c0-54.1,0-57,0.5-58.6c1.8-5.7,6.3-9.3,12-9.9c7.2-0.7,13.5,4.6,14.7,12.3c0.2,1.4,0.3,18.1,0.3,49.9v47.8h2.8h2.8l0.1-131.8
					c0.1-126.3,0.1-131.9,0.6-133.7c1.8-6.5,5.7-11,11.5-13.2c2-0.7,2.7-0.9,5.9-0.9c2.7,0,4.1,0.1,5.4,0.6c6,2,10.4,6.5,12.3,12.8
					l0.8,2.6l0.1,77.3l0.1,77.3h2.8h2.8v-76.8c0-84.4-0.1-78.6,1.8-82.9c2-4.5,5.9-8.2,10.5-9.9c2.1-0.7,2.9-0.9,6-0.9
					c2.7,0,4.1,0.1,5.4,0.6c5.9,1.9,10.1,6.3,12,12.4l0.8,2.6l0.1,132l0.1,132h2.8h2.8v-48.4c0-53.6-0.1-50.8,1.9-54.6
					c1.4-2.5,3.3-4.5,5.9-5.8c3.6-1.9,8.4-1.8,12.1,0.1c2.2,1.1,4.5,3.5,5.6,5.8c1.9,4,1.8,0.1,1.8,60.4c0,59.6,0.1,57.3-1.6,63.6
					c-3.8,14.2-13.5,25.5-25.8,30c-6.4,2.3-4.4,2.2-44.3,2.3C-1336.1,6819.3-1352.7,6819.3-1353.2,6819.2z"/>
			</g>
			<g transform="translate(0.000000,1280.000000) scale(0.100000,-0.100000)">
				<path class="st1" d="M-1144.4,6891c-6.3-1.2-11.8-4.2-16.2-8.8c-12.8-13.2-13.2-35.4-0.8-49c4.1-4.5,8.8-7.4,14.9-9.3
					c3-0.9,11.5-0.8,14.8,0.2c10.5,3.1,18.5,11.3,21.9,22.2c3.1,10.1,1.7,21.4-3.7,30.2c-3,4.8-8,9.5-12.6,11.8
					C-1131.9,6891.1-1138.7,6892.1-1144.4,6891z"/>
				<path class="st1" d="M-1175.6,6816.3c-14.3-1.7-26-10.5-32.4-24.6c-1-2.3-2.7-7.5-3.3-10.7c-0.5-2.6-0.6-5.3-0.6-59.7
					c0-54.1,0-57,0.5-58.6c1.8-5.7,6.3-9.3,12-9.9c7.2-0.7,13.5,4.6,14.7,12.3c0.2,1.4,0.3,18.1,0.3,49.9v47.8h2.8h2.8l0.1-131.8
					c0.1-126.3,0.1-131.9,0.6-133.7c1.8-6.5,5.7-11,11.5-13.2c2-0.7,2.7-0.9,5.9-0.9c2.7,0,4.1,0.1,5.4,0.6c6,2,10.4,6.5,12.3,12.8
					l0.8,2.6l0.1,77.3l0.1,77.3h2.8h2.8V6577c0-84.4-0.1-78.6,1.8-82.9c2-4.5,5.9-8.2,10.5-9.9c2.1-0.7,2.9-0.9,6-0.9
					c2.7,0,4.1,0.1,5.4,0.6c5.9,1.9,10.1,6.3,12,12.4l0.8,2.6l0.1,132l0.1,132h2.8h2.8v-48.4c0-53.6-0.1-50.8,1.9-54.6
					c1.4-2.5,3.3-4.5,5.9-5.8c3.6-1.9,8.4-1.8,12.1,0.1c2.2,1.1,4.5,3.5,5.6,5.8c1.9,4,1.8,0.1,1.8,60.4c0,59.6,0.1,57.3-1.6,63.6
					c-3.8,14.2-13.5,25.5-25.8,30c-6.4,2.3-4.4,2.2-44.3,2.3C-1158.5,6816.4-1175.1,6816.4-1175.6,6816.3z"/>
			</g>
			<g transform="translate(0.000000,1280.000000) scale(0.100000,-0.100000)">
				<path class="st1" d="M-972.5,6893.7c-6.3-1.2-11.8-4.2-16.2-8.8c-12.8-13.2-13.2-35.4-0.8-49c4.1-4.5,8.8-7.4,14.9-9.3
					c3-0.9,11.5-0.8,14.8,0.2c10.5,3.1,18.5,11.3,21.9,22.2c3.1,10.1,1.7,21.4-3.7,30.2c-3,4.8-8,9.5-12.6,11.8
					C-960,6893.8-966.8,6894.9-972.5,6893.7z"/>
				<path class="st1" d="M-1003.7,6819c-14.3-1.7-26-10.5-32.4-24.6c-1-2.3-2.7-7.5-3.3-10.7c-0.5-2.6-0.6-5.3-0.6-59.7
					c0-54.1,0-57,0.5-58.6c1.8-5.7,6.3-9.3,12-9.9c7.2-0.7,13.5,4.6,14.7,12.3c0.2,1.4,0.3,18.1,0.3,49.9v47.8h2.8h2.8l0.1-131.8
					c0.1-126.3,0.1-131.9,0.6-133.7c1.8-6.5,5.7-11,11.5-13.2c2-0.7,2.7-0.9,5.9-0.9c2.7,0,4.1,0.1,5.4,0.6c6,2,10.4,6.5,12.3,12.8
					l0.8,2.6l0.1,77.3l0.1,77.3h2.8h2.8v-76.8c0-84.4-0.1-78.6,1.8-82.9c2-4.5,5.9-8.2,10.5-9.9c2.1-0.7,2.9-0.9,6-0.9
					c2.7,0,4.1,0.1,5.4,0.6c5.9,1.9,10.1,6.3,12,12.4l0.8,2.6l0.1,132l0.1,132h2.8h2.8v-48.4c0-53.6-0.1-50.8,1.9-54.6
					c1.4-2.5,3.3-4.5,5.9-5.8c3.6-1.9,8.4-1.8,12.1,0.1c2.2,1.1,4.5,3.5,5.6,5.8c1.9,4,1.8,0.1,1.8,60.4c0,59.6,0.1,57.3-1.6,63.6
					c-3.8,14.2-13.5,25.5-25.8,30c-6.4,2.3-4.4,2.2-44.3,2.3C-986.6,6819.1-1003.2,6819.1-1003.7,6819z"/>
			</g>
			<g transform="translate(0.000000,1280.000000) scale(0.100000,-0.100000)">
				<path class="st1" d="M-794.2,6894.1c-6.3-1.2-11.8-4.2-16.2-8.8c-12.8-13.2-13.2-35.4-0.8-49c4.1-4.5,8.8-7.4,14.9-9.3
					c3-0.9,11.5-0.8,14.8,0.2c10.5,3.1,18.5,11.3,21.9,22.2c3.1,10.1,1.7,21.4-3.7,30.2c-3,4.8-8,9.5-12.6,11.8
					C-781.7,6894.2-788.5,6895.2-794.2,6894.1z"/>
				<path class="st1" d="M-825.4,6819.4c-14.3-1.7-26-10.5-32.4-24.6c-1-2.3-2.7-7.5-3.3-10.7c-0.5-2.6-0.6-5.3-0.6-59.7
					c0-54.1,0-57,0.5-58.6c1.8-5.7,6.3-9.3,12-9.9c7.2-0.7,13.5,4.6,14.7,12.3c0.2,1.4,0.3,18.1,0.3,49.9v47.8h2.8h2.8l0.1-131.8
					c0.1-126.3,0.1-131.9,0.6-133.7c1.8-6.5,5.7-11,11.5-13.2c2-0.7,2.7-0.9,5.9-0.9c2.7,0,4.1,0.1,5.4,0.6c6,2,10.4,6.5,12.3,12.8
					l0.8,2.6l0.1,77.3l0.1,77.3h2.8h2.8v-76.8c0-84.4-0.1-78.6,1.8-82.9c2-4.5,5.9-8.2,10.5-9.9c2.1-0.7,2.9-0.9,6-0.9
					c2.7,0,4.1,0.1,5.4,0.6c5.9,1.9,10.1,6.3,12,12.4l0.8,2.6l0.1,132l0.1,132h2.8h2.8v-48.4c0-53.6-0.1-50.8,1.9-54.6
					c1.4-2.5,3.3-4.5,5.9-5.8c3.6-1.9,8.4-1.8,12.1,0.1c2.2,1.1,4.5,3.5,5.6,5.8c1.9,4,1.8,0.1,1.8,60.4c0,59.6,0.1,57.3-1.6,63.6
					c-3.8,14.2-13.5,25.5-25.8,30c-6.4,2.3-4.4,2.2-44.3,2.3C-808.3,6819.5-824.9,6819.5-825.4,6819.4z"/>
			</g>
			<g transform="translate(0.000000,1280.000000) scale(0.100000,-0.100000)">
				<path class="st1" d="M-615.5,6895.1c-6.3-1.2-11.8-4.2-16.2-8.8c-12.8-13.2-13.2-35.4-0.8-49c4.1-4.5,8.8-7.4,14.9-9.3
					c3-0.9,11.5-0.8,14.8,0.2c10.5,3.1,18.5,11.3,21.9,22.2c3.1,10.1,1.7,21.4-3.7,30.2c-3,4.8-8,9.5-12.6,11.8
					C-603,6895.2-609.8,6896.2-615.5,6895.1z"/>
				<path class="st1" d="M-646.7,6820.4c-14.3-1.7-26-10.5-32.4-24.6c-1-2.3-2.7-7.5-3.3-10.7c-0.5-2.6-0.6-5.3-0.6-59.7
					c0-54.1,0-57,0.5-58.6c1.8-5.7,6.3-9.3,12-9.9c7.2-0.7,13.5,4.6,14.7,12.3c0.2,1.4,0.3,18.1,0.3,49.9v47.8h2.8h2.8l0.1-131.8
					c0.1-126.3,0.1-131.9,0.6-133.7c1.8-6.5,5.7-11,11.5-13.2c2-0.7,2.7-0.9,5.9-0.9c2.7,0,4.1,0.1,5.4,0.6c6,2,10.4,6.5,12.3,12.8
					l0.8,2.6l0.1,77.3l0.1,77.3h2.8h2.8v-76.8c0-84.4-0.1-78.6,1.8-82.9c2-4.5,5.9-8.2,10.5-9.9c2.1-0.7,2.9-0.9,6-0.9
					c2.7,0,4.1,0.1,5.4,0.6c5.9,1.9,10.1,6.3,12,12.4l0.8,2.6l0.1,132l0.1,132h2.8h2.8v-48.4c0-53.6-0.1-50.8,1.9-54.6
					c1.4-2.5,3.3-4.5,5.9-5.8c3.6-1.9,8.4-1.8,12.1,0.1c2.2,1.1,4.5,3.5,5.6,5.8c1.9,4,1.8,0.1,1.8,60.4c0,59.6,0.1,57.3-1.6,63.6
					c-3.8,14.2-13.5,25.5-25.8,30c-6.4,2.3-4.4,2.2-44.3,2.3C-629.5,6820.5-646.1,6820.4-646.7,6820.4z"/>
			</g>
			<g transform="translate(0.000000,1280.000000) scale(0.100000,-0.100000)">
				<path class="st1" d="M-444.1,6894.6c-6.3-1.2-11.8-4.2-16.2-8.8c-12.8-13.2-13.2-35.4-0.8-49c4.1-4.5,8.8-7.4,14.9-9.3
					c3-0.9,11.5-0.8,14.8,0.2c10.5,3.1,18.5,11.3,21.9,22.2c3.1,10.1,1.7,21.4-3.7,30.2c-3,4.8-8,9.5-12.6,11.8
					C-431.7,6894.7-438.4,6895.8-444.1,6894.6z"/>
				<path class="st1" d="M-475.3,6819.9c-14.3-1.7-26-10.5-32.4-24.6c-1-2.3-2.7-7.5-3.3-10.7c-0.5-2.6-0.6-5.3-0.6-59.7
					c0-54.1,0-57,0.5-58.6c1.8-5.7,6.3-9.3,12-9.9c7.2-0.7,13.5,4.6,14.7,12.3c0.2,1.4,0.3,18.1,0.3,49.9v47.8h2.8h2.8l0.1-131.8
					c0.1-126.3,0.1-131.9,0.6-133.7c1.8-6.5,5.7-11,11.5-13.2c2-0.7,2.7-0.9,5.9-0.9c2.7,0,4.1,0.1,5.4,0.6c6,2,10.4,6.5,12.3,12.8
					l0.8,2.6l0.1,77.3l0.1,77.3h2.8h2.8v-76.8c0-84.4-0.1-78.6,1.8-82.9c2-4.5,5.9-8.2,10.5-9.9c2.1-0.7,2.9-0.9,6-0.9
					c2.7,0,4.1,0.1,5.4,0.6c5.9,1.9,10.1,6.3,12,12.4l0.8,2.6l0.1,132l0.1,132h2.8h2.8v-48.4c0-53.6-0.1-50.8,1.9-54.6
					c1.4-2.5,3.3-4.5,5.9-5.8c3.6-1.9,8.4-1.8,12.1,0.1c2.2,1.1,4.5,3.5,5.6,5.8c1.9,4,1.8,0.1,1.8,60.4c0,59.6,0.1,57.3-1.6,63.6
					c-3.8,14.2-13.5,25.5-25.8,30c-6.4,2.3-4.4,2.2-44.3,2.3C-458.2,6820-474.8,6820-475.3,6819.9z"/>
			</g>
			<g transform="translate(0.000000,1280.000000) scale(0.100000,-0.100000)">
				<path class="st1" d="M-275.9,6895.3c-6.3-1.2-11.8-4.2-16.2-8.8c-12.8-13.2-13.2-35.4-0.8-49c4.1-4.5,8.8-7.4,14.9-9.3
					c3-0.9,11.5-0.8,14.8,0.2c10.5,3.1,18.5,11.3,21.9,22.2c3.1,10.1,1.7,21.4-3.7,30.2c-3,4.8-8,9.5-12.6,11.8
					C-263.5,6895.5-270.2,6896.5-275.9,6895.3z"/>
				<path class="st1" d="M-307.1,6820.7c-14.3-1.7-26-10.5-32.4-24.6c-1-2.3-2.7-7.5-3.3-10.7c-0.5-2.6-0.6-5.3-0.6-59.7
					c0-54.1,0-57,0.5-58.6c1.8-5.7,6.3-9.3,12-9.9c7.2-0.7,13.5,4.6,14.7,12.3c0.2,1.4,0.3,18.1,0.3,49.9v47.8h2.8h2.8l0.1-131.8
					c0.1-126.3,0.1-131.9,0.6-133.7c1.8-6.5,5.7-11,11.5-13.2c2-0.7,2.7-0.9,5.9-0.9c2.7,0,4.1,0.1,5.4,0.6c6,2,10.4,6.5,12.3,12.8
					l0.8,2.6l0.1,77.3l0.1,77.3h2.8h2.8v-76.8c0-84.4-0.1-78.6,1.8-82.9c2-4.5,5.9-8.2,10.5-9.9c2.1-0.7,2.9-0.9,6-0.9
					c2.7,0,4.1,0.1,5.4,0.6c5.9,1.9,10.1,6.3,12,12.4l0.8,2.6l0.1,132l0.1,132h2.8h2.8v-48.4c0-53.6-0.1-50.8,1.9-54.6
					c1.4-2.5,3.3-4.5,5.9-5.8c3.6-1.9,8.4-1.8,12.1,0.1c2.2,1.1,4.5,3.5,5.6,5.8c1.9,4,1.8,0.1,1.8,60.4c0,59.6,0.1,57.3-1.6,63.6
					c-3.8,14.2-13.5,25.5-25.8,30c-6.4,2.3-4.4,2.2-44.3,2.3C-290,6820.8-306.6,6820.7-307.1,6820.7z"/>
			</g>
			<g transform="translate(0.000000,1280.000000) scale(0.100000,-0.100000)">
				<path class="st1" d="M-110.8,6893.8c-6.3-1.2-11.8-4.2-16.2-8.8c-12.8-13.2-13.2-35.4-0.8-49c4.1-4.5,8.8-7.4,14.9-9.3
					c3-0.9,11.5-0.8,14.8,0.2c10.5,3.1,18.5,11.3,21.9,22.2c3.1,10.1,1.7,21.4-3.7,30.2c-3,4.8-8,9.5-12.6,11.8
					C-98.3,6894-105.1,6895-110.8,6893.8z"/>
				<path class="st1" d="M-142,6819.2c-14.3-1.7-26-10.5-32.4-24.6c-1-2.3-2.7-7.5-3.3-10.7c-0.5-2.6-0.6-5.3-0.6-59.7
					c0-54.1,0-57,0.5-58.6c1.8-5.7,6.3-9.3,12-9.9c7.2-0.7,13.5,4.6,14.7,12.3c0.2,1.4,0.3,18.1,0.3,49.9v47.8h2.8h2.8l0.1-131.8
					c0.1-126.3,0.1-131.9,0.6-133.7c1.8-6.5,5.7-11,11.5-13.2c2-0.7,2.7-0.9,5.9-0.9c2.7,0,4.1,0.1,5.4,0.6c6,2,10.4,6.5,12.3,12.8
					l0.8,2.6l0.1,77.3l0.1,77.3h2.8h2.8v-76.8c0-84.4-0.1-78.6,1.8-82.9c2-4.5,5.9-8.2,10.5-9.9c2.1-0.7,2.9-0.9,6-0.9
					c2.7,0,4.1,0.1,5.4,0.6c5.9,1.9,10.1,6.3,12,12.4l0.8,2.6l0.1,132l0.1,132h2.8h2.8v-48.4c0-53.6-0.1-50.8,1.9-54.6
					c1.4-2.5,3.3-4.5,5.9-5.8c3.6-1.9,8.4-1.8,12.1,0.1c2.2,1.1,4.5,3.5,5.6,5.8c1.9,4,1.8,0.1,1.8,60.4c0,59.6,0.1,57.3-1.6,63.6
					c-3.8,14.2-13.5,25.5-25.8,30c-6.4,2.3-4.4,2.2-44.3,2.3C-124.8,6819.2-141.4,6819.2-142,6819.2z"/>
			</g>
			<g transform="translate(0.000000,1280.000000) scale(0.100000,-0.100000)">
				<path class="st3" d="M-7696.9,6891.1c-6.9-1.4-11.9-4.3-16.6-9.4c-9.6-10.6-11.1-27.7-3.5-40.2c8.4-13.8,25.1-18.4,38.5-10.5
					c11.8,6.9,17.8,21.9,14.5,36.1c-2.1,9-7.5,16.4-15.1,20.7c-2.8,1.6-5.2,2.4-9.3,3.2C-7692.2,6891.9-7693,6891.9-7696.9,6891.1z"
					/>
				<path class="st3" d="M-7718.3,6818c-8-1.3-14.8-5-20.7-11.3c-4-4.3-7.4-9.4-9.1-14c-1.4-3.6-27.4-97.5-27.8-100.2
					c-0.9-6.5,1.6-12.1,6.6-14.8c2.1-1.2,2.3-1.2,5.3-1.2c2.9,0,3.3,0.1,4.9,0.9c2.3,1.2,4.9,4.1,6,6.7c0.5,1.1,6.1,21.2,12.5,44.7
					s11.7,43,11.9,43.4c0.3,0.7,0.4,0.7,3.4,0.7s3.1,0,3.1-0.7c0-0.4-3.9-15.5-8.7-33.6c-4.8-18.1-13.7-51.6-19.7-74.6
					c-6.1-22.9-11.1-42.1-11.2-42.5l-0.1-0.9h18.4c13.9,0,18.4-0.1,18.7-0.4c0.3-0.3,0.3-13.4,0.3-57c0-40.1,0.1-57,0.3-58.2
					c0.8-4.1,3.3-7.8,6.5-9.6c1.9-1,5.5-2.2,6.8-2.2s5,1.2,6.8,2.1c1.9,1,4.4,3.8,5.4,5.8c1.5,3.4,1.5,0.3,1.5,62
					c0,31.5,0.1,57.5,0.2,57.7c0.2,0.3,1.3,0.4,4.4,0.3l4.1-0.1l0.1-57.9c0.1-46.9,0.2-58.1,0.5-59.1c1.1-3.7,3.6-7.1,6.5-8.7
					c1.7-0.9,5.4-2.1,6.8-2.1s5.1,1.2,6.8,2.1c1.9,1,4.2,3.5,5.1,5.3c1.7,3.5,1.6-0.1,1.6,62.2c0,43.9,0.1,57.1,0.3,57.4
					s4.8,0.4,18.8,0.4c17.5,0,18.5,0,18.3,0.6c-0.1,0.3-1.9,7-4,15c-3.6,13.4-14,52.6-29.7,111.6c-3.5,13.2-6.4,24.2-6.4,24.5
					c0,0.4,0.5,0.5,3.4,0.5s3.4-0.1,3.7-0.5c0.1-0.3,1.1-3.7,2.2-7.6c11.8-43.3,20.5-75.4,21.3-77.7c1.9-6.2,5.2-9.7,10.1-10.7
					c6-1.2,12.2,3.7,13.5,10.6c0.7,3.7,0.4,6.2-2.1,14.8c-0.9,3.1-6.7,24-13,46.5c-6.2,22.5-11.7,41.7-12,42.6
					c-3.3,9.2-11.4,18.7-19.6,23.2c-2.8,1.5-4.6,2.2-7.9,3.2l-2.9,0.8l-24.9,0.1C-7705.5,6818.2-7717.4,6818.1-7718.3,6818z"/>
			</g>
			<g transform="translate(0.000000,1280.000000) scale(0.100000,-0.100000)">
				<path class="st3" d="M-6806.6,6899.4c-6.3-1.2-11.8-4.2-16.2-8.8c-12.8-13.2-13.2-35.4-0.8-49c4.1-4.5,8.8-7.4,14.9-9.3
					c3-0.9,11.5-0.8,14.8,0.2c10.5,3.1,18.5,11.3,21.9,22.2c3.1,10.1,1.7,21.4-3.7,30.2c-3,4.8-8,9.5-12.6,11.8
					C-6794.1,6899.6-6800.9,6900.6-6806.6,6899.4z"/>
				<path class="st3" d="M-6837.8,6824.7c-14.3-1.7-26-10.5-32.4-24.6c-1-2.3-2.7-7.5-3.3-10.7c-0.5-2.6-0.6-5.3-0.6-59.7
					c0-54.1,0-57,0.5-58.6c1.8-5.7,6.3-9.3,12-9.9c7.2-0.7,13.5,4.6,14.7,12.3c0.2,1.4,0.3,18.1,0.3,49.9v47.8h2.8h2.8l0.1-131.8
					c0.1-126.3,0.1-131.9,0.6-133.7c1.8-6.5,5.7-11,11.5-13.2c2-0.7,2.7-0.9,5.9-0.9c2.7,0,4.1,0.1,5.4,0.6c6,2,10.4,6.5,12.3,12.8
					l0.8,2.6l0.1,77.3l0.1,77.3h2.8h2.8v-76.8c0-84.4-0.1-78.6,1.8-82.9c2-4.5,5.9-8.2,10.5-9.9c2.1-0.7,2.9-0.9,6-0.9
					c2.7,0,4.1,0.1,5.4,0.6c5.9,1.9,10.1,6.3,12,12.4l0.8,2.6l0.1,132l0.1,132h2.8h2.8v-48.4c0-53.6-0.1-50.9,1.9-54.6
					c1.4-2.5,3.3-4.5,5.9-5.8c3.6-1.9,8.4-1.8,12.1,0.1c2.2,1.1,4.5,3.5,5.6,5.8c1.9,4,1.8,0.1,1.8,60.4c0,59.6,0.1,57.3-1.6,63.6
					c-3.8,14.2-13.5,25.5-25.8,30c-6.4,2.3-4.4,2.2-44.3,2.3C-6820.6,6824.8-6837.2,6824.8-6837.8,6824.7z"/>
			</g>
			<g transform="translate(0.000000,1280.000000) scale(0.100000,-0.100000)">
				<path class="st3" d="M-7514.1,6889.7c-6.9-1.4-11.9-4.3-16.6-9.4c-9.6-10.6-11.1-27.7-3.5-40.2c8.4-13.8,25.1-18.4,38.5-10.5
					c11.8,6.9,17.8,21.9,14.5,36.1c-2.1,9-7.5,16.4-15.1,20.7c-2.8,1.6-5.2,2.4-9.3,3.2C-7509.5,6890.4-7510.3,6890.4-7514.1,6889.7
					z"/>
				<path class="st3" d="M-7535.6,6816.5c-8-1.3-14.8-5-20.7-11.3c-4-4.3-7.4-9.4-9.1-14c-1.4-3.6-27.4-97.5-27.8-100.2
					c-0.9-6.5,1.6-12.1,6.6-14.8c2.1-1.2,2.3-1.2,5.3-1.2c2.9,0,3.3,0.1,4.9,0.9c2.3,1.2,4.9,4.1,6,6.7c0.5,1.1,6.1,21.2,12.5,44.7
					s11.7,43,11.9,43.4c0.3,0.7,0.4,0.7,3.4,0.7s3.1,0,3.1-0.7c0-0.4-3.9-15.5-8.7-33.6c-4.8-18.1-13.7-51.6-19.7-74.6
					c-6.1-22.9-11.1-42.1-11.2-42.5l-0.1-0.9h18.4c13.9,0,18.4-0.1,18.7-0.4c0.3-0.3,0.3-13.4,0.3-57c0-40.1,0.1-57,0.3-58.2
					c0.8-4.1,3.3-7.8,6.5-9.6c1.9-1,5.5-2.2,6.8-2.2s5,1.2,6.8,2.1c1.9,1,4.4,3.8,5.4,5.8c1.5,3.4,1.5,0.3,1.5,62
					c0,31.5,0.1,57.5,0.2,57.7c0.2,0.3,1.3,0.4,4.4,0.3l4.1-0.1l0.1-57.9c0.1-46.9,0.2-58.1,0.5-59.1c1.1-3.7,3.6-7.1,6.5-8.7
					c1.7-0.9,5.4-2.1,6.8-2.1s5.1,1.2,6.8,2.1c1.9,1,4.2,3.5,5.1,5.3c1.7,3.5,1.6-0.1,1.6,62.2c0,43.9,0.1,57.1,0.3,57.4
					c0.3,0.3,4.8,0.4,18.8,0.4c17.5,0,18.5,0,18.3,0.6c-0.1,0.3-1.9,7-4,15c-3.6,13.4-14,52.6-29.7,111.6
					c-3.5,13.2-6.4,24.2-6.4,24.5c0,0.4,0.5,0.5,3.4,0.5s3.4-0.1,3.7-0.5c0.1-0.3,1.1-3.7,2.2-7.6c11.8-43.3,20.5-75.4,21.3-77.7
					c1.9-6.2,5.2-9.7,10.1-10.7c6-1.2,12.2,3.7,13.5,10.6c0.7,3.7,0.4,6.2-2.1,14.8c-0.9,3.1-6.7,24-13,46.5
					c-6.2,22.5-11.7,41.7-12,42.6c-3.3,9.2-11.4,18.7-19.6,23.2c-2.8,1.5-4.6,2.2-7.9,3.2l-2.8,0.8l-24.9,0.1
					C-7522.8,6816.8-7534.7,6816.7-7535.6,6816.5z"/>
			</g>
			<g transform="translate(0.000000,1280.000000) scale(0.100000,-0.100000)">
				<path class="st3" d="M-7336.4,6884.5c-6.9-1.4-11.9-4.3-16.6-9.4c-9.6-10.6-11.1-27.7-3.5-40.2c8.4-13.8,25.1-18.4,38.5-10.5
					c11.8,6.9,17.8,21.9,14.5,36.1c-2.1,9-7.5,16.4-15.1,20.7c-2.8,1.6-5.2,2.4-9.3,3.2C-7331.8,6885.3-7332.6,6885.3-7336.4,6884.5
					z"/>
				<path class="st3" d="M-7357.9,6811.4c-8-1.3-14.8-5-20.7-11.3c-4-4.3-7.4-9.4-9.1-14c-1.4-3.6-27.4-97.5-27.8-100.2
					c-0.9-6.5,1.6-12.1,6.6-14.8c2.1-1.2,2.3-1.2,5.3-1.2c2.9,0,3.3,0.1,4.9,0.9c2.3,1.2,4.9,4.1,6,6.7c0.5,1.1,6.1,21.2,12.5,44.7
					s11.7,43,11.9,43.4c0.3,0.7,0.4,0.7,3.4,0.7s3.1,0,3.1-0.7c0-0.4-3.9-15.5-8.7-33.6c-4.8-18.1-13.7-51.6-19.7-74.6
					c-6.1-22.9-11.1-42.1-11.2-42.5l-0.1-0.9h18.4c13.9,0,18.4-0.1,18.7-0.4c0.3-0.3,0.3-13.4,0.3-57c0-40.1,0.1-57,0.3-58.2
					c0.8-4.1,3.3-7.8,6.5-9.6c1.9-1,5.5-2.2,6.8-2.2s5,1.2,6.8,2.1c1.9,1,4.4,3.8,5.4,5.8c1.5,3.4,1.5,0.3,1.5,62
					c0,31.5,0.1,57.5,0.2,57.7c0.2,0.3,1.3,0.4,4.4,0.3l4.1-0.1l0.1-57.9c0.1-46.9,0.2-58.1,0.5-59.1c1.1-3.7,3.6-7.1,6.5-8.7
					c1.7-0.9,5.4-2.1,6.8-2.1s5.1,1.2,6.8,2.1c1.9,1,4.2,3.5,5.1,5.3c1.7,3.5,1.6-0.1,1.6,62.2c0,43.9,0.1,57.1,0.3,57.4
					c0.3,0.3,4.8,0.4,18.8,0.4c17.5,0,18.5,0,18.3,0.6c-0.1,0.3-1.9,7-4,15c-3.6,13.4-14,52.6-29.7,111.6
					c-3.5,13.2-6.4,24.2-6.4,24.5c0,0.4,0.5,0.5,3.4,0.5s3.4-0.1,3.7-0.5c0.1-0.3,1.1-3.7,2.2-7.6c11.8-43.3,20.5-75.4,21.3-77.7
					c1.9-6.2,5.2-9.7,10.1-10.7c6-1.2,12.2,3.7,13.5,10.6c0.7,3.7,0.4,6.2-2.1,14.8c-0.9,3.1-6.7,24-13,46.5
					c-6.2,22.5-11.7,41.7-12,42.6c-3.3,9.2-11.4,18.7-19.6,23.2c-2.8,1.5-4.6,2.2-7.9,3.2l-2.9,0.8l-24.9,0.1
					C-7345,6811.6-7357,6811.5-7357.9,6811.4z"/>
			</g>
			<g transform="translate(0.000000,1280.000000) scale(0.100000,-0.100000)">
				<path class="st3" d="M-7167.3,6887.7c-6.9-1.4-11.9-4.3-16.6-9.4c-9.6-10.6-11.1-27.7-3.5-40.2c8.4-13.8,25.1-18.4,38.5-10.5
					c11.8,6.9,17.8,21.9,14.5,36.1c-2.1,9-7.5,16.4-15.1,20.7c-2.8,1.6-5.2,2.4-9.3,3.2C-7162.6,6888.5-7163.4,6888.5-7167.3,6887.7
					z"/>
				<path class="st3" d="M-7188.7,6814.6c-8-1.3-14.8-5-20.7-11.3c-4-4.3-7.4-9.4-9.1-14c-1.4-3.6-27.4-97.5-27.8-100.2
					c-0.9-6.5,1.6-12.1,6.6-14.8c2.1-1.2,2.3-1.2,5.3-1.2c2.9,0,3.3,0.1,4.9,0.9c2.3,1.2,4.9,4.1,6,6.7c0.5,1.1,6.1,21.2,12.5,44.7
					s11.7,43,11.9,43.4c0.3,0.7,0.4,0.7,3.4,0.7s3.1,0,3.1-0.7c0-0.4-3.9-15.5-8.7-33.6c-4.8-18.1-13.7-51.6-19.7-74.6
					c-6.1-22.9-11.1-42.1-11.2-42.5l-0.1-0.9h18.4c13.9,0,18.4-0.1,18.7-0.4c0.3-0.3,0.3-13.4,0.3-57c0-40.1,0.1-57,0.3-58.2
					c0.8-4.1,3.3-7.8,6.5-9.6c1.9-1,5.5-2.2,6.8-2.2s5,1.2,6.8,2.1c1.9,1,4.4,3.8,5.4,5.8c1.5,3.4,1.5,0.3,1.5,62
					c0,31.5,0.1,57.5,0.2,57.7c0.2,0.3,1.3,0.4,4.4,0.3l4.1-0.1l0.1-57.9c0.1-46.9,0.2-58.1,0.5-59.1c1.1-3.7,3.6-7.1,6.5-8.7
					c1.7-0.9,5.4-2.1,6.8-2.1s5.1,1.2,6.8,2.1c1.9,1,4.2,3.5,5.1,5.3c1.7,3.5,1.6-0.1,1.6,62.2c0,43.9,0.1,57.1,0.3,57.4
					s4.8,0.4,18.8,0.4c17.5,0,18.5,0,18.3,0.6c-0.1,0.3-1.9,7-4,15c-3.6,13.4-14,52.6-29.7,111.6c-3.5,13.2-6.4,24.2-6.4,24.5
					c0,0.4,0.5,0.5,3.4,0.5s3.4-0.1,3.7-0.5c0.1-0.3,1.1-3.7,2.2-7.6c11.8-43.3,20.5-75.4,21.3-77.7c1.9-6.2,5.2-9.7,10.1-10.7
					c6-1.2,12.2,3.7,13.5,10.6c0.7,3.7,0.4,6.2-2.1,14.8c-0.9,3.1-6.7,24-13,46.5c-6.2,22.5-11.7,41.7-12,42.6
					c-3.3,9.2-11.4,18.7-19.6,23.2c-2.8,1.5-4.6,2.2-7.9,3.2l-2.9,0.8l-24.9,0.1C-7175.9,6814.8-7187.8,6814.7-7188.7,6814.6z"/>
			</g>
			<g transform="translate(0.000000,1280.000000) scale(0.100000,-0.100000)">
				<path class="st3" d="M-6988.5,6887.7c-6.9-1.4-11.9-4.3-16.6-9.4c-9.6-10.6-11.1-27.7-3.5-40.2c8.4-13.8,25.1-18.4,38.5-10.5
					c11.8,6.9,17.8,21.9,14.5,36.1c-2.1,9-7.5,16.4-15.1,20.7c-2.8,1.6-5.2,2.4-9.3,3.2C-6983.8,6888.5-6984.7,6888.5-6988.5,6887.7
					z"/>
				<path class="st3" d="M-7009.9,6814.6c-8-1.3-14.8-5-20.7-11.3c-4-4.3-7.4-9.4-9.1-14c-1.4-3.6-27.4-97.5-27.8-100.2
					c-0.9-6.5,1.6-12.1,6.6-14.8c2.1-1.2,2.3-1.2,5.3-1.2c2.9,0,3.3,0.1,4.9,0.9c2.3,1.2,4.9,4.1,6,6.7c0.5,1.1,6.1,21.2,12.5,44.7
					s11.7,43,11.9,43.4c0.3,0.7,0.4,0.7,3.4,0.7s3.1,0,3.1-0.7c0-0.4-3.9-15.5-8.7-33.6c-4.8-18.1-13.7-51.6-19.7-74.6
					c-6.1-22.9-11.1-42.1-11.2-42.5l-0.1-0.9h18.4c13.9,0,18.4-0.1,18.7-0.4s0.3-13.4,0.3-57c0-40.1,0.1-57,0.3-58.2
					c0.8-4.1,3.3-7.8,6.5-9.6c1.9-1,5.5-2.2,6.8-2.2s5,1.2,6.8,2.1c1.9,1,4.4,3.8,5.4,5.8c1.5,3.4,1.5,0.3,1.5,62
					c0,31.5,0.1,57.5,0.2,57.7c0.2,0.3,1.3,0.4,4.4,0.3l4.1-0.1l0.1-57.9c0.1-46.9,0.2-58.1,0.5-59.1c1.1-3.7,3.6-7.1,6.5-8.7
					c1.7-0.9,5.4-2.1,6.8-2.1s5.1,1.2,6.8,2.1c1.9,1,4.2,3.5,5.1,5.3c1.7,3.5,1.6-0.1,1.6,62.2c0,43.9,0.1,57.1,0.3,57.4
					c0.3,0.3,4.8,0.4,18.8,0.4c17.5,0,18.5,0,18.3,0.6c-0.1,0.3-1.9,7-4,15c-3.6,13.4-14,52.6-29.7,111.6
					c-3.5,13.2-6.4,24.2-6.4,24.5c0,0.4,0.5,0.5,3.4,0.5s3.4-0.1,3.7-0.5c0.1-0.3,1.1-3.7,2.2-7.6c11.8-43.3,20.5-75.4,21.3-77.7
					c1.9-6.2,5.2-9.7,10.1-10.7c6-1.2,12.2,3.7,13.5,10.6c0.7,3.7,0.4,6.2-2.1,14.8c-0.9,3.1-6.7,24-13,46.5
					c-6.2,22.5-11.7,41.7-12,42.6c-3.3,9.2-11.4,18.7-19.6,23.2c-2.8,1.5-4.6,2.2-7.9,3.2l-2.9,0.8l-24.9,0.1
					C-6997.1,6814.8-7009.1,6814.7-7009.9,6814.6z"/>
			</g>
			<g transform="translate(0.000000,1280.000000) scale(0.100000,-0.100000)">
				<path class="st3" d="M-6641.5,6895.7c-6.3-1.2-11.8-4.2-16.2-8.8c-12.8-13.2-13.2-35.4-0.8-49c4.1-4.5,8.8-7.4,14.9-9.3
					c3-0.9,11.5-0.8,14.8,0.2c10.5,3.1,18.5,11.3,21.9,22.2c3.1,10.1,1.7,21.4-3.7,30.2c-3,4.8-8,9.5-12.6,11.8
					C-6629,6895.8-6635.8,6896.8-6641.5,6895.7z"/>
				<path class="st3" d="M-6672.7,6821c-14.3-1.7-26-10.5-32.4-24.6c-1-2.3-2.7-7.5-3.3-10.7c-0.5-2.6-0.6-5.3-0.6-59.7
					c0-54.1,0-57,0.5-58.6c1.8-5.7,6.3-9.3,12-9.9c7.2-0.7,13.5,4.6,14.7,12.3c0.2,1.4,0.3,18.1,0.3,49.9v47.8h2.8h2.8l0.1-131.8
					c0.1-126.3,0.1-131.9,0.6-133.7c1.8-6.5,5.7-11,11.5-13.2c2-0.7,2.7-0.9,5.9-0.9c2.7,0,4.1,0.1,5.4,0.6c6,2,10.4,6.5,12.3,12.8
					l0.8,2.6l0.1,77.3l0.1,77.3h2.8h2.8v-76.8c0-84.4-0.1-78.6,1.8-82.9c2-4.5,5.9-8.2,10.5-9.9c2.1-0.7,2.9-0.9,6-0.9
					c2.7,0,4.1,0.1,5.4,0.6c5.9,1.9,10.1,6.3,12,12.4l0.8,2.6l0.1,132l0.1,132h2.8h2.8v-48.4c0-53.6-0.1-50.8,1.9-54.6
					c1.4-2.5,3.3-4.5,5.9-5.8c3.6-1.9,8.4-1.8,12.1,0.1c2.2,1.1,4.5,3.5,5.6,5.8c1.9,4,1.8,0.1,1.8,60.4c0,59.6,0.1,57.3-1.6,63.6
					c-3.8,14.2-13.5,25.5-25.8,30c-6.4,2.3-4.4,2.2-44.3,2.3C-6655.6,6821.1-6672.2,6821.1-6672.7,6821z"/>
			</g>
			<g transform="translate(0.000000,1280.000000) scale(0.100000,-0.100000)">
				<path class="st3" d="M-6471.9,6892.9c-6.3-1.2-11.8-4.2-16.2-8.8c-12.8-13.2-13.2-35.4-0.8-49c4.1-4.5,8.8-7.4,14.9-9.3
					c3-0.9,11.5-0.8,14.8,0.2c10.5,3.1,18.5,11.3,21.9,22.2c3.1,10.1,1.7,21.4-3.7,30.2c-3,4.8-8,9.5-12.6,11.8
					C-6459.4,6893-6466.2,6894-6471.9,6892.9z"/>
				<path class="st3" d="M-6503.1,6818.2c-14.3-1.7-26-10.5-32.4-24.6c-1-2.3-2.7-7.5-3.3-10.7c-0.5-2.6-0.6-5.3-0.6-59.7
					c0-54.1,0-57,0.5-58.6c1.8-5.7,6.3-9.3,12-9.9c7.2-0.7,13.5,4.6,14.7,12.3c0.2,1.4,0.3,18.1,0.3,49.9v47.8h2.8h2.8l0.1-131.8
					c0.1-126.3,0.1-131.9,0.6-133.7c1.8-6.5,5.7-11,11.5-13.2c2-0.7,2.7-0.9,5.9-0.9c2.7,0,4.1,0.1,5.4,0.6c6,2,10.4,6.5,12.3,12.8
					l0.8,2.6l0.1,77.3l0.1,77.3h2.8h2.8v-76.8c0-84.4-0.1-78.6,1.8-82.9c2-4.5,5.9-8.2,10.5-9.9c2.1-0.7,2.9-0.9,6-0.9
					c2.7,0,4.1,0.1,5.4,0.6c5.9,1.9,10.1,6.3,12,12.4l0.8,2.6l0.1,132l0.1,132h2.8h2.8v-48.4c0-53.6-0.1-50.8,1.9-54.6
					c1.4-2.5,3.3-4.5,5.9-5.8c3.6-1.8,8.4-1.8,12.1,0.1c2.2,1.1,4.5,3.5,5.6,5.8c1.9,4,1.8,0.1,1.8,60.4c0,59.6,0.1,57.3-1.6,63.6
					c-3.8,14.2-13.5,25.5-25.8,30c-6.4,2.3-4.4,2.2-44.3,2.3C-6486,6818.3-6502.6,6818.3-6503.1,6818.2z"/>
			</g>
			<g transform="translate(0.000000,1280.000000) scale(0.100000,-0.100000)">
				<path class="st3" d="M-6306.4,6895.7c-6.3-1.2-11.8-4.2-16.2-8.8c-12.8-13.2-13.2-35.4-0.8-49c4.1-4.5,8.8-7.4,14.9-9.3
					c3-0.9,11.5-0.8,14.8,0.2c10.5,3.1,18.5,11.3,21.9,22.2c3.1,10.1,1.7,21.4-3.7,30.2c-3,4.8-8,9.5-12.6,11.8
					C-6293.9,6895.8-6300.6,6896.8-6306.4,6895.7z"/>
				<path class="st3" d="M-6337.6,6821c-14.3-1.7-26-10.5-32.4-24.6c-1-2.3-2.7-7.5-3.3-10.7c-0.5-2.6-0.6-5.3-0.6-59.7
					c0-54.1,0-57,0.5-58.6c1.8-5.7,6.3-9.3,12-9.9c7.2-0.7,13.5,4.6,14.7,12.3c0.2,1.4,0.3,18.1,0.3,49.9v47.8h2.8h2.8l0.1-131.8
					c0.1-126.3,0.1-131.9,0.6-133.7c1.8-6.5,5.7-11,11.5-13.2c2-0.7,2.7-0.9,5.9-0.9c2.7,0,4.1,0.1,5.4,0.6c6,2,10.4,6.5,12.3,12.8
					l0.8,2.6l0.1,77.3l0.1,77.3h2.8h2.8v-76.8c0-84.4-0.1-78.6,1.8-82.9c2-4.5,5.9-8.2,10.5-9.9c2.1-0.7,2.9-0.9,6-0.9
					c2.7,0,4.1,0.1,5.4,0.6c5.9,1.9,10.1,6.3,12,12.4l0.8,2.6l0.1,132l0.1,132h2.8h2.8v-48.4c0-53.6-0.1-50.8,1.9-54.6
					c1.4-2.5,3.3-4.5,5.9-5.8c3.6-1.9,8.4-1.8,12.1,0.1c2.2,1.1,4.5,3.5,5.6,5.8c1.9,4,1.8,0.1,1.8,60.4c0,59.6,0.1,57.3-1.6,63.6
					c-3.8,14.2-13.5,25.5-25.8,30c-6.4,2.3-4.4,2.2-44.3,2.3C-6320.4,6821.1-6337,6821.1-6337.6,6821z"/>
			</g>
			<g transform="translate(0.000000,1280.000000) scale(0.100000,-0.100000)">
				<path class="st3" d="M-6123.7,6900.8c-6.3-1.2-11.8-4.2-16.2-8.8c-12.8-13.2-13.2-35.4-0.8-49c4.1-4.5,8.8-7.4,14.9-9.3
					c3-0.9,11.5-0.8,14.8,0.2c10.5,3.1,18.5,11.3,21.9,22.2c3.1,10.1,1.7,21.4-3.7,30.2c-3,4.8-8,9.5-12.6,11.8
					C-6111.2,6901-6118,6902-6123.7,6900.8z"/>
				<path class="st3" d="M-6154.9,6826.2c-14.3-1.7-26-10.5-32.4-24.6c-1-2.3-2.7-7.5-3.3-10.7c-0.5-2.6-0.6-5.3-0.6-59.7
					c0-54.1,0-57,0.5-58.6c1.8-5.7,6.3-9.3,12-9.9c7.2-0.7,13.5,4.6,14.7,12.3c0.2,1.4,0.3,18.1,0.3,49.9v47.8h2.8h2.8l0.1-131.8
					c0.1-126.3,0.1-131.9,0.6-133.7c1.8-6.5,5.7-11,11.5-13.2c2-0.7,2.7-0.9,5.9-0.9c2.7,0,4.1,0.1,5.4,0.6c6,2,10.4,6.5,12.3,12.8
					l0.8,2.6l0.1,77.3l0.1,77.3h2.8h2.8v-76.8c0-84.4-0.1-78.6,1.8-82.9c2-4.5,5.9-8.2,10.5-9.9c2.1-0.7,2.9-0.9,6-0.9
					c2.7,0,4.1,0.1,5.4,0.6c5.9,1.9,10.1,6.3,12,12.4l0.8,2.6l0.1,132l0.1,132h2.8h2.8v-48.4c0-53.6-0.1-50.8,1.9-54.6
					c1.4-2.5,3.3-4.5,5.9-5.8c3.6-1.8,8.4-1.8,12.1,0.1c2.2,1.1,4.5,3.5,5.6,5.8c1.9,4,1.8,0.1,1.8,60.4c0,59.6,0.1,57.3-1.6,63.6
					c-3.8,14.2-13.5,25.5-25.8,30c-6.4,2.3-4.4,2.2-44.3,2.3C-6137.7,6826.3-6154.3,6826.2-6154.9,6826.2z"/>
			</g>
			<g transform="translate(0.000000,1280.000000) scale(0.100000,-0.100000)">
				<path class="st3" d="M-5954,6895.2c-6.3-1.2-11.8-4.2-16.2-8.8c-12.8-13.2-13.2-35.4-0.8-49c4.1-4.5,8.8-7.4,14.9-9.3
					c3-0.9,11.5-0.8,14.8,0.2c10.5,3.1,18.5,11.3,21.9,22.2c3.1,10.1,1.7,21.4-3.7,30.2c-3,4.8-8,9.5-12.6,11.8
					C-5941.5,6895.3-5948.3,6896.3-5954,6895.2z"/>
				<path class="st3" d="M-5985.2,6820.5c-14.3-1.7-26-10.5-32.4-24.6c-1-2.3-2.7-7.5-3.3-10.7c-0.5-2.6-0.6-5.3-0.6-59.7
					c0-54.1,0-57,0.5-58.6c1.8-5.7,6.3-9.3,12-9.9c7.2-0.7,13.5,4.6,14.7,12.3c0.2,1.4,0.3,18.1,0.3,49.9v47.8h2.8h2.8l0.1-131.8
					c0.1-126.3,0.1-131.9,0.6-133.7c1.8-6.5,5.7-11,11.5-13.2c2-0.7,2.7-0.9,5.9-0.9c2.7,0,4.1,0.1,5.4,0.6c6,2,10.4,6.5,12.3,12.8
					l0.8,2.6l0.1,77.3l0.1,77.3h2.8h2.8v-76.8c0-84.4-0.1-78.6,1.8-82.9c2-4.5,5.9-8.2,10.5-9.9c2.1-0.7,2.9-0.9,6-0.9
					c2.7,0,4.1,0.1,5.4,0.6c5.9,1.9,10.1,6.3,12,12.4l0.8,2.6l0.1,132l0.1,132h2.8h2.8v-48.4c0-53.6-0.1-50.8,1.9-54.6
					c1.4-2.5,3.3-4.5,5.9-5.8c3.6-1.9,8.4-1.8,12.1,0.1c2.2,1.1,4.5,3.5,5.6,5.8c1.9,4,1.8,0.1,1.8,60.4c0,59.6,0.1,57.3-1.6,63.6
					c-3.8,14.2-13.5,25.5-25.8,30c-6.4,2.3-4.4,2.2-44.3,2.3C-5968,6820.6-5984.6,6820.6-5985.2,6820.5z"/>
			</g>
			<g transform="translate(0.000000,1280.000000) scale(0.100000,-0.100000)">
				<path class="st3" d="M-5776.4,6892.3c-6.3-1.2-11.8-4.2-16.2-8.8c-12.8-13.2-13.2-35.4-0.8-49c4.1-4.5,8.8-7.4,14.9-9.3
					c3-0.9,11.5-0.8,14.8,0.2c10.5,3.1,18.5,11.3,21.9,22.2c3.1,10.1,1.7,21.4-3.7,30.2c-3,4.8-8,9.5-12.6,11.8
					C-5763.9,6892.4-5770.7,6893.4-5776.4,6892.3z"/>
				<path class="st3" d="M-5807.6,6817.6c-14.3-1.7-26-10.5-32.4-24.6c-1-2.3-2.7-7.5-3.3-10.7c-0.5-2.6-0.6-5.3-0.6-59.7
					c0-54.1,0-57,0.5-58.6c1.8-5.7,6.3-9.3,12-9.9c7.2-0.7,13.5,4.6,14.7,12.3c0.2,1.4,0.3,18.1,0.3,49.9v47.8h2.8h2.8l0.1-131.8
					c0.1-126.3,0.1-131.9,0.6-133.7c1.8-6.5,5.7-11,11.5-13.2c2-0.7,2.7-0.9,5.9-0.9c2.7,0,4.1,0.1,5.4,0.6c6,2,10.4,6.5,12.3,12.8
					l0.8,2.6l0.1,77.3l0.1,77.3h2.8h2.8v-76.8c0-84.4-0.1-78.6,1.8-82.9c2-4.5,5.9-8.2,10.5-9.9c2.1-0.7,2.9-0.9,6-0.9
					c2.7,0,4.1,0.1,5.4,0.6c5.9,1.9,10.1,6.3,12,12.4l0.8,2.6l0.1,132l0.1,132h2.8h2.8v-48.4c0-53.6-0.1-50.8,1.9-54.6
					c1.4-2.5,3.3-4.5,5.9-5.8c3.6-1.8,8.4-1.8,12.1,0.1c2.2,1.1,4.5,3.5,5.6,5.8c1.9,4,1.8,0.1,1.8,60.4c0,59.6,0.1,57.3-1.6,63.6
					c-3.8,14.2-13.5,25.5-25.8,30c-6.4,2.3-4.4,2.2-44.3,2.3C-5790.4,6817.7-5807,6817.7-5807.6,6817.6z"/>
			</g>
			<g transform="translate(0.000000,1280.000000) scale(0.100000,-0.100000)">
				<path class="st3" d="M-5604.5,6895c-6.3-1.2-11.8-4.2-16.2-8.8c-12.8-13.2-13.2-35.4-0.8-49c4.1-4.5,8.8-7.4,14.9-9.3
					c3-0.9,11.5-0.8,14.8,0.2c10.5,3.1,18.5,11.3,21.9,22.2c3.1,10.1,1.7,21.4-3.7,30.2c-3,4.8-8,9.5-12.6,11.8
					C-5592,6895.2-5598.8,6896.2-5604.5,6895z"/>
				<path class="st3" d="M-5635.7,6820.4c-14.3-1.7-26-10.5-32.4-24.6c-1-2.3-2.7-7.5-3.3-10.7c-0.5-2.6-0.6-5.3-0.6-59.7
					c0-54.1,0-57,0.5-58.6c1.8-5.7,6.3-9.3,12-9.9c7.2-0.7,13.5,4.6,14.7,12.3c0.2,1.4,0.3,18.1,0.3,49.9v47.8h2.8h2.8l0.1-131.8
					c0.1-126.3,0.1-131.9,0.6-133.7c1.8-6.5,5.7-11,11.5-13.2c2-0.7,2.7-0.9,5.9-0.9c2.7,0,4.1,0.1,5.4,0.6c6,2,10.4,6.5,12.3,12.8
					l0.8,2.6l0.1,77.3l0.1,77.3h2.8h2.8v-76.8c0-84.4-0.1-78.6,1.8-82.9c2-4.5,5.9-8.2,10.5-9.9c2.1-0.7,2.9-0.9,6-0.9
					c2.7,0,4.1,0.1,5.4,0.6c5.9,1.9,10.1,6.3,12,12.4l0.8,2.6l0.1,132l0.1,132h2.8h2.8v-48.4c0-53.6-0.1-50.8,1.9-54.6
					c1.4-2.5,3.3-4.5,5.9-5.8c3.6-1.8,8.4-1.8,12.1,0.1c2.2,1.1,4.5,3.5,5.6,5.8c1.9,4,1.8,0.1,1.8,60.4c0,59.6,0.1,57.3-1.6,63.6
					c-3.8,14.2-13.5,25.5-25.8,30c-6.4,2.3-4.4,2.2-44.3,2.3C-5618.5,6820.4-5635.1,6820.4-5635.7,6820.4z"/>
			</g>
			<g transform="translate(0.000000,1280.000000) scale(0.100000,-0.100000)">
				<path class="st3" d="M-5426.2,6895.4c-6.3-1.2-11.8-4.2-16.2-8.8c-12.8-13.2-13.2-35.4-0.8-49c4.1-4.5,8.8-7.4,14.9-9.3
					c3-0.9,11.5-0.8,14.8,0.2c10.5,3.1,18.5,11.3,21.9,22.2c3.1,10.1,1.7,21.4-3.7,30.2c-3,4.8-8,9.5-12.6,11.8
					C-5413.7,6895.5-5420.5,6896.5-5426.2,6895.4z"/>
				<path class="st3" d="M-5457.4,6820.7c-14.3-1.7-26-10.5-32.4-24.6c-1-2.3-2.7-7.5-3.3-10.7c-0.5-2.6-0.6-5.3-0.6-59.7
					c0-54.1,0-57,0.5-58.6c1.8-5.7,6.3-9.3,12-9.9c7.2-0.7,13.5,4.6,14.7,12.3c0.2,1.4,0.3,18.1,0.3,49.9v47.8h2.8h2.8l0.1-131.8
					c0.1-126.3,0.1-131.9,0.6-133.7c1.8-6.5,5.7-11,11.5-13.2c2-0.7,2.7-0.9,5.9-0.9c2.7,0,4.1,0.1,5.4,0.6c6,2,10.4,6.5,12.3,12.8
					l0.8,2.6l0.1,77.3l0.1,77.3h2.8h2.8v-76.8c0-84.4-0.1-78.6,1.8-82.9c2-4.5,5.9-8.2,10.5-9.9c2.1-0.7,2.9-0.9,6-0.9
					c2.7,0,4.1,0.1,5.4,0.6c5.9,1.9,10.1,6.3,12,12.4l0.8,2.6l0.1,132l0.1,132h2.8h2.8v-48.4c0-53.6-0.1-50.8,1.9-54.6
					c1.4-2.5,3.3-4.5,5.9-5.8c3.6-1.8,8.4-1.8,12.1,0.1c2.2,1.1,4.5,3.5,5.6,5.8c1.9,4,1.8,0.1,1.8,60.4c0,59.6,0.1,57.3-1.6,63.6
					c-3.8,14.2-13.5,25.5-25.8,30c-6.4,2.3-4.4,2.2-44.3,2.3C-5440.2,6820.8-5456.8,6820.8-5457.4,6820.7z"/>
			</g>
			<g transform="translate(0.000000,1280.000000) scale(0.100000,-0.100000)">
				<path class="st3" d="M-5247.4,6896.4c-6.3-1.2-11.8-4.2-16.2-8.8c-12.8-13.2-13.2-35.4-0.8-49c4.1-4.5,8.8-7.4,14.9-9.3
					c3-0.9,11.5-0.8,14.8,0.2c10.5,3.1,18.5,11.3,21.9,22.2c3.1,10.1,1.7,21.4-3.7,30.2c-3,4.8-8,9.5-12.6,11.8
					C-5234.9,6896.5-5241.7,6897.5-5247.4,6896.4z"/>
				<path class="st3" d="M-5278.6,6821.7c-14.3-1.7-26-10.5-32.4-24.6c-1-2.3-2.7-7.5-3.3-10.7c-0.5-2.6-0.6-5.3-0.6-59.7
					c0-54.1,0-57,0.5-58.6c1.8-5.7,6.3-9.3,12-9.9c7.2-0.7,13.5,4.6,14.7,12.3c0.2,1.4,0.3,18.1,0.3,49.9v47.8h2.8h2.8l0.1-131.8
					c0.1-126.3,0.1-131.9,0.6-133.7c1.8-6.5,5.7-11,11.5-13.2c2-0.7,2.7-0.9,5.9-0.9c2.7,0,4.1,0.1,5.4,0.6c6,2,10.4,6.5,12.3,12.8
					l0.8,2.6l0.1,77.3l0.1,77.3h2.8h2.8v-76.8c0-84.4-0.1-78.6,1.8-82.9c2-4.5,5.9-8.2,10.5-9.9c2.1-0.7,2.9-0.9,6-0.9
					c2.7,0,4.1,0.1,5.4,0.6c5.9,1.9,10.1,6.3,12,12.4l0.8,2.6l0.1,132l0.1,132h2.8h2.8v-48.4c0-53.6-0.1-50.8,1.9-54.6
					c1.4-2.5,3.3-4.5,5.9-5.8c3.6-1.9,8.4-1.8,12.1,0.1c2.2,1.1,4.5,3.5,5.6,5.8c1.9,4,1.8,0.1,1.8,60.4c0,59.6,0.1,57.3-1.6,63.6
					c-3.8,14.2-13.5,25.5-25.8,30c-6.4,2.3-4.4,2.2-44.3,2.3C-5261.5,6821.8-5278.1,6821.8-5278.6,6821.7z"/>
			</g>
			<g transform="translate(0.000000,1280.000000) scale(0.100000,-0.100000)">
				<path class="st3" d="M-5076.1,6895.9c-6.3-1.2-11.8-4.2-16.2-8.8c-12.8-13.2-13.2-35.4-0.8-49c4.1-4.5,8.8-7.4,14.9-9.3
					c3-0.9,11.5-0.8,14.8,0.2c10.5,3.1,18.5,11.3,21.9,22.2c3.1,10.1,1.7,21.4-3.7,30.2c-3,4.8-8,9.5-12.6,11.8
					C-5063.6,6896-5070.4,6897.1-5076.1,6895.9z"/>
				<path class="st3" d="M-5107.3,6821.2c-14.3-1.7-26-10.5-32.4-24.6c-1-2.3-2.7-7.5-3.3-10.7c-0.5-2.6-0.6-5.3-0.6-59.7
					c0-54.1,0-57,0.5-58.6c1.8-5.7,6.3-9.3,12-9.9c7.2-0.7,13.5,4.6,14.7,12.3c0.2,1.4,0.3,18.1,0.3,49.9v47.8h2.8h2.8l0.1-131.8
					c0.1-126.3,0.1-131.9,0.6-133.7c1.8-6.5,5.7-11,11.5-13.2c2-0.7,2.7-0.9,5.9-0.9c2.7,0,4.1,0.1,5.4,0.6c6,2,10.4,6.5,12.3,12.8
					l0.8,2.6l0.1,77.3l0.1,77.3h2.8h2.8v-76.8c0-84.4-0.1-78.6,1.8-82.9c2-4.5,5.9-8.2,10.5-9.9c2.1-0.7,2.9-0.9,6-0.9
					c2.7,0,4.1,0.1,5.4,0.6c5.9,1.9,10.1,6.3,12,12.4l0.8,2.6l0.1,132l0.1,132h2.8h2.8v-48.4c0-53.6-0.1-50.9,1.9-54.6
					c1.4-2.5,3.3-4.5,5.9-5.8c3.6-1.9,8.4-1.8,12.1,0.1c2.2,1.1,4.5,3.5,5.6,5.8c1.9,4,1.8,0.1,1.8,60.4c0,59.6,0.1,57.3-1.6,63.6
					c-3.8,14.2-13.5,25.5-25.8,30c-6.4,2.3-4.4,2.2-44.3,2.3C-5090.1,6821.3-5106.7,6821.3-5107.3,6821.2z"/>
			</g>
			<g transform="translate(0.000000,1280.000000) scale(0.100000,-0.100000)">
				<path class="st3" d="M-4907.9,6896.7c-6.3-1.2-11.8-4.2-16.2-8.8c-12.8-13.2-13.2-35.4-0.8-49c4.1-4.5,8.8-7.4,14.9-9.3
					c3-0.9,11.5-0.8,14.8,0.2c10.5,3.1,18.5,11.3,21.9,22.2c3.1,10.1,1.7,21.4-3.7,30.2c-3,4.8-8,9.5-12.6,11.8
					C-4895.4,6896.8-4902.2,6897.8-4907.9,6896.7z"/>
				<path class="st3" d="M-4939.1,6822c-14.3-1.7-26-10.5-32.4-24.6c-1-2.3-2.7-7.5-3.3-10.7c-0.5-2.6-0.6-5.3-0.6-59.7
					c0-54.1,0-57,0.5-58.6c1.8-5.7,6.3-9.3,12-9.9c7.2-0.7,13.5,4.6,14.7,12.3c0.2,1.4,0.3,18.1,0.3,49.9v47.8h2.8h2.8l0.1-131.8
					c0.1-126.3,0.1-131.9,0.6-133.7c1.8-6.5,5.7-11,11.5-13.2c2-0.7,2.7-0.9,5.9-0.9c2.7,0,4.1,0.1,5.4,0.6c6,2,10.4,6.5,12.3,12.8
					l0.8,2.6l0.1,77.3l0.1,77.3h2.8h2.8v-76.8c0-84.4-0.1-78.6,1.8-82.9c2-4.5,5.9-8.2,10.5-9.9c2.1-0.7,2.9-0.9,6-0.9
					c2.7,0,4.1,0.1,5.4,0.6c5.9,1.9,10.1,6.3,12,12.4l0.8,2.6l0.1,132l0.1,132h2.8h2.8v-48.4c0-53.6-0.1-50.8,1.9-54.6
					c1.4-2.5,3.3-4.5,5.9-5.8c3.6-1.9,8.4-1.8,12.1,0.1c2.2,1.1,4.5,3.5,5.6,5.8c1.9,4,1.8,0.1,1.8,60.4c0,59.6,0.1,57.3-1.6,63.6
					c-3.8,14.2-13.5,25.5-25.8,30c-6.4,2.3-4.4,2.2-44.3,2.3C-4922,6822.1-4938.5,6822-4939.1,6822z"/>
			</g>
			<g transform="translate(0.000000,1280.000000) scale(0.100000,-0.100000)">
				<path class="st3" d="M-4742.7,6895.1c-6.3-1.2-11.8-4.2-16.2-8.8c-12.8-13.2-13.2-35.4-0.8-49c4.1-4.5,8.8-7.4,14.9-9.3
					c3-0.9,11.5-0.8,14.8,0.2c10.5,3.1,18.5,11.3,21.9,22.2c3.1,10.1,1.7,21.4-3.7,30.2c-3,4.8-8,9.5-12.6,11.8
					C-4730.2,6895.3-4737,6896.3-4742.7,6895.1z"/>
				<path class="st3" d="M-4773.9,6820.5c-14.3-1.7-26-10.5-32.4-24.6c-1-2.3-2.7-7.5-3.3-10.7c-0.5-2.6-0.6-5.3-0.6-59.7
					c0-54.1,0-57,0.5-58.6c1.8-5.7,6.3-9.3,12-9.9c7.2-0.7,13.5,4.6,14.7,12.3c0.2,1.4,0.3,18.1,0.3,49.9v47.8h2.8h2.8l0.1-131.8
					c0.1-126.3,0.1-131.9,0.6-133.7c1.8-6.5,5.7-11,11.5-13.2c2-0.7,2.7-0.9,5.9-0.9c2.7,0,4.1,0.1,5.4,0.6c6,2,10.4,6.5,12.3,12.8
					l0.8,2.6l0.1,77.3l0.1,77.3h2.8h2.8v-76.8c0-84.4-0.1-78.6,1.8-82.9c2-4.5,5.9-8.2,10.5-9.9c2.1-0.7,2.9-0.9,6-0.9
					c2.7,0,4.1,0.1,5.4,0.6c5.9,1.9,10.1,6.3,12,12.4l0.8,2.6l0.1,132l0.1,132h2.8h2.8v-48.4c0-53.6-0.1-50.8,1.9-54.6
					c1.4-2.5,3.3-4.5,5.9-5.8c3.6-1.8,8.4-1.8,12.1,0.1c2.2,1.1,4.5,3.5,5.6,5.8c1.9,4,1.8,0.1,1.8,60.4c0,59.6,0.1,57.3-1.6,63.6
					c-3.8,14.2-13.5,25.5-25.8,30c-6.4,2.3-4.4,2.2-44.3,2.3C-4756.8,6820.6-4773.4,6820.5-4773.9,6820.5z"/>
			</g>
			<g transform="translate(0.000000,1280.000000) scale(0.100000,-0.100000)">
				<path class="st3" d="M-4586.9,6901.6c-6.3-1.2-11.8-4.2-16.2-8.8c-12.8-13.2-13.2-35.4-0.8-49c4.1-4.5,8.8-7.4,14.9-9.3
					c3-0.9,11.5-0.8,14.8,0.2c10.5,3.1,18.5,11.3,21.9,22.2c3.1,10.1,1.7,21.4-3.7,30.2c-3,4.8-8,9.5-12.6,11.8
					C-4574.4,6901.8-4581.2,6902.8-4586.9,6901.6z"/>
				<path class="st3" d="M-4618.1,6827c-14.3-1.7-26-10.5-32.4-24.6c-1-2.3-2.7-7.5-3.3-10.7c-0.5-2.6-0.6-5.3-0.6-59.7
					c0-54.1,0-57,0.5-58.6c1.8-5.7,6.3-9.3,12-9.9c7.2-0.7,13.5,4.6,14.7,12.3c0.2,1.4,0.3,18.1,0.3,49.9v47.8h2.8h2.8l0.1-131.8
					c0.1-126.3,0.1-131.9,0.6-133.7c1.8-6.5,5.7-11,11.5-13.2c2-0.7,2.7-0.9,5.9-0.9c2.7,0,4.1,0.1,5.4,0.6c6,2,10.4,6.5,12.3,12.8
					l0.8,2.6l0.1,77.3l0.1,77.3h2.8h2.8v-76.8c0-84.4-0.1-78.6,1.8-82.9c2-4.5,5.9-8.2,10.5-9.9c2.1-0.7,2.9-0.9,6-0.9
					c2.7,0,4.1,0.1,5.4,0.6c5.9,1.9,10.1,6.3,12,12.4l0.8,2.6l0.1,132l0.1,132h2.8h2.8v-48.4c0-53.6-0.1-50.8,1.9-54.6
					c1.4-2.5,3.3-4.5,5.9-5.8c3.6-1.8,8.4-1.8,12.1,0.1c2.2,1.1,4.5,3.5,5.6,5.8c1.9,4,1.8,0.1,1.8,60.4c0,59.6,0.1,57.3-1.6,63.6
					c-3.8,14.2-13.5,25.5-25.8,30c-6.4,2.3-4.4,2.2-44.3,2.3C-4600.9,6827.1-4617.5,6827-4618.1,6827z"/>
			</g>
			<g transform="translate(0.000000,1280.000000) scale(0.100000,-0.100000)">
				<path class="st3" d="M-4417.2,6896c-6.3-1.2-11.8-4.2-16.2-8.8c-12.8-13.2-13.2-35.4-0.8-49c4.1-4.5,8.8-7.4,14.9-9.3
					c3-0.9,11.5-0.8,14.8,0.2c10.5,3.1,18.5,11.3,21.9,22.2c3.1,10.1,1.7,21.4-3.7,30.2c-3,4.8-8,9.5-12.6,11.8
					C-4404.7,6896.1-4411.5,6897.1-4417.2,6896z"/>
				<path class="st3" d="M-4448.4,6821.3c-14.3-1.7-26-10.5-32.4-24.6c-1-2.3-2.7-7.5-3.3-10.7c-0.5-2.6-0.6-5.3-0.6-59.7
					c0-54.1,0-57,0.5-58.6c1.8-5.7,6.3-9.3,12-9.9c7.2-0.7,13.5,4.6,14.7,12.3c0.2,1.4,0.3,18.1,0.3,49.9v47.8h2.8h2.8l0.1-131.8
					c0.1-126.3,0.1-131.9,0.6-133.7c1.8-6.5,5.7-11,11.5-13.2c2-0.7,2.7-0.9,5.9-0.9c2.7,0,4.1,0.1,5.4,0.6c6,2,10.4,6.5,12.3,12.8
					l0.8,2.6l0.1,77.3l0.1,77.3h2.8h2.8V6582c0-84.4-0.1-78.6,1.8-82.9c2-4.5,5.9-8.2,10.5-9.9c2.1-0.7,2.9-0.9,6-0.9
					c2.7,0,4.1,0.1,5.4,0.6c5.9,1.9,10.1,6.3,12,12.4l0.8,2.6l0.1,132l0.1,132h2.8h2.8v-48.4c0-53.6-0.1-50.8,1.9-54.6
					c1.4-2.5,3.3-4.5,5.9-5.8c3.6-1.9,8.4-1.8,12.1,0.1c2.2,1.1,4.5,3.5,5.6,5.8c1.9,4,1.8,0.1,1.8,60.4c0,59.6,0.1,57.3-1.6,63.6
					c-3.8,14.2-13.5,25.5-25.8,30c-6.4,2.3-4.4,2.2-44.3,2.3C-4431.2,6821.4-4447.8,6821.4-4448.4,6821.3z"/>
			</g>
			<g transform="translate(0.000000,1280.000000) scale(0.100000,-0.100000)">
				<path class="st3" d="M-4239.6,6893.1c-6.3-1.2-11.8-4.2-16.2-8.8c-12.8-13.2-13.2-35.4-0.8-49c4.1-4.5,8.8-7.4,14.9-9.3
					c3-0.9,11.5-0.8,14.8,0.2c10.5,3.1,18.5,11.3,21.9,22.2c3.1,10.1,1.7,21.4-3.7,30.2c-3,4.8-8,9.5-12.6,11.8
					C-4227.1,6893.2-4233.9,6894.2-4239.6,6893.1z"/>
				<path class="st3" d="M-4270.8,6818.4c-14.3-1.7-26-10.5-32.4-24.6c-1-2.3-2.7-7.5-3.3-10.7c-0.5-2.6-0.6-5.3-0.6-59.7
					c0-54.1,0-57,0.5-58.6c1.8-5.7,6.3-9.3,12-9.9c7.2-0.7,13.5,4.6,14.7,12.3c0.2,1.4,0.3,18.1,0.3,49.9v47.8h2.8h2.8l0.1-131.8
					c0.1-126.3,0.1-131.9,0.6-133.7c1.8-6.5,5.7-11,11.5-13.2c2-0.7,2.7-0.9,5.9-0.9c2.7,0,4.1,0.1,5.4,0.6c6,2,10.4,6.5,12.3,12.8
					l0.8,2.6l0.1,77.3l0.1,77.3h2.8h2.8v-76.8c0-84.4-0.1-78.6,1.8-82.9c2-4.5,5.9-8.2,10.5-9.9c2.1-0.7,2.9-0.9,6-0.9
					c2.7,0,4.1,0.1,5.4,0.6c5.9,1.9,10.1,6.3,12,12.4l0.8,2.6l0.1,132l0.1,132h2.8h2.8v-48.4c0-53.6-0.1-50.8,1.9-54.6
					c1.4-2.5,3.3-4.5,5.9-5.8c3.6-1.8,8.4-1.8,12.1,0.1c2.2,1.1,4.5,3.5,5.6,5.8c1.9,4,1.8,0.1,1.8,60.4c0,59.6,0.1,57.3-1.6,63.6
					c-3.8,14.2-13.5,25.5-25.8,30c-6.4,2.3-4.4,2.2-44.3,2.3C-4253.6,6818.5-4270.2,6818.5-4270.8,6818.4z"/>
			</g>
			<g transform="translate(0.000000,1280.000000) scale(0.100000,-0.100000)">
				<path class="st3" d="M-4067.7,6895.8c-6.3-1.2-11.8-4.2-16.2-8.8c-12.8-13.2-13.2-35.4-0.8-49c4.1-4.5,8.8-7.4,14.9-9.3
					c3-0.9,11.5-0.8,14.8,0.2c10.5,3.1,18.5,11.3,21.9,22.2c3.1,10.1,1.7,21.4-3.7,30.2c-3,4.8-8,9.5-12.6,11.8
					C-4055.2,6896-4062,6897-4067.7,6895.8z"/>
				<path class="st3" d="M-4098.9,6821.2c-14.3-1.7-26-10.5-32.4-24.6c-1-2.3-2.7-7.5-3.3-10.7c-0.5-2.6-0.6-5.3-0.6-59.7
					c0-54.1,0-57,0.5-58.6c1.8-5.7,6.3-9.3,12-9.9c7.2-0.7,13.5,4.6,14.7,12.3c0.2,1.4,0.3,18.1,0.3,49.9v47.8h2.8h2.8l0.1-131.8
					c0.1-126.3,0.1-131.9,0.6-133.7c1.8-6.5,5.7-11,11.5-13.2c2-0.7,2.7-0.9,5.9-0.9c2.7,0,4.1,0.1,5.4,0.6c6,2,10.4,6.5,12.3,12.8
					l0.8,2.6l0.1,77.3l0.1,77.3h2.8h2.8v-76.8c0-84.4-0.1-78.6,1.8-82.9c2-4.5,5.9-8.2,10.5-9.9c2.1-0.7,2.9-0.9,6-0.9
					c2.7,0,4.1,0.1,5.4,0.6c5.9,1.9,10.1,6.3,12,12.4l0.8,2.6l0.1,132l0.1,132h2.8h2.8v-48.4c0-53.6-0.1-50.8,1.9-54.6
					c1.4-2.5,3.3-4.5,5.9-5.8c3.6-1.8,8.4-1.8,12.1,0.1c2.2,1.1,4.5,3.5,5.6,5.8c1.9,4,1.8,0.1,1.8,60.4c0,59.6,0.1,57.3-1.6,63.6
					c-3.8,14.2-13.5,25.5-25.8,30c-6.4,2.3-4.4,2.2-44.3,2.3C-4081.7,6821.2-4098.3,6821.2-4098.9,6821.2z"/>
			</g>
			<g transform="translate(0.000000,1280.000000) scale(0.100000,-0.100000)">
				<path class="st3" d="M-3889.4,6896.2c-6.3-1.2-11.8-4.2-16.2-8.8c-12.8-13.2-13.2-35.4-0.8-49c4.1-4.5,8.8-7.4,14.9-9.3
					c3-0.9,11.5-0.8,14.8,0.2c10.5,3.1,18.5,11.3,21.9,22.2c3.1,10.1,1.7,21.4-3.7,30.2c-3,4.8-8,9.5-12.6,11.8
					C-3876.9,6896.3-3883.7,6897.3-3889.4,6896.2z"/>
				<path class="st3" d="M-3920.6,6821.5c-14.3-1.7-26-10.5-32.4-24.6c-1-2.3-2.7-7.5-3.3-10.7c-0.5-2.6-0.6-5.3-0.6-59.7
					c0-54.1,0-57,0.5-58.6c1.8-5.7,6.3-9.3,12-9.9c7.2-0.7,13.5,4.6,14.7,12.3c0.2,1.4,0.3,18.1,0.3,49.9v47.8h2.8h2.8l0.1-131.8
					c0.1-126.3,0.1-131.9,0.6-133.7c1.8-6.5,5.7-11,11.5-13.2c2-0.7,2.7-0.9,5.9-0.9c2.7,0,4.1,0.1,5.4,0.6c6,2,10.4,6.5,12.3,12.8
					l0.8,2.6l0.1,77.3l0.1,77.3h2.8h2.8v-76.8c0-84.4-0.1-78.6,1.8-82.9c2-4.5,5.9-8.2,10.5-9.9c2.1-0.7,2.9-0.9,6-0.9
					c2.7,0,4.1,0.1,5.4,0.6c5.9,1.9,10.1,6.3,12,12.4l0.8,2.6l0.1,132l0.1,132h2.8h2.8v-48.4c0-53.6-0.1-50.8,1.9-54.6
					c1.4-2.5,3.3-4.5,5.9-5.8c3.6-1.8,8.4-1.8,12.1,0.1c2.2,1.1,4.5,3.5,5.6,5.8c1.9,4,1.8,0.1,1.8,60.4c0,59.6,0.1,57.3-1.6,63.6
					c-3.8,14.2-13.5,25.5-25.8,30c-6.4,2.3-4.4,2.2-44.3,2.3C-3903.4,6821.6-3920,6821.6-3920.6,6821.5z"/>
			</g>
			<g transform="translate(0.000000,1280.000000) scale(0.100000,-0.100000)">
				<path class="st3" d="M-3710.6,6897.2c-6.3-1.2-11.8-4.2-16.2-8.8c-12.8-13.2-13.2-35.4-0.8-49c4.1-4.5,8.8-7.4,14.9-9.3
					c3-0.9,11.5-0.8,14.8,0.2c10.5,3.1,18.5,11.3,21.9,22.2c3.1,10.1,1.7,21.4-3.7,30.2c-3,4.8-8,9.5-12.6,11.8
					C-3698.1,6897.3-3704.9,6898.3-3710.6,6897.2z"/>
				<path class="st3" d="M-3741.8,6822.5c-14.3-1.7-26-10.5-32.4-24.6c-1-2.3-2.7-7.5-3.3-10.7c-0.5-2.6-0.6-5.3-0.6-59.7
					c0-54.1,0-57,0.5-58.6c1.8-5.7,6.3-9.3,12-9.9c7.2-0.7,13.5,4.6,14.7,12.3c0.2,1.4,0.3,18.1,0.3,49.9v47.8h2.8h2.8l0.1-131.8
					c0.1-126.3,0.1-131.9,0.6-133.7c1.8-6.5,5.7-11,11.5-13.2c2-0.7,2.7-0.9,5.9-0.9c2.7,0,4.1,0.1,5.4,0.6c6,2,10.4,6.5,12.3,12.8
					l0.8,2.6l0.1,77.3l0.1,77.3h2.8h2.8v-76.8c0-84.4-0.1-78.6,1.8-82.9c2-4.5,5.9-8.2,10.5-9.9c2.1-0.7,2.9-0.9,6-0.9
					c2.7,0,4.1,0.1,5.4,0.6c5.9,1.9,10.1,6.3,12,12.4l0.8,2.6l0.1,132l0.1,132h2.8h2.8v-48.4c0-53.6-0.1-50.8,1.9-54.6
					c1.4-2.5,3.3-4.5,5.9-5.8c3.6-1.9,8.4-1.8,12.1,0.1c2.2,1.1,4.5,3.5,5.6,5.8c1.9,4,1.8,0.1,1.8,60.4c0,59.6,0.1,57.3-1.6,63.6
					c-3.8,14.2-13.5,25.5-25.8,30c-6.4,2.3-4.4,2.2-44.3,2.3C-3724.7,6822.6-3741.3,6822.6-3741.8,6822.5z"/>
			</g>
			<g transform="translate(0.000000,1280.000000) scale(0.100000,-0.100000)">
				<path class="st3" d="M-3539.3,6896.7c-6.3-1.2-11.8-4.2-16.2-8.8c-12.8-13.2-13.2-35.4-0.8-49c4.1-4.5,8.8-7.4,14.9-9.3
					c3-0.9,11.5-0.8,14.8,0.2c10.5,3.1,18.5,11.3,21.9,22.2c3.1,10.1,1.7,21.4-3.7,30.2c-3,4.8-8,9.5-12.6,11.8
					C-3526.8,6896.8-3533.6,6897.9-3539.3,6896.7z"/>
				<path class="st3" d="M-3570.5,6822c-14.3-1.7-26-10.5-32.4-24.6c-1-2.3-2.7-7.5-3.3-10.7c-0.5-2.6-0.6-5.3-0.6-59.7
					c0-54.1,0-57,0.5-58.6c1.8-5.7,6.3-9.3,12-9.9c7.2-0.7,13.5,4.6,14.7,12.3c0.2,1.4,0.3,18.1,0.3,49.9v47.8h2.8h2.8l0.1-131.8
					c0.1-126.3,0.1-131.9,0.6-133.7c1.8-6.5,5.7-11,11.5-13.2c2-0.7,2.7-0.9,5.9-0.9c2.7,0,4.1,0.1,5.4,0.6c6,2,10.4,6.5,12.3,12.8
					l0.8,2.6l0.1,77.3l0.1,77.3h2.8h2.8v-76.8c0-84.4-0.1-78.6,1.8-82.9c2-4.5,5.9-8.2,10.5-9.9c2.1-0.7,2.9-0.9,6-0.9
					c2.7,0,4.1,0.1,5.4,0.6c5.9,1.9,10.1,6.3,12,12.4l0.8,2.6l0.1,132l0.1,132h2.8h2.8v-48.4c0-53.6-0.1-50.9,1.9-54.6
					c1.4-2.5,3.3-4.5,5.9-5.8c3.6-1.9,8.4-1.8,12.1,0.1c2.2,1.1,4.5,3.5,5.6,5.8c1.9,4,1.8,0.1,1.8,60.4c0,59.6,0.1,57.3-1.6,63.6
					c-3.8,14.2-13.5,25.5-25.8,30c-6.4,2.3-4.4,2.2-44.3,2.3C-3553.3,6822.1-3569.9,6822.1-3570.5,6822z"/>
			</g>
			<g transform="translate(0.000000,1280.000000) scale(0.100000,-0.100000)">
				<path class="st3" d="M-3371.1,6897.5c-6.3-1.2-11.8-4.2-16.2-8.8c-12.8-13.2-13.2-35.4-0.8-49c4.1-4.5,8.8-7.4,14.9-9.3
					c3-0.9,11.5-0.8,14.8,0.2c10.5,3.1,18.5,11.3,21.9,22.2c3.1,10.1,1.7,21.4-3.7,30.2c-3,4.8-8,9.5-12.6,11.8
					C-3358.6,6897.6-3365.4,6898.6-3371.1,6897.5z"/>
				<path class="st3" d="M-3402.3,6822.8c-14.3-1.7-26-10.5-32.4-24.6c-1-2.3-2.7-7.5-3.3-10.7c-0.5-2.6-0.6-5.3-0.6-59.7
					c0-54.1,0-57,0.5-58.6c1.8-5.7,6.3-9.3,12-9.9c7.2-0.7,13.5,4.6,14.7,12.3c0.2,1.4,0.3,18.1,0.3,49.9v47.8h2.8h2.8l0.1-131.8
					c0.1-126.3,0.1-131.9,0.6-133.7c1.8-6.5,5.7-11,11.5-13.2c2-0.7,2.7-0.9,5.9-0.9c2.7,0,4.1,0.1,5.4,0.6c6,2,10.4,6.5,12.3,12.8
					l0.8,2.6l0.1,77.3l0.1,77.3h2.8h2.8v-76.8c0-84.4-0.1-78.6,1.8-82.9c2-4.5,5.9-8.2,10.5-9.9c2.1-0.7,2.9-0.9,6-0.9
					c2.7,0,4.1,0.1,5.4,0.6c5.9,1.9,10.1,6.3,12,12.4l0.8,2.6l0.1,132l0.1,132h2.8h2.8V6721c0-53.6-0.1-50.8,1.9-54.6
					c1.4-2.5,3.3-4.5,5.9-5.8c3.6-1.9,8.4-1.8,12.1,0.1c2.2,1.1,4.5,3.5,5.6,5.8c1.9,4,1.8,0.1,1.8,60.4c0,59.6,0.1,57.3-1.6,63.6
					c-3.8,14.2-13.5,25.5-25.8,30c-6.4,2.3-4.4,2.2-44.3,2.3C-3385.2,6822.9-3401.7,6822.8-3402.3,6822.8z"/>
			</g>
			<g transform="translate(0.000000,1280.000000) scale(0.100000,-0.100000)">
				<path class="st3" d="M-3205.9,6895.9c-6.3-1.2-11.8-4.2-16.2-8.8c-12.8-13.2-13.2-35.4-0.8-49c4.1-4.5,8.8-7.4,14.9-9.3
					c3-0.9,11.5-0.8,14.8,0.2c10.5,3.1,18.5,11.3,21.9,22.2c3.1,10.1,1.7,21.4-3.7,30.2c-3,4.8-8,9.5-12.6,11.8
					C-3193.4,6896.1-3200.2,6897.1-3205.9,6895.9z"/>
				<path class="st3" d="M-3237.1,6821.3c-14.3-1.7-26-10.5-32.4-24.6c-1-2.3-2.7-7.5-3.3-10.7c-0.5-2.6-0.6-5.3-0.6-59.7
					c0-54.1,0-57,0.5-58.6c1.8-5.7,6.3-9.3,12-9.9c7.2-0.7,13.5,4.6,14.7,12.3c0.2,1.4,0.3,18.1,0.3,49.9v47.8h2.8h2.8l0.1-131.8
					c0.1-126.3,0.1-131.9,0.6-133.7c1.8-6.5,5.7-11,11.5-13.2c2-0.7,2.7-0.9,5.9-0.9c2.7,0,4.1,0.1,5.4,0.6c6,2,10.4,6.5,12.3,12.8
					l0.8,2.6l0.1,77.3l0.1,77.3h2.8h2.8V6582c0-84.4-0.1-78.6,1.8-82.9c2-4.5,5.9-8.2,10.5-9.9c2.1-0.7,2.9-0.9,6-0.9
					c2.7,0,4.1,0.1,5.4,0.6c5.9,1.9,10.1,6.3,12,12.4l0.8,2.6l0.1,132l0.1,132h2.8h2.8v-48.4c0-53.6-0.1-50.8,1.9-54.6
					c1.4-2.5,3.3-4.5,5.9-5.8c3.6-1.8,8.4-1.8,12.1,0.1c2.2,1.1,4.5,3.5,5.6,5.8c1.9,4,1.8,0.1,1.8,60.4c0,59.6,0.1,57.3-1.6,63.6
					c-3.8,14.2-13.5,25.5-25.8,30c-6.4,2.3-4.4,2.2-44.3,2.3C-3220,6821.4-3236.6,6821.3-3237.1,6821.3z"/>
			</g>
			<g transform="translate(0.000000,1280.000000) scale(0.100000,-0.100000)">
				<path class="st3" d="M-3044.5,6901.2c-6.3-1.2-11.8-4.2-16.2-8.8c-12.8-13.2-13.2-35.4-0.8-49c4.1-4.5,8.8-7.4,14.9-9.3
					c3-0.9,11.5-0.8,14.8,0.2c10.5,3.1,18.5,11.3,21.9,22.2c3.1,10.1,1.7,21.4-3.7,30.2c-3,4.8-8,9.5-12.6,11.8
					C-3032,6901.3-3038.8,6902.4-3044.5,6901.2z"/>
				<path class="st3" d="M-3075.7,6826.5c-14.3-1.7-26-10.5-32.4-24.6c-1-2.3-2.7-7.5-3.3-10.7c-0.5-2.6-0.6-5.3-0.6-59.7
					c0-54.1,0-57,0.5-58.6c1.8-5.7,6.3-9.3,12-9.9c7.2-0.7,13.5,4.6,14.7,12.3c0.2,1.4,0.3,18.1,0.3,49.9v47.8h2.8h2.8l0.1-131.8
					c0.1-126.3,0.1-131.9,0.6-133.7c1.8-6.5,5.7-11,11.5-13.2c2-0.7,2.7-0.9,5.9-0.9c2.7,0,4.1,0.1,5.4,0.6c6,2,10.4,6.5,12.3,12.8
					l0.8,2.6l0.1,77.3l0.1,77.3h2.8h2.8v-76.8c0-84.4-0.1-78.6,1.8-82.9c2-4.5,5.9-8.2,10.5-9.9c2.1-0.7,2.9-0.9,6-0.9
					c2.7,0,4.1,0.1,5.4,0.6c5.9,1.9,10.1,6.3,12,12.4l0.8,2.6l0.1,132l0.1,132h2.8h2.8v-48.4c0-53.6-0.1-50.8,1.9-54.6
					c1.4-2.5,3.3-4.5,5.9-5.8c3.6-1.9,8.4-1.8,12.1,0.1c2.2,1.1,4.5,3.5,5.6,5.8c1.9,4,1.8,0.1,1.8,60.4c0,59.6,0.1,57.3-1.6,63.6
					c-3.8,14.2-13.5,25.5-25.8,30c-6.4,2.3-4.4,2.2-44.3,2.3C-3058.6,6826.6-3075.1,6826.6-3075.7,6826.5z"/>
			</g>
			<g transform="translate(0.000000,1280.000000) scale(0.100000,-0.100000)">
				<path class="st3" d="M-2874.8,6895.6c-6.3-1.2-11.8-4.2-16.2-8.8c-12.8-13.2-13.2-35.4-0.8-49c4.1-4.5,8.8-7.4,14.9-9.3
					c3-0.9,11.5-0.8,14.8,0.2c10.5,3.1,18.5,11.3,21.9,22.2c3.1,10.1,1.7,21.4-3.7,30.2c-3,4.8-8,9.5-12.6,11.8
					C-2862.3,6895.7-2869.1,6896.7-2874.8,6895.6z"/>
				<path class="st3" d="M-2906,6820.9c-14.3-1.7-26-10.5-32.4-24.6c-1-2.3-2.7-7.5-3.3-10.7c-0.5-2.6-0.6-5.3-0.6-59.7
					c0-54.1,0-57,0.5-58.6c1.8-5.7,6.3-9.3,12-9.9c7.2-0.7,13.5,4.6,14.7,12.3c0.2,1.4,0.3,18.1,0.3,49.9v47.8h2.8h2.8l0.1-131.8
					c0.1-126.3,0.1-131.9,0.6-133.7c1.8-6.5,5.7-11,11.5-13.2c2-0.7,2.7-0.9,5.9-0.9c2.7,0,4.1,0.1,5.4,0.6c6,2,10.4,6.5,12.3,12.8
					l0.8,2.6l0.1,77.3l0.1,77.3h2.8h2.8v-76.8c0-84.4-0.1-78.6,1.8-82.9c2-4.5,5.9-8.2,10.5-9.9c2.1-0.7,2.9-0.9,6-0.9
					c2.7,0,4.1,0.1,5.4,0.6c5.9,1.9,10.1,6.3,12,12.4l0.8,2.6l0.1,132l0.1,132h2.8h2.8v-48.4c0-53.6-0.1-50.9,1.9-54.6
					c1.4-2.5,3.3-4.5,5.9-5.8c3.6-1.9,8.4-1.8,12.1,0.1c2.2,1.1,4.5,3.5,5.6,5.8c1.9,4,1.8,0.1,1.8,60.4c0,59.6,0.1,57.3-1.6,63.6
					c-3.8,14.2-13.5,25.5-25.8,30c-6.4,2.3-4.4,2.2-44.3,2.3C-2888.9,6821-2905.5,6820.9-2906,6820.9z"/>
			</g>
			<g transform="translate(0.000000,1280.000000) scale(0.100000,-0.100000)">
				<path class="st1" d="M-2697.2,6892.7c-6.3-1.2-11.8-4.2-16.2-8.8c-12.8-13.2-13.2-35.4-0.8-49c4.1-4.5,8.8-7.4,14.9-9.3
					c3-0.9,11.5-0.8,14.8,0.2c10.5,3.1,18.5,11.3,21.9,22.2c3.1,10.1,1.7,21.4-3.7,30.2c-3,4.8-8,9.5-12.6,11.8
					C-2684.7,6892.8-2691.5,6893.8-2697.2,6892.7z"/>
				<path class="st1" d="M-2728.4,6818c-14.3-1.7-26-10.5-32.4-24.6c-1-2.3-2.7-7.5-3.3-10.7c-0.5-2.6-0.6-5.3-0.6-59.7
					c0-54.1,0-57,0.5-58.6c1.8-5.7,6.3-9.3,12-9.9c7.2-0.7,13.5,4.6,14.7,12.3c0.2,1.4,0.3,18.1,0.3,49.9v47.8h2.8h2.8l0.1-131.8
					c0.1-126.3,0.1-131.9,0.6-133.7c1.8-6.5,5.7-11,11.5-13.2c2-0.7,2.7-0.9,5.9-0.9c2.7,0,4.1,0.1,5.4,0.6c6,2,10.4,6.5,12.3,12.8
					l0.8,2.6l0.1,77.3l0.1,77.3h2.8h2.8v-76.8c0-84.4-0.1-78.6,1.8-82.9c2-4.5,5.9-8.2,10.5-9.9c2.1-0.7,2.9-0.9,6-0.9
					c2.7,0,4.1,0.1,5.4,0.6c5.9,1.9,10.1,6.3,12,12.4l0.8,2.6l0.1,132l0.1,132h2.8h2.8v-48.4c0-53.6-0.1-50.8,1.9-54.6
					c1.4-2.5,3.3-4.5,5.9-5.8c3.6-1.9,8.4-1.8,12.1,0.1c2.2,1.1,4.5,3.5,5.6,5.8c1.9,4,1.8,0.1,1.8,60.4c0,59.6,0.1,57.3-1.6,63.6
					c-3.8,14.2-13.5,25.5-25.8,30c-6.4,2.3-4.4,2.2-44.3,2.3C-2711.3,6818.1-2727.9,6818-2728.4,6818z"/>
			</g>
			<g transform="translate(0.000000,1280.000000) scale(0.100000,-0.100000)">
				<path class="st1" d="M-2525.3,6895.4c-6.3-1.2-11.8-4.2-16.2-8.8c-12.8-13.2-13.2-35.4-0.8-49c4.1-4.5,8.8-7.4,14.9-9.3
					c3-0.9,11.5-0.8,14.8,0.2c10.5,3.1,18.5,11.3,21.9,22.2c3.1,10.1,1.7,21.4-3.7,30.2c-3,4.8-8,9.5-12.6,11.8
					C-2512.8,6895.5-2519.6,6896.5-2525.3,6895.4z"/>
				<path class="st1" d="M-2556.5,6820.7c-14.3-1.7-26-10.5-32.4-24.6c-1-2.3-2.7-7.5-3.3-10.7c-0.5-2.6-0.6-5.3-0.6-59.7
					c0-54.1,0-57,0.5-58.6c1.8-5.7,6.3-9.3,12-9.9c7.2-0.7,13.5,4.6,14.7,12.3c0.2,1.4,0.3,18.1,0.3,49.9v47.8h2.8h2.8l0.1-131.8
					c0.1-126.3,0.1-131.9,0.6-133.7c1.8-6.5,5.7-11,11.5-13.2c2-0.7,2.7-0.9,5.9-0.9c2.7,0,4.1,0.1,5.4,0.6c6,2,10.4,6.5,12.3,12.8
					l0.8,2.6l0.1,77.3l0.1,77.3h2.8h2.8v-76.8c0-84.4-0.1-78.6,1.8-82.9c2-4.5,5.9-8.2,10.5-9.9c2.1-0.7,2.9-0.9,6-0.9
					c2.7,0,4.1,0.1,5.4,0.6c5.9,1.9,10.1,6.3,12,12.4l0.8,2.6l0.1,132l0.1,132h2.8h2.8v-48.4c0-53.6-0.1-50.8,1.9-54.6
					c1.4-2.5,3.3-4.5,5.9-5.8c3.6-1.9,8.4-1.8,12.1,0.1c2.2,1.1,4.5,3.5,5.6,5.8c1.9,4,1.8,0.1,1.8,60.4c0,59.6,0.1,57.3-1.6,63.6
					c-3.8,14.2-13.5,25.5-25.8,30c-6.4,2.3-4.4,2.2-44.3,2.3C-2539.4,6820.8-2556,6820.8-2556.5,6820.7z"/>
			</g>
			<g transform="translate(0.000000,1280.000000) scale(0.100000,-0.100000)">
				<path class="st1" d="M-2347,6895.8c-6.3-1.2-11.8-4.2-16.2-8.8c-12.8-13.2-13.2-35.4-0.8-49c4.1-4.5,8.8-7.4,14.9-9.3
					c3-0.9,11.5-0.8,14.8,0.2c10.5,3.1,18.5,11.3,21.9,22.2c3.1,10.1,1.7,21.4-3.7,30.2c-3,4.8-8,9.5-12.6,11.8
					C-2334.5,6895.9-2341.3,6896.9-2347,6895.8z"/>
				<path class="st1" d="M-2378.2,6821.1c-14.3-1.7-26-10.5-32.4-24.6c-1-2.3-2.7-7.5-3.3-10.7c-0.5-2.6-0.6-5.3-0.6-59.7
					c0-54.1,0-57,0.5-58.6c1.8-5.7,6.3-9.3,12-9.9c7.2-0.7,13.5,4.6,14.7,12.3c0.2,1.4,0.3,18.1,0.3,49.9v47.8h2.8h2.8l0.1-131.8
					c0.1-126.3,0.1-131.9,0.6-133.7c1.8-6.5,5.7-11,11.5-13.2c2-0.7,2.7-0.9,5.9-0.9c2.7,0,4.1,0.1,5.4,0.6c6,2,10.4,6.5,12.3,12.8
					l0.8,2.6l0.1,77.3l0.1,77.3h2.8h2.8v-76.8c0-84.4-0.1-78.6,1.8-82.9c2-4.5,5.9-8.2,10.5-9.9c2.1-0.7,2.9-0.9,6-0.9
					c2.7,0,4.1,0.1,5.4,0.6c5.9,1.9,10.1,6.3,12,12.4l0.8,2.6l0.1,132l0.1,132h2.8h2.8v-48.4c0-53.6-0.1-50.8,1.9-54.6
					c1.4-2.5,3.3-4.5,5.9-5.8c3.6-1.9,8.4-1.8,12.1,0.1c2.2,1.1,4.5,3.5,5.6,5.8c1.9,4,1.8,0.1,1.8,60.4c0,59.6,0.1,57.3-1.6,63.6
					c-3.8,14.2-13.5,25.5-25.8,30c-6.4,2.3-4.4,2.2-44.3,2.3C-2361.1,6821.2-2377.7,6821.1-2378.2,6821.1z"/>
			</g>
			<g transform="translate(0.000000,1280.000000) scale(0.100000,-0.100000)">
				<path class="st1" d="M-2168.3,6896.7c-6.3-1.2-11.8-4.2-16.2-8.8c-12.8-13.2-13.2-35.4-0.8-49c4.1-4.5,8.8-7.4,14.9-9.3
					c3-0.9,11.5-0.8,14.8,0.2c10.5,3.1,18.5,11.3,21.9,22.2c3.1,10.1,1.7,21.4-3.7,30.2c-3,4.8-8,9.5-12.6,11.8
					C-2155.8,6896.9-2162.6,6897.9-2168.3,6896.7z"/>
				<path class="st1" d="M-2199.5,6822.1c-14.3-1.7-26-10.5-32.4-24.6c-1-2.3-2.7-7.5-3.3-10.7c-0.5-2.6-0.6-5.3-0.6-59.7
					c0-54.1,0-57,0.5-58.6c1.8-5.7,6.3-9.3,12-9.9c7.2-0.7,13.5,4.6,14.7,12.3c0.2,1.4,0.3,18.1,0.3,49.9v47.8h2.8h2.8l0.1-131.8
					c0.1-126.3,0.1-131.9,0.6-133.7c1.8-6.5,5.7-11,11.5-13.2c2-0.7,2.7-0.9,5.9-0.9c2.7,0,4.1,0.1,5.4,0.6c6,2,10.4,6.5,12.3,12.8
					l0.8,2.6l0.1,77.3l0.1,77.3h2.8h2.8v-76.8c0-84.4-0.1-78.6,1.8-82.9c2-4.5,5.9-8.2,10.5-9.9c2.1-0.7,2.9-0.9,6-0.9
					c2.7,0,4.1,0.1,5.4,0.6c5.9,1.9,10.1,6.3,12,12.4l0.8,2.6l0.1,132l0.1,132h2.8h2.8v-48.4c0-53.6-0.1-50.8,1.9-54.6
					c1.4-2.5,3.3-4.5,5.9-5.8c3.6-1.9,8.4-1.8,12.1,0.1c2.2,1.1,4.5,3.5,5.6,5.8c1.9,4,1.8,0.1,1.8,60.4c0,59.6,0.1,57.3-1.6,63.6
					c-3.8,14.2-13.5,25.5-25.8,30c-6.4,2.3-4.4,2.2-44.3,2.3C-2182.3,6822.2-2198.9,6822.1-2199.5,6822.1z"/>
			</g>
			<g transform="translate(0.000000,1280.000000) scale(0.100000,-0.100000)">
				<path class="st1" d="M-1996.9,6896.3c-6.3-1.2-11.8-4.2-16.2-8.8c-12.8-13.2-13.2-35.4-0.8-49c4.1-4.5,8.8-7.4,14.9-9.3
					c3-0.9,11.5-0.8,14.8,0.2c10.5,3.1,18.5,11.3,21.9,22.2c3.1,10.1,1.7,21.4-3.7,30.2c-3,4.8-8,9.5-12.6,11.8
					C-1984.4,6896.4-1991.2,6897.4-1996.9,6896.3z"/>
				<path class="st1" d="M-2028.1,6821.6c-14.3-1.7-26-10.5-32.4-24.6c-1-2.3-2.7-7.5-3.3-10.7c-0.5-2.6-0.6-5.3-0.6-59.7
					c0-54.1,0-57,0.5-58.6c1.8-5.7,6.3-9.3,12-9.9c7.2-0.7,13.5,4.6,14.7,12.3c0.2,1.4,0.3,18.1,0.3,49.9v47.8h2.8h2.8l0.1-131.8
					c0.1-126.3,0.1-131.9,0.6-133.7c1.8-6.5,5.7-11,11.5-13.2c2-0.7,2.7-0.9,5.9-0.9c2.7,0,4.1,0.1,5.4,0.6c6,2,10.4,6.5,12.3,12.8
					l0.8,2.6l0.1,77.3l0.1,77.3h2.8h2.8v-76.8c0-84.4-0.1-78.6,1.8-82.9c2-4.5,5.9-8.2,10.5-9.9c2.1-0.7,2.9-0.9,6-0.9
					c2.7,0,4.1,0.1,5.4,0.6c5.9,1.9,10.1,6.3,12,12.4l0.8,2.6l0.1,132l0.1,132h2.8h2.8v-48.4c0-53.6-0.1-50.8,1.9-54.6
					c1.4-2.5,3.3-4.5,5.9-5.8c3.6-1.9,8.4-1.8,12.1,0.1c2.2,1.1,4.5,3.5,5.6,5.8c1.9,4,1.8,0.1,1.8,60.4c0,59.6,0.1,57.3-1.6,63.6
					c-3.8,14.2-13.5,25.5-25.8,30c-6.4,2.3-4.4,2.2-44.3,2.3C-2011,6821.7-2027.6,6821.7-2028.1,6821.6z"/>
			</g>
			<g transform="translate(0.000000,1280.000000) scale(0.100000,-0.100000)">
				<path class="st1" d="M-1828.7,6897c-6.3-1.2-11.8-4.2-16.2-8.8c-12.8-13.2-13.2-35.4-0.8-49c4.1-4.5,8.8-7.4,14.9-9.3
					c3-0.9,11.5-0.8,14.8,0.2c10.5,3.1,18.5,11.3,21.9,22.2c3.1,10.1,1.7,21.4-3.7,30.2c-3,4.8-8,9.5-12.6,11.8
					C-1816.2,6897.1-1823,6898.2-1828.7,6897z"/>
				<path class="st1" d="M-1859.9,6822.3c-14.3-1.7-26-10.5-32.4-24.6c-1-2.3-2.7-7.5-3.3-10.7c-0.5-2.6-0.6-5.3-0.6-59.7
					c0-54.1,0-57,0.5-58.6c1.8-5.7,6.3-9.3,12-9.9c7.2-0.7,13.5,4.6,14.7,12.3c0.2,1.4,0.3,18.1,0.3,49.9v47.8h2.8h2.8l0.1-131.8
					c0.1-126.3,0.1-131.9,0.6-133.7c1.8-6.5,5.7-11,11.5-13.2c2-0.7,2.7-0.9,5.9-0.9c2.7,0,4.1,0.1,5.4,0.6c6,2,10.4,6.5,12.3,12.8
					l0.8,2.6l0.1,77.3l0.1,77.3h2.8h2.8V6583c0-84.4-0.1-78.6,1.8-82.9c2-4.5,5.9-8.2,10.5-9.9c2.1-0.7,2.9-0.9,6-0.9
					c2.7,0,4.1,0.1,5.4,0.6c5.9,1.9,10.1,6.3,12,12.4l0.8,2.6l0.1,132l0.1,132h2.8h2.8v-48.4c0-53.6-0.1-50.8,1.9-54.6
					c1.4-2.5,3.3-4.5,5.9-5.8c3.6-1.9,8.4-1.8,12.1,0.1c2.2,1.1,4.5,3.5,5.6,5.8c1.9,4,1.8,0.1,1.8,60.4c0,59.6,0.1,57.3-1.6,63.6
					c-3.8,14.2-13.5,25.5-25.8,30c-6.4,2.3-4.4,2.2-44.3,2.3C-1842.8,6822.4-1859.4,6822.4-1859.9,6822.3z"/>
			</g>
			<g transform="translate(0.000000,1280.000000) scale(0.100000,-0.100000)">
				<path class="st1" d="M-1663.5,6895.5c-6.3-1.2-11.8-4.2-16.2-8.8c-12.8-13.2-13.2-35.4-0.8-49c4.1-4.5,8.8-7.4,14.9-9.3
					c3-0.9,11.5-0.8,14.8,0.2c10.5,3.1,18.5,11.3,21.9,22.2c3.1,10.1,1.7,21.4-3.7,30.2c-3,4.8-8,9.5-12.6,11.8
					C-1651.1,6895.6-1657.8,6896.7-1663.5,6895.5z"/>
				<path class="st1" d="M-1694.8,6820.8c-14.3-1.7-26-10.5-32.4-24.6c-1-2.3-2.7-7.5-3.3-10.7c-0.5-2.6-0.6-5.3-0.6-59.7
					c0-54.1,0-57,0.5-58.6c1.8-5.7,6.3-9.3,12-9.9c7.2-0.7,13.5,4.6,14.7,12.3c0.2,1.4,0.3,18.1,0.3,49.9v47.8h2.8h2.8l0.1-131.8
					c0.1-126.3,0.1-131.9,0.6-133.7c1.8-6.5,5.7-11,11.5-13.2c2-0.7,2.7-0.9,5.9-0.9c2.7,0,4.1,0.1,5.4,0.6c6,2,10.4,6.5,12.3,12.8
					l0.8,2.6l0.1,77.3l0.1,77.3h2.8h2.8v-76.8c0-84.4-0.1-78.6,1.8-82.9c2-4.5,5.9-8.2,10.5-9.9c2.1-0.7,2.9-0.9,6-0.9
					c2.7,0,4.1,0.1,5.4,0.6c5.9,1.9,10.1,6.3,12,12.4l0.8,2.6l0.1,132l0.1,132h2.8h2.8V6719c0-53.6-0.1-50.8,1.9-54.6
					c1.4-2.5,3.3-4.5,5.9-5.8c3.6-1.9,8.4-1.8,12.1,0.1c2.2,1.1,4.5,3.5,5.6,5.8c1.9,4,1.8,0.1,1.8,60.4c0,59.6,0.1,57.3-1.6,63.6
					c-3.8,14.2-13.5,25.5-25.8,30c-6.4,2.3-4.4,2.2-44.3,2.3C-1677.6,6820.9-1694.2,6820.9-1694.8,6820.8z"/>
			</g>
		</g>
	</g>
</g>
<ellipse cx="65.1" cy="94.8" rx="6.7" ry="6.8"/>
<text transform="matrix(1 0 0 1 73.3405 81.7442)" class="st11"><tspan x="0" y="0" class="st10 st6"> Fallecen en el impacto aquellos que viajaban </tspan><tspan x="0" y="12" class="st10 st6"> en la parte delantera del avión</tspan></text>
<ellipse cx="75.8" cy="142.7" rx="6.7" ry="6.8"/>
<text transform="matrix(1 0 0 1 75.5235 129.0118)" class="st10 st6">Fallecen en la primera noche tras el impacto</text>
<ellipse cx="147.6" cy="156.3" rx="6.7" ry="6.8"/>
<ellipse cx="172.8" cy="216.6" rx="6.7" ry="6.8"/>
<ellipse cx="229.1" cy="317.3" rx="6.7" ry="6.8"/>
<text transform="matrix(1 0 0 1 158.996 154.0847)" class="st10 st6">Fallece Susana Parrado (hermana de uno de los rugbistas) </text>
<text transform="matrix(1 0 0 1 190.7651 200.221)" class="st10 st6">Se encuentran nuevos cadáveres cuando un grupo </text>
<text transform="matrix(1 0 0 1 190.7651 214.6209)" class="st10 st6">realizó expediciones  </text>
<text transform="matrix(1 0 0 1 242.5996 300.8406)" class="st10 st6">Fallecen por avalancha que tapó</text>
<text transform="matrix(1 0 0 1 242.5996 315.2406)" class="st10 st6">casi por completo el fusilaje </text>
<text transform="matrix(1 0 0 1 410.0053 329.4597)" class="st10 st6">Sucumben por el hambre y el frío</text>
<ellipse cx="401.4" cy="323.1" rx="6.7" ry="6.8"/>
<text transform="matrix(1 0 0 1 670.6604 323.8576)" class="st11"><tspan x="0" y="0" class="st10 st6">Numa Turcatti </tspan><tspan x="0" y="12" class="st10 st6">(estudiante rugbista)</tspan></text>
<ellipse cx="659.4" cy="341.4" rx="6.7" ry="6.8"/>
<ellipse cx="682.6" cy="361.3" rx="6.7" ry="6.8"/>
<ellipse cx="696.7" cy="381.2" rx="6.7" ry="6.8"/>
<ellipse cx="432.4" cy="341.6" rx="6.7" ry="6.8"/>
<text transform="matrix(1 0 0 1 699.9273 353.3754)" class="st11"><tspan x="0" y="0" class="st10 st6">Hallado cadáver de</tspan><tspan x="0" y="12" class="st10 st6"> Daniel Shaw </tspan></text>
<text transform="matrix(1 0 0 1 707.9304 381.4542)" class="st11"><tspan x="0" y="0" class="st10 st6">Hallado cadáver de</tspan><tspan x="0" y="12" class="st10 st6">Carlos Valeta al </tspan><tspan x="0" y="24" class="st10 st6">buscar ayuda</tspan></text>
<text transform="matrix(1 0 0 1 449.7599 344.0853)" class="st10 st6">Rafael Echavarren </text>
</svg>
